P3
# CREATOR: The GIMP's PNM Filter Version 1.0
1024 1
255
0
0
0
0
0
0
0
0
0
0
0
0
0
0
0
0
0
0
0
0
1
0
0
1
0
0
2
0
0
2
0
0
3
0
0
3
0
0
4
0
0
4
0
0
5
0
0
5
0
0
6
0
0
6
0
0
7
0
0
7
0
0
8
0
0
8
0
0
9
0
0
9
0
0
10
0
0
10
0
0
11
0
0
11
0
0
12
0
0
12
0
0
13
0
0
13
0
0
14
0
0
14
0
0
15
0
0
15
0
0
16
0
0
16
0
0
17
0
0
17
0
0
18
0
0
18
0
0
19
0
0
19
0
0
20
0
0
20
0
0
21
0
0
21
0
0
22
0
0
22
0
0
23
0
0
23
0
0
24
0
0
24
0
0
25
0
0
25
0
0
26
0
0
26
0
0
27
0
0
27
0
0
28
0
0
28
0
0
29
0
0
29
0
0
30
0
0
30
0
0
31
0
0
31
0
0
32
0
0
32
0
0
33
0
0
33
0
0
34
0
0
34
0
0
35
0
0
35
0
0
36
0
0
36
0
0
37
0
0
37
0
0
38
0
0
38
0
0
39
0
0
39
0
0
40
0
0
40
0
0
41
0
0
41
0
0
42
0
0
42
0
0
43
0
0
43
0
0
44
0
0
44
0
0
45
0
0
45
0
0
46
0
0
46
0
0
47
0
0
47
0
0
48
0
0
48
0
0
49
0
0
49
0
0
50
0
0
50
0
0
51
0
0
51
0
0
52
0
0
52
0
0
53
0
0
53
0
0
54
0
0
54
0
0
55
0
0
55
0
0
56
0
0
56
0
0
57
0
0
57
0
0
58
0
0
58
0
0
59
0
0
59
0
0
60
0
0
60
0
0
61
0
0
61
0
0
62
0
0
62
0
0
63
0
0
63
0
0
64
0
0
64
0
0
65
0
0
65
0
0
66
0
0
66
0
0
67
0
0
67
0
0
68
0
0
68
0
0
69
0
0
69
0
0
70
0
0
70
0
0
71
0
0
71
0
0
72
0
0
72
0
0
73
0
0
73
0
0
74
0
0
74
0
0
75
0
0
75
0
0
76
0
0
76
0
0
77
0
0
77
0
0
78
0
0
78
0
0
79
0
0
79
0
0
80
0
0
80
0
0
81
0
0
81
0
0
82
0
0
82
0
0
83
0
0
83
0
0
84
0
0
84
0
0
85
0
0
85
0
0
86
0
0
86
0
0
87
0
0
87
0
0
88
0
0
88
0
0
89
0
0
89
0
0
90
0
0
90
0
0
91
0
0
91
0
0
92
0
0
92
0
0
93
0
0
93
0
0
94
0
0
94
0
0
95
0
0
95
0
0
96
0
0
96
0
0
97
0
0
97
0
0
98
0
0
98
0
0
99
0
0
99
0
0
100
0
0
100
0
0
101
0
0
101
0
0
102
0
0
102
0
0
103
0
0
103
0
0
104
0
0
104
0
0
105
0
0
105
0
0
106
0
0
106
0
0
107
0
0
107
0
0
108
0
0
108
0
0
109
0
0
109
0
0
110
0
0
110
0
0
111
0
0
111
0
0
112
0
0
112
0
0
113
0
0
113
0
0
114
0
0
114
0
0
115
0
0
115
0
0
116
0
0
116
0
0
117
0
0
117
0
0
118
0
0
118
0
0
119
0
0
119
0
0
120
0
0
120
0
0
121
0
0
121
0
0
122
0
0
122
0
0
123
0
0
123
0
0
124
0
0
124
0
0
125
0
0
125
0
0
126
0
0
126
0
0
127
0
0
127
0
0
128
0
0
128
0
0
129
0
0
129
0
0
130
0
0
130
0
0
131
0
0
131
0
0
132
0
0
132
0
0
133
0
0
133
0
0
134
0
0
134
0
0
135
0
0
135
0
0
136
0
0
136
0
0
137
0
0
137
0
0
138
0
0
138
0
0
139
0
0
139
0
0
140
0
0
140
0
0
141
0
0
141
0
0
142
0
0
142
0
0
143
0
0
143
0
0
144
0
0
144
0
0
145
0
0
145
0
0
146
0
0
146
0
0
147
0
0
147
0
0
148
0
0
148
0
0
149
0
0
149
0
0
150
0
0
150
0
0
151
0
0
151
0
0
152
0
0
152
0
0
153
0
0
153
0
0
154
0
0
154
0
0
155
0
0
155
0
0
156
0
0
156
0
0
157
0
0
157
0
0
158
0
0
158
0
0
159
0
0
159
0
0
160
0
0
160
0
0
161
0
0
161
0
0
162
0
0
162
0
0
163
0
0
163
0
0
164
0
0
164
0
0
165
0
0
165
0
0
166
0
0
166
0
0
167
0
0
167
0
0
168
0
0
168
0
0
169
0
0
169
0
0
170
0
0
170
0
0
171
0
0
171
0
0
172
0
0
172
0
0
173
0
0
173
0
0
174
0
0
174
0
0
175
0
0
175
0
0
176
0
0
176
0
0
177
0
0
177
0
0
178
0
0
178
0
0
179
0
0
179
0
0
180
0
0
180
0
0
181
0
0
181
0
0
182
0
0
182
0
0
183
0
0
183
0
0
184
0
0
184
0
0
185
0
0
185
0
0
186
0
0
186
0
0
187
0
0
187
0
0
188
0
0
188
0
0
189
0
0
189
0
0
190
0
0
190
0
0
191
0
0
191
0
0
192
0
0
192
0
0
193
0
0
193
0
0
194
0
0
194
0
0
195
0
0
195
0
0
196
0
0
196
0
0
197
0
0
197
0
0
198
0
0
198
0
0
199
0
0
199
0
0
200
0
0
200
0
0
201
0
0
201
0
0
202
0
0
202
0
0
203
0
0
203
0
0
204
0
0
204
0
0
205
0
0
205
0
0
206
0
0
206
0
0
207
0
0
207
0
0
208
0
0
208
0
0
209
0
0
209
0
0
210
0
0
210
0
0
211
0
0
211
0
0
212
0
0
212
0
0
213
0
0
213
0
0
214
0
0
214
0
0
215
0
0
215
0
0
216
0
0
216
0
0
217
0
0
217
0
0
218
0
0
218
0
0
219
0
0
219
0
0
220
0
0
220
0
0
221
0
0
221
0
0
222
0
0
222
0
0
223
0
0
223
0
0
224
0
0
224
0
0
225
0
0
225
0
0
226
0
0
226
0
0
227
0
0
227
0
0
228
0
0
228
0
0
229
0
0
229
0
0
230
0
0
230
0
0
231
0
0
231
0
0
232
0
0
232
0
0
233
0
0
233
0
0
234
0
0
234
0
0
235
0
0
235
0
0
236
0
0
236
0
0
237
0
0
237
0
0
238
0
0
238
0
0
239
0
0
239
0
0
240
0
0
240
0
0
241
0
0
241
0
0
242
0
0
242
0
0
243
0
0
243
0
0
244
0
0
244
0
0
245
0
0
245
0
0
246
0
0
246
0
0
247
0
0
247
0
0
248
0
0
248
0
0
249
0
0
249
0
0
250
0
0
251
0
0
251
0
0
252
0
0
252
0
0
253
0
0
253
0
0
254
0
0
254
0
0
255
0
0
255
1
1
255
1
1
255
2
2
255
2
2
255
3
3
255
3
3
255
4
4
255
4
4
255
5
5
255
5
5
255
6
6
255
6
6
255
7
7
255
7
7
255
8
8
255
8
8
255
9
9
255
9
9
255
10
10
255
10
10
255
11
11
255
11
11
255
12
12
255
12
12
255
13
13
255
13
13
255
14
14
255
14
14
255
15
15
255
15
15
255
16
16
255
16
16
255
17
17
255
17
17
255
18
18
255
18
18
255
19
19
255
19
19
255
20
20
255
20
20
255
21
21
255
21
21
255
22
22
255
22
22
255
23
23
255
23
23
255
24
24
255
24
24
255
25
25
255
25
25
255
26
26
255
26
26
255
27
27
255
27
27
255
28
28
255
28
28
255
29
29
255
29
29
255
30
30
255
30
30
255
31
31
255
31
31
255
32
32
255
32
32
255
33
33
255
33
33
255
34
34
255
34
34
255
35
35
255
35
35
255
36
36
255
36
36
255
37
37
255
37
37
255
38
38
255
38
38
255
39
39
255
39
39
255
40
40
255
40
40
255
41
41
255
41
41
255
42
42
255
42
42
255
43
43
255
43
43
255
44
44
255
44
44
255
45
45
255
45
45
255
46
46
255
46
46
255
47
47
255
47
47
255
48
48
255
48
48
255
49
49
255
49
49
255
50
50
255
50
50
255
51
51
255
51
51
255
52
52
255
52
52
255
53
53
255
53
53
255
54
54
255
54
54
255
55
55
255
55
55
255
56
56
255
56
56
255
57
57
255
57
57
255
58
58
255
58
58
255
59
59
255
59
59
255
60
60
255
60
60
255
61
61
255
61
61
255
62
62
255
62
62
255
63
63
255
63
63
255
64
64
255
64
64
255
65
65
255
65
65
255
66
66
255
66
66
255
67
67
255
67
67
255
68
68
255
68
68
255
69
69
255
69
69
255
70
70
255
70
70
255
71
71
255
71
71
255
72
72
255
72
72
255
73
73
255
73
73
255
74
74
255
74
74
255
75
75
255
75
75
255
76
76
255
76
76
255
77
77
255
77
77
255
78
78
255
78
78
255
79
79
255
79
79
255
80
80
255
80
80
255
81
81
255
81
81
255
82
82
255
82
82
255
83
83
255
83
83
255
84
84
255
84
84
255
85
85
255
85
85
255
86
86
255
86
86
255
87
87
255
87
87
255
88
88
255
88
88
255
89
89
255
89
89
255
90
90
255
90
90
255
91
91
255
91
91
255
92
92
255
92
92
255
93
93
255
93
93
255
94
94
255
94
94
255
95
95
255
95
95
255
96
96
255
96
96
255
97
97
255
97
97
255
98
98
255
98
98
255
99
99
255
99
99
255
100
100
255
100
100
255
101
101
255
101
101
255
102
102
255
102
102
255
103
103
255
103
103
255
104
104
255
104
104
255
105
105
255
105
105
255
106
106
255
106
106
255
107
107
255
107
107
255
108
108
255
108
108
255
109
109
255
109
109
255
110
110
255
110
110
255
111
111
255
111
111
255
112
112
255
112
112
255
113
113
255
113
113
255
114
114
255
114
114
255
115
115
255
115
115
255
116
116
255
116
116
255
117
117
255
117
117
255
118
118
255
118
118
255
119
119
255
119
119
255
120
120
255
120
120
255
121
121
255
121
121
255
122
122
255
122
122
255
123
123
255
123
123
255
124
124
255
124
124
255
125
125
255
125
125
255
126
126
255
126
126
255
127
127
255
127
127
255
128
128
255
128
128
255
129
129
255
129
129
255
130
130
255
130
130
255
131
131
255
131
131
255
132
132
255
132
132
255
133
133
255
133
133
255
134
134
255
134
134
255
135
135
255
135
135
255
136
136
255
136
136
255
137
137
255
137
137
255
138
138
255
138
138
255
139
139
255
139
139
255
140
140
255
140
140
255
141
141
255
141
141
255
142
142
255
142
142
255
143
143
255
143
143
255
144
144
255
144
144
255
145
145
255
145
145
255
146
146
255
146
146
255
147
147
255
147
147
255
148
148
255
148
148
255
149
149
255
149
149
255
150
150
255
150
150
255
151
151
255
151
151
255
152
152
255
152
152
255
153
153
255
153
153
255
154
154
255
154
154
255
155
155
255
155
155
255
156
156
255
156
156
255
157
157
255
157
157
255
158
158
255
158
158
255
159
159
255
159
159
255
160
160
255
160
160
255
161
161
255
161
161
255
162
162
255
162
162
255
163
163
255
163
163
255
164
164
255
164
164
255
165
165
255
165
165
255
166
166
255
166
166
255
167
167
255
167
167
255
168
168
255
168
168
255
169
169
255
169
169
255
170
170
255
170
170
255
171
171
255
171
171
255
172
172
255
172
172
255
173
173
255
173
173
255
174
174
255
174
174
255
175
175
255
175
175
255
176
176
255
176
176
255
177
177
255
177
177
255
178
178
255
178
178
255
179
179
255
179
179
255
180
180
255
180
180
255
181
181
255
181
181
255
182
182
255
182
182
255
183
183
255
183
183
255
184
184
255
184
184
255
185
185
255
185
185
255
186
186
255
186
186
255
187
187
255
187
187
255
188
188
255
188
188
255
189
189
255
189
189
255
190
190
255
190
190
255
191
191
255
191
191
255
192
192
255
192
192
255
193
193
255
193
193
255
194
194
255
194
194
255
195
195
255
195
195
255
196
196
255
196
196
255
197
197
255
197
197
255
198
198
255
198
198
255
199
199
255
199
199
255
200
200
255
200
200
255
201
201
255
201
201
255
202
202
255
202
202
255
203
203
255
203
203
255
204
204
255
204
204
255
205
205
255
205
205
255
206
206
255
206
206
255
207
207
255
207
207
255
208
208
255
208
208
255
209
209
255
209
209
255
210
210
255
210
210
255
211
211
255
211
211
255
212
212
255
212
212
255
213
213
255
213
213
255
214
214
255
214
214
255
215
215
255
215
215
255
216
216
255
216
216
255
217
217
255
217
217
255
218
218
255
218
218
255
219
219
255
219
219
255
220
220
255
220
220
255
221
221
255
221
221
255
222
222
255
222
222
255
223
223
255
223
223
255
224
224
255
224
224
255
225
225
255
225
225
255
226
226
255
226
226
255
227
227
255
227
227
255
228
228
255
228
228
255
229
229
255
229
229
255
230
230
255
230
230
255
231
231
255
231
231
255
232
232
255
232
232
255
233
233
255
233
233
255
234
234
255
234
234
255
235
235
255
235
235
255
236
236
255
236
236
255
237
237
255
237
237
255
238
238
255
238
238
255
239
239
255
239
239
255
240
240
255
240
240
255
241
241
255
241
241
255
242
242
255
242
242
255
243
243
255
243
243
255
244
244
255
244
244
255
245
245
255
245
245
255
246
246
255
246
246
255
247
247
255
247
247
255
248
248
255
248
248
255
249
249
255
249
249
255
250
250
255
251
251
255
251
251
255
252
252
255
252
252
255
253
253
255
253
253
255
254
254
255
254
254
255
255
255
255
255
255
255
