P3
# CREATOR: The GIMP's PNM Filter Version 1.0
1024 1
255
0
0
2
0
0
2
0
0
2
0
0
3
0
0
3
0
0
4
0
0
4
0
0
4
0
0
5
0
0
5
0
0
5
0
0
6
0
0
6
0
0
6
0
0
7
0
0
7
0
0
8
0
0
8
0
0
8
0
0
9
0
0
9
0
0
9
0
0
10
0
0
10
0
0
10
0
0
11
0
0
11
0
0
12
0
0
12
0
0
12
0
0
13
0
0
13
0
0
13
0
0
14
0
0
14
0
0
15
0
0
15
0
0
15
0
0
16
0
0
16
0
0
16
0
0
17
0
0
17
0
0
17
0
0
18
0
0
18
0
0
19
0
0
19
0
0
19
0
0
20
0
0
20
0
0
20
0
0
21
0
0
21
0
0
21
0
0
22
0
0
22
0
0
23
0
0
23
0
0
23
0
0
24
0
0
24
0
0
24
0
0
25
0
0
25
0
0
26
0
0
26
0
0
26
0
0
27
0
0
27
0
0
27
0
0
28
0
0
28
0
0
28
0
0
29
0
0
29
0
0
30
0
0
30
0
0
30
0
0
31
0
0
31
0
0
31
0
0
32
0
0
32
0
0
32
0
0
33
0
0
33
0
0
34
0
0
34
0
0
34
0
0
35
0
0
35
0
0
35
0
0
36
0
0
36
0
0
36
0
0
37
0
0
37
0
0
38
0
0
38
0
0
38
0
0
39
0
0
39
0
0
39
0
0
40
0
0
40
0
0
41
0
0
41
0
0
41
0
0
42
0
0
42
0
0
42
0
0
43
0
0
43
0
0
43
0
0
44
0
0
44
0
0
45
0
0
45
0
0
45
0
0
46
0
0
46
0
0
46
0
0
47
0
0
47
0
0
47
0
0
48
0
0
48
0
0
49
0
0
49
0
0
49
0
0
50
0
0
50
0
0
50
0
0
51
0
0
51
0
0
52
0
0
52
0
0
52
0
0
53
0
0
53
0
0
53
0
0
54
0
0
54
0
0
54
0
0
55
0
0
55
0
0
56
0
0
56
0
0
56
0
0
57
0
0
57
0
0
57
0
0
58
0
0
58
0
0
58
0
0
59
0
0
59
0
0
60
0
0
60
0
0
60
0
0
61
0
0
61
0
0
61
0
0
62
0
0
62
0
0
63
0
0
63
0
0
63
0
0
64
0
0
64
0
0
65
0
0
65
0
0
66
0
0
66
0
0
67
0
0
68
0
0
68
0
0
69
0
0
69
0
0
70
0
0
70
0
0
71
0
0
71
0
0
72
0
0
72
0
0
73
0
0
74
0
0
74
0
0
75
0
0
75
0
0
76
0
0
76
0
0
77
0
0
77
0
0
78
0
0
78
0
0
79
0
0
80
0
0
80
0
0
81
0
0
81
0
0
82
0
0
82
0
0
83
0
0
83
0
0
84
0
0
84
0
0
85
0
0
86
0
0
86
0
0
87
0
0
87
0
0
88
0
0
88
0
0
89
0
0
89
0
0
90
0
0
90
0
0
91
0
0
92
0
0
92
0
0
93
0
0
93
0
0
94
0
0
94
0
0
95
0
0
95
0
0
96
0
0
96
0
0
97
0
0
98
0
0
98
0
0
99
0
0
99
0
0
100
0
0
100
0
0
101
0
0
101
0
0
102
0
0
102
0
0
103
0
0
104
0
0
104
0
0
105
0
0
105
0
0
106
0
0
106
0
0
107
0
0
107
0
0
108
0
0
108
0
0
109
0
0
109
0
0
110
0
0
111
0
0
111
0
0
112
0
0
112
0
0
113
0
0
113
0
0
114
0
0
114
0
0
115
0
0
115
0
0
116
0
0
117
0
0
117
0
0
118
0
0
118
0
0
119
0
0
119
0
0
120
0
0
120
0
0
121
0
0
121
0
0
122
0
0
123
0
0
123
0
0
124
0
0
124
0
0
125
0
0
125
0
0
126
0
0
126
0
0
127
0
0
127
0
1
126
0
2
126
0
2
125
0
3
125
0
4
125
0
5
124
0
5
124
0
6
123
0
7
123
0
8
122
0
8
122
0
9
122
0
10
121
0
11
121
0
11
120
0
12
120
0
13
119
0
14
119
0
14
119
1
15
118
1
16
118
1
17
117
1
17
117
1
18
116
1
19
116
1
20
116
1
20
115
1
21
115
1
22
114
1
23
114
1
23
113
1
24
113
1
25
113
1
26
112
1
26
112
1
27
111
1
28
111
1
29
110
1
29
110
1
30
110
2
31
109
2
32
109
2
32
108
2
33
108
2
34
108
2
34
107
2
35
107
2
36
106
2
37
106
2
37
105
2
38
105
2
39
105
2
40
104
2
40
104
2
41
103
2
42
103
2
43
102
2
43
102
2
44
102
2
45
101
3
46
101
3
46
100
3
47
100
3
48
99
3
49
99
3
49
99
3
50
98
3
51
98
3
52
97
3
52
97
3
53
96
3
54
96
3
55
96
3
55
95
3
56
95
3
57
94
3
58
94
3
58
93
3
59
93
3
60
93
3
61
92
4
61
92
4
62
91
4
63
91
4
64
91
4
64
90
4
65
90
4
66
89
4
67
89
4
67
88
4
68
88
4
69
88
4
70
87
4
70
87
4
71
86
4
72
86
4
73
85
4
73
85
4
74
85
4
75
84
4
76
84
5
76
83
5
77
83
5
78
82
5
79
82
5
79
82
5
80
81
5
81
81
5
82
80
5
82
80
5
83
79
5
84
79
5
85
79
5
85
78
5
86
78
5
87
77
5
88
77
5
88
76
5
89
76
5
90
76
5
91
75
5
91
75
6
92
74
6
93
74
6
94
73
6
94
73
6
95
73
6
96
72
6
97
72
6
97
71
6
98
71
6
99
71
6
100
70
6
100
70
6
101
69
6
102
69
6
103
68
6
103
68
6
104
68
6
105
67
6
106
67
6
106
66
7
107
66
7
108
65
7
108
65
7
109
65
7
110
64
7
111
64
7
111
63
7
113
63
7
114
62
7
115
61
7
117
60
7
118
60
7
119
59
7
120
58
7
122
58
8
123
57
8
124
56
8
125
55
8
127
55
8
128
54
8
129
53
8
131
52
8
132
52
8
133
51
8
134
50
8
136
50
8
137
49
9
138
48
9
140
47
9
141
47
9
142
46
9
143
45
9
145
44
9
146
44
9
147
43
9
148
42
9
150
42
9
151
41
9
152
40
10
154
39
10
155
39
10
156
38
10
157
37
10
159
36
10
160
36
10
161
35
10
162
34
10
164
34
10
165
33
10
166
32
10
168
31
11
169
31
11
170
30
11
171
29
11
173
28
11
174
28
11
175
27
11
176
26
11
178
26
11
179
25
11
180
24
11
182
23
11
183
23
12
184
22
12
185
21
12
187
20
12
188
20
12
189
19
12
191
18
12
192
18
12
193
17
12
194
16
12
196
15
12
197
15
12
198
14
13
199
13
13
201
13
13
202
12
13
203
11
13
205
10
13
206
10
13
207
9
13
208
8
13
210
7
13
211
7
13
212
6
13
213
5
14
215
5
14
216
4
14
217
3
14
219
2
14
220
2
14
221
1
14
222
0
14
224
0
14
222
0
14
221
1
14
220
1
14
219
2
14
218
2
14
217
3
14
216
3
14
215
4
14
214
4
13
213
5
13
211
5
13
210
6
13
209
7
13
208
7
13
207
8
13
206
8
13
205
9
13
204
9
13
203
10
13
201
10
13
200
11
13
199
11
13
198
12
13
197
13
13
196
13
12
195
14
12
194
14
12
193
15
12
192
15
12
190
16
12
189
16
12
188
17
12
187
17
12
186
18
12
185
18
12
184
19
12
183
20
12
182
20
12
181
21
12
179
21
12
178
22
11
177
22
11
176
23
11
175
23
11
174
24
11
173
24
11
172
25
11
171
26
11
170
26
11
168
27
11
167
27
11
166
28
11
165
28
11
164
29
11
163
29
11
162
30
11
161
30
10
160
31
10
158
31
10
157
32
10
156
33
10
155
33
10
154
34
10
153
34
10
152
35
10
151
35
10
150
36
10
149
36
10
147
37
10
146
37
10
145
38
10
144
39
10
143
39
9
142
40
9
141
40
9
140
41
9
139
41
9
138
42
9
136
42
9
135
43
9
134
43
9
133
44
9
132
44
9
131
45
9
130
46
9
129
46
9
128
47
9
127
47
9
125
48
8
124
48
8
123
49
8
122
49
8
121
50
8
120
50
8
119
51
8
118
52
8
117
52
8
116
53
8
114
53
8
113
54
8
112
54
8
111
55
8
110
55
8
109
56
8
108
56
7
108
57
7
107
57
7
106
57
7
105
58
7
104
58
7
103
59
7
102
59
7
101
60
7
100
60
7
99
61
7
98
61
7
97
61
7
97
62
7
96
62
7
95
63
7
94
63
7
93
64
7
92
64
7
91
65
6
90
65
6
89
66
6
88
66
6
87
66
6
86
67
6
86
67
6
85
68
6
84
68
6
83
69
6
82
69
6
81
70
6
80
70
6
79
70
6
78
71
6
77
71
6
76
72
6
75
72
6
75
73
6
74
73
5
73
74
5
72
74
5
71
75
5
70
75
5
69
75
5
68
76
5
67
76
5
66
77
5
65
77
5
64
78
5
64
78
5
63
79
5
62
79
5
61
79
5
60
80
5
59
80
5
58
81
5
57
81
5
56
82
4
55
82
4
54
83
4
53
83
4
53
84
4
52
84
4
51
84
4
50
85
4
49
85
4
48
86
4
47
86
4
46
87
4
45
87
4
44
88
4
43
88
4
42
88
4
42
89
4
41
89
4
40
90
4
39
90
4
38
91
3
37
91
3
36
92
3
35
92
3
34
93
3
33
93
3
32
93
3
31
94
3
31
94
3
30
95
3
29
95
3
28
96
3
27
96
3
26
97
3
25
97
3
24
97
3
23
98
3
22
98
3
21
99
3
20
99
2
20
100
2
19
100
2
18
101
2
17
101
2
16
102
2
15
102
2
14
102
2
13
103
2
12
103
2
11
104
2
10
104
2
9
105
2
9
105
2
8
106
2
7
106
2
6
107
2
5
107
2
4
107
2
3
108
1
2
108
1
1
109
1
0
109
1
0
110
2
0
110
3
1
111
4
2
111
5
3
112
5
4
112
6
4
112
7
5
113
8
6
113
9
7
114
9
8
114
10
9
115
11
9
115
12
10
116
13
11
116
13
12
117
14
13
117
15
13
118
16
14
118
17
15
118
18
16
119
18
17
119
19
17
120
20
18
120
21
19
121
22
20
121
22
21
122
23
22
122
24
22
123
25
23
123
26
24
124
26
25
124
27
26
124
28
26
125
29
27
125
30
28
126
30
29
126
31
30
127
32
30
127
33
31
128
34
32
128
34
33
129
35
34
129
36
35
130
37
35
130
38
36
130
39
37
131
39
38
131
40
39
132
41
39
132
42
40
133
43
41
133
43
42
134
44
43
134
45
43
135
46
44
135
47
45
136
47
46
136
48
47
136
49
48
137
50
48
137
51
49
138
51
50
138
52
51
139
53
52
139
54
52
140
55
53
140
55
54
141
56
55
141
57
56
142
58
56
142
59
57
142
60
58
143
60
59
143
61
60
144
62
61
144
63
61
145
64
62
145
64
63
146
65
64
146
66
65
147
67
65
147
68
66
148
68
67
148
69
68
148
70
69
149
71
70
149
72
70
150
72
71
150
73
72
151
74
73
151
75
74
152
76
74
152
76
75
153
77
76
153
78
77
154
79
78
154
80
78
154
81
79
155
81
80
155
82
81
156
83
82
156
84
83
157
85
83
157
85
84
158
86
85
158
87
86
159
88
87
159
89
87
160
89
88
160
90
89
160
91
90
161
92
91
161
93
91
162
93
92
162
94
93
163
95
94
163
96
95
164
97
96
164
97
96
165
98
97
165
99
98
166
100
99
166
101
100
166
102
100
167
102
101
167
103
102
168
104
103
168
105
104
169
106
104
169
106
105
170
107
106
170
108
107
171
109
108
171
110
109
172
110
109
172
111
110
172
112
111
173
113
112
173
114
113
174
114
113
174
115
114
175
116
115
175
117
116
176
118
117
176
118
117
177
119
118
177
120
119
178
121
120
178
122
121
178
122
122
179
123
122
179
124
123
180
125
124
180
126
125
181
127
126
181
127
126
182
128
127
182
129
128
183
130
129
183
131
130
184
132
131
185
133
133
185
134
134
186
135
135
186
136
136
187
138
137
188
139
138
188
140
139
189
141
140
189
142
141
190
143
142
191
144
143
191
145
144
192
146
145
192
147
146
193
148
147
193
149
148
194
150
149
195
151
150
195
152
151
196
153
152
196
154
153
197
155
154
198
156
155
198
157
156
199
158
158
199
159
159
200
160
160
201
161
161
201
162
162
202
163
163
202
164
164
203
165
165
204
167
166
204
168
167
205
169
168
205
170
169
206
171
170
207
172
171
207
173
172
208
174
173
208
175
174
209
176
175
209
177
176
210
178
177
211
179
178
211
180
179
212
181
180
212
182
182
213
183
183
214
184
184
214
185
185
215
186
186
215
187
187
216
188
188
217
189
189
217
190
190
218
191
191
218
192
192
219
193
193
220
194
194
220
195
195
221
197
196
221
198
197
222
199
198
223
200
199
223
201
200
224
202
201
224
203
202
225
204
203
225
205
204
226
206
205
227
207
207
227
208
208
228
209
209
228
210
210
229
211
211
230
212
212
230
213
213
231
214
214
231
215
215
232
216
216
233
217
217
233
218
218
234
219
219
234
220
220
235
221
221
236
222
222
236
223
223
237
224
224
237
225
225
238
227
226
238
228
227
239
229
228
240
230
229
240
231
231
241
232
232
241
233
233
242
234
234
243
235
235
243
236
236
244
237
237
244
238
238
245
239
239
246
240
240
246
241
241
247
242
242
247
243
243
248
244
244
249
245
245
249
246
246
250
247
247
250
248
248
251
249
249
252
250
250
252
251
251
253
