P3
# Created by GIMP version 2.10.20 PNM plug-in
1024 1
255
1
1
4
0
0
3
0
0
3
0
0
3
0
0
4
0
0
4
0
0
4
0
0
4
0
0
4
0
0
4
0
0
4
0
0
4
1
0
4
1
0
4
1
0
4
1
0
4
1
1
4
1
1
4
1
1
4
1
1
4
1
1
4
1
1
4
1
1
4
1
1
4
1
1
4
1
1
4
2
2
13
2
2
13
2
2
15
2
2
15
2
2
15
2
2
15
3
3
16
3
3
17
3
3
17
3
3
17
4
3
19
4
3
19
4
3
19
4
3
19
4
4
21
4
4
21
4
4
21
4
4
21
5
4
23
5
4
23
5
4
23
5
4
23
6
5
25
6
5
25
6
5
25
6
5
25
7
5
27
7
5
27
7
5
27
7
5
27
8
6
28
8
6
29
8
6
29
8
6
29
9
7
31
9
7
31
9
7
31
9
7
31
10
7
34
10
7
34
10
7
34
10
7
34
11
8
36
11
8
36
11
8
36
11
8
36
12
9
38
12
9
38
12
9
38
12
9
38
13
10
40
13
10
40
13
10
40
13
10
40
14
10
41
14
10
42
14
10
42
14
10
42
15
11
44
15
11
44
15
11
44
15
11
44
16
12
47
16
12
47
16
12
47
16
12
47
17
12
49
17
12
49
17
12
49
17
12
49
18
13
51
18
13
51
18
13
51
18
13
51
20
13
52
20
13
53
20
13
53
20
13
53
21
14
55
21
14
56
21
14
56
21
14
56
22
14
58
22
14
58
22
14
58
22
14
58
23
15
60
23
15
60
23
15
60
23
15
60
24
15
63
24
15
63
24
15
63
24
15
63
26
16
65
26
16
65
26
16
65
26
16
65
27
16
67
27
16
68
27
16
68
27
16
68
28
16
70
28
16
70
28
16
70
28
16
70
30
16
73
30
16
73
30
16
73
30
16
73
31
17
75
31
17
75
31
17
75
31
17
75
32
17
77
32
17
77
32
17
77
32
17
77
34
17
79
34
17
80
34
17
80
34
17
80
35
17
81
35
17
82
35
17
82
35
17
82
37
17
85
37
17
85
37
17
85
37
17
85
38
17
87
38
17
87
38
17
87
38
17
87
40
17
89
40
17
89
40
17
89
40
17
89
42
17
92
42
17
92
42
17
92
42
17
92
43
17
94
43
17
94
43
17
94
43
17
94
44
16
95
45
16
96
45
16
96
45
16
96
47
16
98
47
16
98
47
16
98
47
16
98
48
16
101
48
16
101
48
16
101
48
16
101
50
16
103
50
16
103
50
16
103
50
16
103
52
16
104
52
16
104
52
16
104
52
16
104
53
15
105
53
15
106
53
15
106
53
15
106
54
15
107
55
15
108
55
15
108
55
15
108
57
15
110
57
15
110
57
15
110
57
15
110
59
15
111
59
15
111
59
15
111
59
15
111
60
15
113
60
15
113
60
15
113
60
15
113
62
15
114
62
15
114
62
15
114
62
15
114
63
15
115
64
15
115
64
15
115
64
15
115
65
15
115
66
15
116
66
15
116
66
15
116
67
15
117
67
15
117
67
15
117
67
15
117
69
15
118
69
15
118
69
15
118
69
15
118
71
15
119
71
15
119
71
15
119
71
15
119
72
16
120
72
16
120
72
16
120
72
16
120
73
16
121
74
16
121
74
16
121
74
16
121
75
16
121
75
16
121
75
16
121
75
16
121
77
17
122
77
17
122
77
17
122
77
17
122
79
17
123
79
17
123
79
17
123
79
17
123
80
18
123
80
18
123
80
18
123
80
18
123
81
18
124
82
18
124
82
18
124
82
18
124
83
19
124
83
19
124
83
19
124
83
19
124
85
19
125
85
19
125
85
19
125
85
19
125
87
20
125
87
20
125
87
20
125
87
20
125
88
21
126
88
21
126
88
21
126
88
21
126
90
21
126
90
21
126
90
21
126
90
21
126
91
22
126
91
22
126
91
22
126
91
22
126
92
23
126
93
23
126
93
23
126
93
23
126
94
23
127
94
23
127
94
23
127
94
23
127
96
24
127
96
24
127
96
24
127
96
24
127
97
24
127
97
24
127
97
24
127
97
24
127
99
25
127
99
25
127
99
25
127
99
25
127
100
26
128
101
26
128
101
26
128
101
26
128
101
26
128
102
26
128
102
26
128
102
26
128
104
27
128
104
27
128
104
27
128
104
27
128
105
28
128
105
28
128
105
28
128
105
28
128
107
28
128
107
28
128
107
28
128
107
28
128
108
29
128
108
29
128
108
29
128
108
29
128
109
30
129
110
30
129
110
30
129
110
30
129
110
30
129
111
30
129
111
30
129
111
30
129
113
31
129
113
31
129
113
31
129
113
31
129
115
31
129
115
31
129
115
31
129
115
31
129
116
32
129
116
32
129
116
32
129
116
32
129
117
33
129
118
33
129
118
33
129
118
33
129
119
33
129
119
33
129
119
33
129
119
33
129
120
33
129
121
34
129
121
34
129
121
34
129
122
34
129
122
34
129
122
34
129
122
34
129
124
35
129
124
35
129
124
35
129
124
35
129
126
36
129
126
36
129
126
36
129
126
36
129
127
36
129
127
36
129
127
36
129
127
36
129
128
36
129
129
37
129
129
37
129
129
37
129
130
37
129
130
37
129
130
37
129
130
37
129
132
38
129
132
38
129
132
38
129
132
38
129
133
38
129
133
38
129
133
38
129
133
38
129
135
39
129
135
39
129
135
39
129
135
39
129
136
40
129
137
40
129
137
40
129
137
40
129
137
40
129
138
40
129
138
40
129
138
40
129
140
41
128
140
41
128
140
41
128
140
41
128
141
41
128
141
41
128
141
41
128
141
41
128
143
42
128
143
42
128
143
42
128
143
42
128
144
42
128
145
42
128
145
42
128
145
42
128
146
43
128
146
43
128
146
43
128
146
43
128
147
43
128
148
43
128
148
43
128
148
43
128
149
44
128
149
44
128
149
44
128
149
44
128
151
44
127
151
44
127
151
44
127
151
44
127
153
45
127
153
45
127
153
45
127
153
45
127
154
45
127
154
45
127
154
45
127
154
45
127
155
45
127
156
46
127
156
46
127
156
46
127
157
46
127
158
46
126
158
46
126
158
46
126
159
47
126
159
47
126
159
47
126
159
47
126
161
47
126
161
47
126
161
47
126
161
47
126
162
48
126
162
48
126
162
48
126
162
48
126
163
48
125
164
48
125
164
48
125
164
48
125
165
48
125
166
49
125
166
49
125
166
49
125
166
49
125
167
49
125
167
49
125
167
49
125
169
50
124
169
50
124
169
50
124
169
50
124
171
51
124
171
51
124
171
51
124
171
51
124
172
51
123
172
51
123
172
51
123
172
51
123
173
52
123
174
52
123
174
52
123
174
52
123
175
52
123
176
52
123
176
52
123
176
52
123
177
53
122
177
53
122
177
53
122
177
53
122
179
53
122
179
53
122
179
53
122
179
53
122
181
54
121
181
54
121
181
54
121
181
54
121
182
54
121
182
54
121
182
54
121
182
54
121
183
55
120
184
55
120
184
55
120
184
55
120
184
55
120
185
55
120
185
55
120
185
55
120
187
56
119
187
56
119
187
56
119
187
56
119
189
57
119
189
57
119
189
57
119
189
57
119
190
57
118
190
57
118
190
57
118
190
57
118
191
58
117
192
58
117
192
58
117
192
58
117
193
58
117
194
58
117
194
58
117
194
58
117
194
58
117
195
59
116
195
59
116
195
59
116
197
60
116
197
60
116
197
60
116
197
60
116
198
60
115
198
60
115
198
60
115
198
60
115
199
61
114
200
61
114
200
61
114
200
61
114
201
62
114
202
62
114
202
62
114
202
62
114
202
62
114
203
62
113
203
62
113
203
62
113
203
62
113
205
63
112
205
63
112
205
63
112
206
64
112
206
64
112
206
64
112
206
64
112
208
65
111
208
65
111
208
65
111
208
65
111
209
66
110
209
66
110
209
66
110
209
66
110
210
66
109
211
66
109
211
66
109
211
66
109
211
66
109
212
67
109
212
67
109
212
67
109
212
67
109
214
68
108
214
68
108
214
68
108
215
69
107
215
69
107
215
69
107
215
69
107
217
70
106
217
70
106
217
70
106
217
70
106
218
71
105
218
71
105
218
71
105
218
71
105
219
71
105
220
72
105
220
72
105
220
72
105
220
72
105
221
73
104
221
73
104
221
73
104
221
73
104
222
74
103
222
74
103
222
74
103
224
75
102
224
75
102
224
75
102
224
75
102
225
76
102
225
76
102
225
76
102
225
76
102
226
77
101
226
77
101
226
77
101
226
77
101
227
77
101
228
78
100
228
78
100
228
78
100
228
79
100
229
80
99
229
80
99
229
80
99
230
81
98
230
81
98
230
81
98
230
81
98
231
82
98
231
82
98
231
82
98
231
82
98
232
83
97
232
84
97
232
84
97
232
84
97
233
85
96
234
85
96
234
85
96
234
85
96
234
85
96
235
86
96
235
86
96
235
86
96
235
86
96
236
88
95
236
88
95
236
88
95
237
89
95
237
89
95
237
89
95
237
89
95
238
91
94
238
91
94
238
91
94
238
91
94
238
92
93
238
93
93
238
93
93
238
93
93
238
93
93
239
94
93
239
94
93
239
94
93
239
95
93
240
96
93
240
96
93
240
96
93
240
96
93
241
97
92
241
97
92
241
97
92
242
99
92
242
99
92
242
99
92
242
99
92
243
101
92
243
101
92
243
101
92
243
101
92
243
102
91
243
103
91
243
103
91
243
103
91
243
103
91
244
104
91
244
104
91
244
104
91
244
105
91
245
106
91
245
106
91
245
106
91
245
106
91
245
108
91
245
108
91
245
108
91
246
110
91
246
110
91
246
110
91
246
110
91
246
111
91
246
112
91
246
112
91
246
112
91
247
113
91
247
113
91
247
113
91
247
113
91
247
114
91
247
115
92
247
115
92
247
115
92
247
115
92
248
117
92
248
117
92
248
117
92
248
117
92
248
119
92
248
119
92
248
119
92
249
121
92
249
121
92
249
121
92
249
121
92
249
122
93
249
123
93
249
123
93
249
123
93
249
124
93
249
125
93
249
125
93
249
125
93
249
126
93
250
127
94
250
127
94
250
127
94
250
127
94
250
128
94
250
128
94
250
128
94
250
130
95
250
130
95
250
130
95
250
130
95
251
132
96
251
132
96
251
132
96
251
132
96
251
133
96
251
134
96
251
134
96
251
134
96
251
135
96
251
136
97
251
136
97
251
136
97
251
137
97
251
138
98
251
138
98
251
138
98
251
138
98
252
140
99
252
140
99
252
140
99
252
142
99
252
142
99
252
142
99
252
142
99
252
143
100
252
144
100
252
144
100
252
144
100
252
145
101
252
146
101
252
146
101
252
146
101
252
146
101
252
147
102
252
147
102
252
147
102
252
147
102
253
149
103
253
149
103
253
149
103
253
149
103
253
151
104
253
151
104
253
151
104
253
153
105
253
153
105
253
153
105
253
153
105
253
154
106
253
155
106
253
155
106
253
155
106
253
156
107
253
157
107
253
157
107
253
157
107
253
158
107
253
159
108
253
159
108
253
159
108
253
159
108
253
161
110
253
161
110
253
161
110
253
161
110
253
162
111
253
162
111
253
162
111
253
164
112
253
164
112
253
164
112
253
164
112
254
165
113
254
166
113
254
166
113
254
166
113
254
167
114
254
168
115
254
168
115
254
168
115
254
169
115
254
170
116
254
170
116
254
170
116
254
170
116
254
172
117
254
172
117
254
172
117
254
172
117
254
174
118
254
174
118
254
174
118
254
175
120
254
175
120
254
175
120
254
175
120
254
176
121
254
177
121
254
177
121
254
177
121
254
178
122
254
179
123
254
179
123
254
179
123
254
180
123
254
181
124
254
181
124
254
181
124
254
181
124
254
183
125
254
183
125
254
183
125
254
183
125
254
185
127
254
185
127
254
185
127
254
186
128
254
187
128
254
187
128
254
187
128
254
188
129
254
188
130
254
188
130
254
188
130
254
189
130
254
190
131
254
190
131
254
190
131
254
190
131
254
192
133
254
192
133
254
192
133
254
192
133
254
194
134
254
194
134
254
194
134
254
196
136
254
196
136
254
196
136
254
196
136
254
197
137
254
198
137
254
198
137
254
198
137
254
198
138
254
199
139
254
199
139
254
199
139
254
200
140
254
201
141
254
201
141
254
201
141
254
201
141
254
203
142
254
203
142
254
203
142
254
203
142
253
205
144
253
205
144
253
205
144
253
207
146
253
207
146
253
207
146
253
207
146
253
208
147
253
209
147
253
209
147
253
209
147
253
209
148
253
210
149
253
210
149
253
210
149
253
211
150
253
212
151
253
212
151
253
212
151
253
212
151
253
214
152
253
214
152
253
214
152
253
214
152
253
216
154
253
216
154
253
216
154
253
217
155
253
218
156
253
218
156
253
218
156
253
219
157
253
220
157
253
220
157
253
220
157
253
220
158
253
221
159
253
221
159
253
221
159
253
221
159
253
223
161
253
223
161
253
223
161
253
223
161
253
225
163
253
225
163
253
225
163
253
225
163
252
227
165
252
227
165
252
227
165
252
228
166
252
229
166
252
229
166
252
229
166
252
230
167
252
230
168
252
230
168
252
230
168
252
231
169
252
232
170
252
232
170
252
232
170
252
232
170
252
234
172
252
234
172
252
234
172
252
234
172
252
236
174
252
236
174
252
236
174
252
236
174
252
238
176
252
238
176
252
238
176
252
239
177
252
240
177
252
240
177
252
240
177
252
240
178
252
241
179
252
241
179
252
241
179
252
242
180
252
243
181
252
243
181
252
243
181
252
243
181
252
245
183
252
245
183
252
245
183
252
245
183
251
247
185
251
247
185
251
247
185
251
248
186
251
249
187
251
249
187
251
249
187
251
250
188
251
250
189
251
250
189
251
250
189
251
251
190
251
252
191
251
252
191
240
241
183
