P3
# Created by GIMP version 2.10.20 PNM plug-in
1024 1
255
53
42
134
53
42
134
53
42
134
53
43
138
53
43
138
53
43
138
53
43
138
53
45
141
53
45
141
53
45
141
53
45
141
53
46
144
53
46
144
53
46
144
53
46
144
53
48
147
53
48
147
53
48
147
53
48
147
54
49
150
54
49
150
54
49
150
54
49
150
54
51
153
54
51
153
54
51
153
54
51
153
54
52
156
54
52
156
54
52
156
54
52
156
54
54
159
54
54
159
54
54
159
54
54
159
53
55
162
53
55
162
53
55
162
53
55
162
53
57
165
53
57
165
53
57
165
53
57
165
53
59
169
53
59
169
53
59
169
53
59
169
53
60
172
53
60
172
53
60
172
53
60
172
52
62
175
52
62
175
52
62
175
52
62
175
51
63
178
51
63
178
51
63
178
51
63
178
50
65
181
50
65
181
50
65
181
50
65
181
50
67
185
50
67
185
50
67
185
50
67
185
48
68
188
48
68
188
48
68
188
48
68
188
47
70
191
47
70
191
47
70
191
47
70
191
45
72
194
45
72
194
45
72
194
45
72
194
43
74
197
43
74
197
43
74
197
43
74
197
41
75
201
41
75
201
41
75
201
41
75
201
38
78
204
38
78
204
38
78
204
38
78
204
35
80
207
35
80
207
35
80
207
35
80
207
32
82
210
32
82
210
32
82
210
32
82
210
28
84
213
28
84
213
28
84
213
28
84
213
24
86
215
24
86
215
24
86
215
24
86
215
20
88
218
20
88
218
20
88
218
20
88
218
16
91
220
16
91
220
16
91
220
16
91
220
13
92
221
13
92
221
13
92
221
13
92
221
10
94
222
10
94
222
10
94
222
10
94
222
7
96
223
7
96
223
7
96
223
7
96
223
4
98
224
4
98
224
4
98
224
4
98
224
2
99
224
2
99
224
2
99
224
2
99
224
2
100
224
2
100
224
2
100
224
2
100
224
2
102
225
2
102
225
2
102
225
2
102
225
1
103
225
1
103
225
1
103
225
1
103
225
1
104
224
1
104
224
1
104
224
1
104
224
2
105
224
2
105
224
2
105
224
2
105
224
3
107
224
3
107
224
3
107
224
3
107
224
3
108
224
3
108
224
3
108
224
3
108
224
4
109
223
4
109
223
4
109
223
4
109
223
5
110
223
5
110
223
5
110
223
5
110
223
6
111
222
6
111
222
6
111
222
6
111
222
7
112
222
7
112
222
7
112
222
7
112
222
8
113
222
8
113
222
8
113
222
8
113
222
9
114
221
9
114
221
9
114
221
9
114
221
11
115
221
11
115
221
11
115
221
11
115
221
12
116
220
12
116
220
12
116
220
12
116
220
13
117
220
13
117
220
13
117
220
13
117
220
13
118
219
13
118
219
13
118
219
13
118
219
14
119
219
14
119
219
14
119
219
14
119
219
15
120
218
15
120
218
15
120
218
15
120
218
16
121
217
16
121
217
16
121
217
16
121
217
16
122
217
16
122
217
16
122
217
16
122
217
17
123
216
17
123
216
17
123
216
17
123
216
18
123
216
18
123
216
18
123
216
18
123
216
18
124
215
18
124
215
18
124
215
18
124
215
18
125
215
18
125
215
18
125
215
18
125
215
19
126
214
19
126
214
19
126
214
19
126
214
19
127
214
19
127
214
19
127
214
19
127
214
19
128
213
19
128
213
19
128
213
19
128
213
19
129
213
19
129
213
19
129
213
19
129
213
20
130
212
20
130
212
20
130
212
20
130
212
20
131
212
20
131
212
20
131
212
20
131
212
20
132
211
20
132
211
20
132
211
20
132
211
19
133
211
19
133
211
19
133
211
19
133
211
19
134
211
19
135
211
19
135
211
19
135
211
19
136
210
19
136
210
19
136
210
19
136
210
18
137
210
18
137
210
18
137
210
18
137
210
18
138
210
18
138
210
18
138
210
18
138
210
17
139
210
17
139
210
17
139
210
17
139
210
16
140
210
16
140
210
16
140
210
16
140
210
16
141
210
16
142
210
16
142
210
16
142
210
15
143
210
15
143
210
15
143
210
15
143
210
14
144
209
14
144
209
14
144
209
14
144
209
13
145
209
13
146
209
13
146
209
13
146
209
12
147
209
12
147
209
12
147
209
12
147
209
11
148
209
11
148
209
11
148
209
11
148
209
10
149
209
10
149
209
10
149
209
10
149
209
9
150
209
9
150
209
9
150
209
9
150
209
8
151
209
8
152
209
8
152
209
8
152
209
8
153
208
8
153
208
8
153
208
8
153
208
7
154
208
7
154
208
7
154
208
7
154
208
7
155
207
7
155
207
7
155
207
7
155
207
6
156
207
6
156
207
6
156
207
6
156
207
6
157
206
6
157
206
6
157
206
6
157
206
6
158
206
6
158
206
6
158
206
6
158
206
6
159
205
6
159
205
6
159
205
6
159
205
6
160
204
6
160
204
6
160
204
6
160
204
6
161
204
6
161
204
6
161
204
6
161
204
5
161
203
5
161
203
5
161
203
5
161
203
5
162
202
5
162
202
5
162
202
5
162
202
5
163
201
5
163
201
5
163
201
5
163
201
5
164
200
5
164
200
5
164
200
5
164
200
5
165
200
5
165
200
5
165
200
5
165
200
5
165
199
5
165
199
5
165
199
5
165
199
5
166
198
5
166
198
5
166
198
5
166
198
6
167
197
6
167
197
6
167
197
6
167
197
6
167
196
6
167
196
6
167
196
6
167
196
6
168
195
6
168
195
6
168
195
6
168
195
6
169
194
6
169
194
6
169
194
6
169
194
7
169
193
7
169
193
7
169
193
7
169
193
8
170
192
8
170
192
8
170
192
8
170
192
8
171
191
8
171
190
8
171
190
8
171
190
9
171
189
9
171
189
9
171
189
9
171
189
10
172
188
10
172
188
10
172
188
10
172
188
11
172
187
12
172
187
12
172
187
12
172
187
13
173
186
13
173
186
13
173
186
13
173
186
14
174
185
14
174
185
14
174
185
14
174
185
15
174
184
16
174
184
16
174
184
16
174
184
17
175
183
17
175
182
17
175
182
17
175
182
18
175
181
19
175
181
19
175
181
19
175
181
20
176
180
20
176
180
20
176
180
20
176
180
21
177
179
22
177
179
22
177
179
22
177
179
23
177
178
24
177
177
24
177
177
24
177
177
25
178
176
26
178
176
26
178
176
26
178
176
27
178
175
28
178
175
28
178
175
28
178
175
29
179
174
30
179
174
30
179
174
30
179
174
31
179
173
32
179
172
32
179
172
32
179
172
33
180
171
34
180
171
34
180
171
34
180
171
35
180
170
36
180
170
36
180
170
36
180
170
37
181
169
38
181
168
38
181
168
38
181
168
39
181
167
40
181
167
40
181
167
40
181
167
41
182
166
42
182
165
42
182
165
42
182
165
43
182
164
44
182
164
44
182
164
44
182
164
46
183
163
47
183
163
47
183
163
47
183
163
48
183
162
49
183
161
49
183
161
49
183
161
50
184
161
51
184
160
51
184
160
51
184
160
53
184
159
54
184
158
54
184
158
54
184
158
54
184
158
56
185
157
56
185
157
56
185
157
56
185
157
59
185
155
59
185
155
59
185
155
59
185
155
61
185
154
61
185
154
61
185
154
61
185
154
64
186
152
64
186
152
64
186
152
64
186
152
67
186
151
67
186
151
67
186
151
67
186
151
69
187
149
69
187
149
69
187
149
69
187
149
72
187
148
72
187
148
72
187
148
72
187
148
75
187
146
75
187
146
75
187
146
75
187
146
78
188
145
78
188
145
78
188
145
78
188
145
81
188
143
81
188
143
81
188
143
81
188
143
83
188
142
83
188
142
83
188
142
83
188
142
86
189
140
86
189
140
86
189
140
86
189
140
89
189
139
89
189
139
89
189
139
89
189
139
92
189
137
92
189
137
92
189
137
92
189
137
95
189
136
95
189
136
95
189
136
95
189
136
98
190
134
98
190
134
98
190
134
98
190
134
101
190
133
101
190
133
101
190
133
101
190
133
104
190
132
104
190
132
104
190
132
104
190
132
107
190
130
107
190
130
107
190
130
107
190
130
110
190
129
110
190
129
110
190
129
110
190
129
113
190
128
113
190
128
113
190
128
113
190
128
116
190
126
116
190
126
116
190
126
116
190
126
119
190
125
119
190
125
119
190
125
119
190
125
121
190
124
121
190
124
121
190
124
121
190
124
124
191
123
124
191
123
124
191
123
124
191
123
127
191
122
127
191
122
127
191
122
127
191
122
130
191
120
130
191
120
130
191
120
130
191
120
132
191
119
132
191
119
132
191
119
132
191
119
135
191
118
135
191
118
135
191
118
135
191
118
138
190
117
138
190
117
138
190
117
138
190
117
140
190
116
140
190
116
140
190
116
140
190
116
143
190
115
143
190
115
143
190
115
143
190
115
145
190
114
145
190
114
145
190
114
145
190
114
148
190
113
148
190
113
148
190
113
148
190
113
150
190
112
150
190
112
150
190
112
150
190
112
153
190
111
153
190
111
153
190
111
153
190
111
155
190
110
155
190
110
155
190
110
155
190
110
157
190
109
157
190
109
157
190
109
157
190
109
160
190
108
160
190
108
160
190
108
160
190
108
162
190
107
162
190
107
162
190
107
162
190
107
165
190
106
165
190
106
165
190
106
165
190
106
167
189
105
167
189
105
167
189
105
167
189
105
169
189
104
169
189
104
169
189
104
169
189
104
171
189
104
171
189
104
171
189
104
171
189
104
174
189
103
174
189
103
174
189
103
174
189
103
176
189
102
176
189
102
176
189
102
176
189
102
178
189
101
178
189
101
178
189
101
178
189
101
180
189
100
180
189
100
180
189
100
180
189
100
182
189
99
182
189
99
182
189
99
182
189
99
185
188
98
185
188
98
185
188
98
185
188
98
187
188
97
187
188
97
187
188
97
187
188
97
189
188
97
189
188
97
189
188
97
189
188
97
191
188
96
191
188
96
191
188
96
191
188
96
193
188
95
193
188
95
193
188
95
193
188
95
195
187
94
195
187
94
195
187
94
195
187
94
197
187
93
197
187
93
197
187
93
197
187
93
199
187
92
199
187
92
199
187
92
199
187
92
202
187
91
202
187
91
202
187
91
202
187
91
204
187
91
204
187
91
204
187
91
204
187
91
206
187
90
206
187
90
206
187
90
206
187
90
208
186
89
208
186
89
208
186
89
208
186
89
210
186
88
210
186
88
210
186
88
210
186
88
212
186
87
212
186
87
212
186
87
212
186
87
214
186
86
214
186
86
214
186
86
214
186
86
216
186
85
216
186
85
216
186
85
216
186
85
218
186
85
218
186
85
218
186
85
218
186
85
220
185
84
220
185
84
220
185
84
220
185
84
222
185
83
222
185
83
222
185
83
222
185
83
224
185
82
224
185
82
224
185
82
224
185
82
226
185
81
226
185
81
226
185
81
226
185
81
228
185
80
228
185
80
228
185
80
228
185
80
230
185
79
230
185
79
230
185
79
230
185
79
232
185
78
232
185
78
232
185
78
232
185
78
234
185
77
234
185
77
234
185
77
234
185
77
236
185
76
236
185
76
236
185
76
236
185
76
238
185
75
238
185
75
238
185
75
238
185
75
240
185
74
240
185
74
240
185
74
240
185
74
242
185
72
242
185
72
242
185
72
242
185
72
243
185
71
243
185
71
243
185
71
243
185
71
244
186
70
245
186
70
245
186
70
245
186
70
246
186
69
247
186
68
247
186
68
247
186
68
248
186
67
248
186
67
248
186
67
248
186
67
249
187
66
250
187
65
250
187
65
250
187
65
251
188
64
251
188
63
251
188
63
251
188
63
252
189
62
252
189
62
252
189
62
252
189
62
253
190
61
253
190
60
253
190
60
253
190
60
253
191
59
253
191
59
253
191
59
253
191
59
254
192
58
254
193
57
254
193
57
254
193
57
254
194
56
254
194
56
254
194
56
254
194
56
254
195
55
254
195
54
254
195
54
254
195
54
254
196
53
254
197
53
254
197
53
254
197
53
254
198
52
254
198
52
254
198
52
254
198
52
253
199
51
253
199
50
253
199
50
253
199
50
253
200
49
253
200
49
253
200
49
253
200
49
253
201
48
253
202
48
253
202
48
253
202
48
252
203
47
252
203
47
252
203
47
252
203
47
252
204
46
252
204
46
252
204
46
252
204
46
251
205
45
251
206
45
251
206
45
251
206
45
251
207
44
251
207
44
251
207
44
251
207
44
250
208
43
250
208
43
250
208
43
250
208
43
250
209
42
250
209
42
250
209
42
250
209
42
249
210
41
249
211
41
249
211
41
249
211
41
248
212
40
248
212
40
248
212
40
248
212
40
248
213
39
248
213
39
248
213
39
248
213
39
247
214
38
247
215
38
247
215
38
247
215
38
247
216
37
247
216
37
247
216
37
247
216
37
246
217
36
246
218
36
246
218
36
246
218
36
246
219
35
246
219
35
246
219
35
246
219
35
245
220
34
245
220
34
245
220
34
245
220
34
245
221
33
245
222
33
245
222
33
245
222
33
245
223
32
245
223
32
245
223
32
245
223
32
244
224
31
244
225
30
244
225
30
244
225
30
244
226
29
244
226
29
244
226
29
244
226
29
244
227
28
244
228
28
244
228
28
244
228
28
244
229
27
244
230
27
244
230
27
244
230
27
244
231
26
244
231
26
244
231
26
244
231
26
244
232
25
244
233
25
244
233
25
244
233
25
244
234
24
244
235
24
244
235
24
244
235
24
245
236
23
245
237
22
245
237
22
245
237
22
245
238
21
245
238
21
245
238
21
245
238
21
245
239
20
245
240
20
245
240
20
245
240
20
246
241
19
246
242
19
246
242
19
246
242
19
247
243
18
247
244
17
247
244
17
247
244
17
247
245
16
247
246
16
247
246
16
247
246
16
248
247
15
248
248
15
248
248
15
248
248
15
248
249
14
248
250
13
248
250
13
242
244
13
