P3
# CREATOR: The GIMP's PNM Filter Version 1.0
1024 1
255
0
0
0
0
0
0
0
0
0
0
0
1
0
0
1
0
0
1
0
0
1
0
0
1
0
0
2
0
0
2
0
0
2
0
0
2
0
0
3
0
0
3
0
0
3
0
0
3
0
0
3
0
0
4
0
0
4
0
0
4
0
0
4
0
0
5
0
0
5
0
0
5
0
0
5
0
0
5
0
0
6
0
0
6
0
0
6
0
0
6
0
0
6
0
0
7
0
0
7
0
0
7
0
0
7
0
0
8
0
0
8
0
0
8
0
0
8
0
0
8
0
0
9
0
0
9
0
0
9
0
0
9
0
0
10
0
0
10
0
0
10
0
0
10
0
0
10
0
0
11
0
0
11
0
0
11
0
0
11
0
0
11
0
0
12
0
0
12
0
0
12
0
0
12
0
0
13
0
0
13
0
0
13
0
0
13
0
0
13
0
0
14
0
0
14
0
0
14
0
0
14
0
0
15
0
0
15
0
0
15
0
0
15
0
0
15
0
0
16
0
0
16
0
0
16
0
0
16
0
0
16
0
0
17
0
0
17
0
0
17
0
0
17
0
0
18
0
0
18
0
0
18
0
0
18
0
0
18
0
0
19
0
0
19
0
0
19
0
0
19
0
0
20
0
0
20
0
0
20
0
0
20
0
0
20
0
0
21
0
0
21
0
0
21
0
0
21
0
0
21
0
0
22
0
0
22
0
0
22
0
0
22
0
0
23
0
0
23
0
0
23
0
0
23
0
0
23
0
0
24
0
0
24
0
0
24
0
0
24
0
0
25
0
0
25
0
0
25
0
0
25
0
0
25
0
0
26
0
0
26
0
0
26
0
0
26
0
0
27
0
0
27
0
0
27
0
0
27
0
0
27
0
0
28
0
0
28
0
0
28
0
0
28
0
0
28
0
0
29
0
0
29
0
0
29
0
0
29
0
0
30
0
0
30
0
0
30
0
0
30
0
0
30
0
0
31
0
0
31
0
0
31
0
0
31
0
0
32
0
0
32
0
0
32
0
0
32
0
0
32
0
0
33
0
0
33
0
0
33
0
0
33
0
0
33
0
0
34
0
0
34
0
0
34
0
0
34
0
0
35
0
0
35
0
0
35
0
0
35
0
0
35
0
0
36
0
0
36
0
0
36
0
0
36
0
0
37
0
0
37
0
0
37
0
0
37
0
0
37
0
0
38
0
0
38
0
0
38
0
0
38
0
0
38
0
0
39
0
0
39
0
0
39
0
0
39
0
0
40
0
0
40
0
0
40
0
0
40
0
0
40
0
0
41
0
0
41
0
0
41
0
0
41
0
0
42
0
0
42
0
0
42
0
0
42
0
0
42
0
0
43
0
0
43
0
0
43
0
0
43
0
0
43
0
0
44
0
0
44
0
0
44
0
0
44
0
0
45
0
0
45
0
0
45
0
0
45
0
0
45
0
0
46
0
0
46
0
0
46
0
0
46
0
0
47
0
0
47
0
0
47
0
0
47
0
0
47
0
0
48
0
0
48
0
0
48
0
0
48
0
0
48
0
0
49
0
0
49
0
0
49
0
0
49
0
0
50
0
0
50
0
0
50
0
0
50
0
0
50
0
0
51
0
0
51
0
0
51
0
0
51
0
0
52
0
0
52
0
0
52
0
0
52
0
0
52
0
0
53
0
0
53
0
0
53
0
0
53
0
0
53
0
0
54
0
0
54
0
0
54
0
0
54
0
0
55
0
0
55
0
0
55
0
0
55
0
0
55
0
0
56
0
0
56
0
0
56
0
0
56
0
0
57
0
0
57
0
0
57
0
0
57
0
0
57
0
0
58
0
0
58
0
0
58
0
0
58
0
0
58
0
0
59
0
0
59
0
0
59
0
0
59
0
0
60
0
0
60
0
0
60
0
0
60
0
0
60
0
0
61
0
0
61
0
0
61
0
0
61
0
0
62
0
0
62
0
0
62
0
0
62
0
0
62
0
0
63
0
0
63
0
0
63
0
0
63
0
0
64
0
0
65
0
0
66
0
0
66
0
0
67
0
0
68
0
0
69
0
0
69
0
0
70
0
0
71
0
0
72
0
0
72
0
0
73
0
0
74
0
0
75
0
0
76
0
0
76
0
0
77
0
0
78
0
0
79
0
0
79
0
0
80
0
0
81
0
0
82
0
0
82
0
0
83
0
0
84
0
0
85
0
0
85
0
0
86
0
0
87
0
0
88
0
0
88
0
0
89
0
0
90
0
0
91
0
0
91
0
0
92
0
0
93
0
0
94
0
0
95
0
0
95
0
0
96
0
0
97
0
0
98
0
0
98
0
0
99
0
0
100
0
0
101
0
0
101
0
0
102
0
0
103
0
0
104
0
0
104
0
0
105
0
0
106
0
0
107
0
0
107
0
0
108
0
0
109
0
0
110
0
0
110
0
0
111
0
0
112
0
0
113
0
0
113
0
0
114
0
0
115
0
0
116
0
0
117
0
0
117
0
0
118
0
0
119
0
0
120
0
0
120
0
0
121
0
0
122
0
0
123
0
0
123
0
0
124
0
0
125
0
0
126
0
0
126
0
0
127
2
0
128
3
0
129
5
0
131
7
0
132
9
0
133
11
0
134
12
0
135
14
0
136
16
0
137
18
0
138
20
0
139
21
0
140
23
0
141
25
0
143
27
0
144
28
0
145
30
0
146
32
0
147
34
0
148
36
0
149
37
0
150
39
0
151
41
0
152
43
0
154
45
0
155
46
0
156
48
0
157
50
0
158
52
0
159
53
0
160
55
0
161
57
0
162
59
0
163
61
0
164
62
0
166
64
0
167
66
0
168
68
0
169
70
0
170
71
0
171
73
0
172
75
0
173
77
0
174
78
0
175
80
0
177
82
0
178
84
0
179
86
0
180
87
0
181
89
0
182
91
0
183
93
0
184
95
0
185
96
0
186
98
0
187
100
0
189
102
0
190
103
0
191
105
0
191
106
0
192
107
0
193
108
0
194
109
0
194
111
0
195
112
0
196
113
0
197
114
0
197
115
0
198
117
0
199
118
0
199
119
0
200
120
0
201
121
0
202
123
0
202
124
0
203
125
0
204
126
0
205
127
0
205
129
0
206
130
0
207
131
0
208
132
0
208
133
0
209
134
0
210
136
0
210
137
0
211
138
0
212
139
0
213
140
0
213
142
0
214
143
0
215
144
0
216
145
0
216
146
0
217
148
0
218
149
0
218
150
0
219
151
0
220
152
0
221
154
0
221
155
0
222
156
0
223
157
0
224
158
0
224
159
0
225
161
0
226
162
0
226
163
0
227
164
0
228
165
0
229
167
0
229
168
0
230
169
0
231
170
0
232
171
0
232
173
0
233
174
0
234
175
0
235
176
0
235
177
0
236
179
0
237
180
0
237
181
0
238
182
0
239
183
0
240
184
0
240
186
0
241
187
0
242
188
0
243
189
0
243
190
0
244
192
0
245
193
0
245
194
0
246
195
0
247
196
0
248
198
0
248
199
0
249
200
0
250
201
0
251
202
0
251
204
0
252
205
0
253
206
0
253
207
0
254
207
0
255
206
1
255
205
2
255
205
3
255
204
4
255
203
5
255
202
6
255
201
7
255
200
8
255
200
9
255
199
10
255
198
11
255
197
12
255
196
13
255
195
14
255
195
15
255
194
16
255
193
17
255
192
18
255
191
20
255
190
21
255
190
22
255
189
23
255
188
24
255
187
25
255
186
26
255
185
27
255
185
28
255
184
29
255
183
30
255
182
31
255
181
32
255
180
33
255
180
34
255
179
35
255
178
36
255
177
37
255
176
38
255
175
39
255
175
40
255
174
41
255
173
42
255
172
43
255
171
44
255
170
45
255
170
46
255
169
47
255
168
48
255
167
49
255
166
50
255
165
51
255
165
52
255
164
53
255
163
54
255
162
55
255
161
56
255
160
57
255
160
58
255
159
59
255
158
60
255
157
61
255
156
62
255
155
63
255
155
64
255
154
65
255
153
66
255
152
67
255
151
68
255
150
69
255
150
70
255
149
72
255
148
73
255
147
74
255
146
75
255
145
76
255
145
77
255
144
78
255
143
79
255
142
80
255
141
81
255
140
82
255
140
83
255
139
84
255
138
85
255
137
86
255
136
87
255
135
88
255
135
89
255
134
90
255
133
91
255
132
92
255
131
93
255
130
94
255
130
95
255
129
96
255
128
97
255
127
98
255
126
99
255
126
100
255
125
101
255
124
102
255
123
103
255
122
104
255
121
105
255
121
106
255
120
107
255
119
108
255
118
109
255
117
110
255
116
111
255
116
112
255
115
113
255
114
114
255
113
115
255
112
116
255
111
117
255
111
118
255
110
119
255
109
120
255
108
121
255
107
122
255
106
124
255
106
125
255
105
126
255
104
127
255
103
127
255
102
128
255
102
129
255
101
130
255
101
131
255
100
131
255
99
132
255
99
133
255
98
134
255
97
135
255
97
135
255
96
136
255
95
137
255
95
138
255
94
139
255
93
139
255
93
140
255
92
141
255
91
142
255
91
143
255
90
143
255
89
144
255
89
145
255
88
146
255
87
147
255
87
147
255
86
148
255
86
149
255
85
150
255
84
151
255
84
151
255
83
152
255
82
153
255
82
154
255
81
155
255
80
155
255
80
156
255
79
157
255
78
158
255
78
159
255
77
159
255
76
160
255
76
161
255
75
162
255
74
163
255
74
163
255
73
164
255
72
165
255
72
166
255
71
167
255
70
167
255
70
168
255
69
169
255
69
170
255
68
171
255
67
171
255
67
172
255
66
173
255
65
174
255
65
175
255
64
175
255
63
176
255
63
177
255
62
178
255
61
179
255
61
179
255
60
180
255
59
181
255
59
182
255
58
183
255
57
183
255
57
184
255
56
185
255
55
186
255
55
187
255
54
187
255
54
188
255
53
189
255
52
190
255
52
191
255
51
191
255
50
192
255
50
193
255
49
194
255
48
195
255
48
196
255
47
196
255
46
197
255
46
198
255
45
199
255
44
200
255
44
200
255
43
201
255
42
202
255
42
203
255
41
204
255
40
204
255
40
205
255
39
206
255
38
207
255
38
208
255
37
208
255
37
209
255
36
210
255
35
211
255
35
212
255
34
212
255
33
213
255
33
214
255
32
215
255
31
216
255
31
216
255
30
217
255
29
218
255
29
219
255
28
220
255
27
220
255
27
221
255
26
222
255
25
223
255
25
224
255
24
224
255
23
225
255
23
226
255
22
227
255
22
228
255
21
228
255
20
229
255
20
230
255
19
231
255
18
232
255
18
232
255
17
233
255
16
234
255
16
235
255
15
236
255
14
236
255
14
237
255
13
238
255
12
239
255
12
240
255
11
240
255
10
241
255
10
242
255
9
243
255
8
244
255
8
244
255
7
245
255
6
246
255
6
247
255
5
248
255
5
248
255
4
249
255
3
250
255
3
251
255
2
252
255
1
252
255
1
253
255
0
254
255
1
255
255
5
255
255
8
255
255
12
255
255
16
255
255
20
255
255
24
255
255
28
255
255
32
255
255
36
255
255
40
255
255
44
255
255
48
255
255
52
255
255
55
255
255
59
255
255
63
255
255
67
255
255
71
255
255
75
255
255
79
255
255
83
255
255
87
255
255
91
255
255
95
255
255
99
255
255
102
255
255
106
255
255
110
255
255
114
255
255
118
255
255
122
255
255
126
255
255
128
255
255
128
255
255
129
255
255
130
255
255
130
255
255
131
255
255
132
255
255
132
255
255
133
255
255
134
255
255
134
255
255
135
255
255
136
255
255
136
255
255
137
255
255
138
255
255
138
255
255
139
255
255
140
255
255
140
255
255
141
255
255
142
255
255
143
255
255
143
255
255
144
255
255
145
255
255
145
255
255
146
255
255
147
255
255
147
255
255
148
255
255
149
255
255
149
255
255
150
255
255
151
255
255
151
255
255
152
255
255
153
255
255
153
255
255
154
255
255
155
255
255
156
255
255
156
255
255
157
255
255
158
255
255
158
255
255
159
255
255
160
255
255
160
255
255
161
255
255
162
255
255
162
255
255
163
255
255
164
255
255
164
255
255
165
255
255
166
255
255
166
255
255
167
255
255
168
255
255
168
255
255
169
255
255
170
255
255
171
255
255
171
255
255
172
255
255
173
255
255
173
255
255
174
255
255
175
255
255
175
255
255
176
255
255
177
255
255
177
255
255
178
255
255
179
255
255
179
255
255
180
255
255
181
255
255
181
255
255
182
255
255
183
255
255
184
255
255
184
255
255
185
255
255
186
255
255
186
255
255
187
255
255
188
255
255
188
255
255
189
255
255
190
255
255
190
255
255
191
255
255
192
255
255
192
255
255
193
255
255
194
255
255
194
255
255
195
255
255
196
255
255
196
255
255
197
255
255
198
255
255
199
255
255
199
255
255
200
255
255
201
255
255
201
255
255
202
255
255
203
255
255
203
255
255
204
255
255
205
255
255
205
255
255
206
255
255
207
255
255
207
255
255
208
255
255
209
255
255
209
255
255
210
255
255
211
255
255
212
255
255
212
255
255
213
255
255
214
255
255
214
255
255
215
255
255
216
255
255
216
255
255
217
255
255
218
255
255
218
255
255
219
255
255
220
255
255
220
255
255
221
255
255
222
255
255
222
255
255
223
255
255
224
255
255
224
255
255
225
255
255
226
255
255
227
255
255
227
255
255
228
255
255
229
255
255
229
255
255
230
255
255
231
255
255
231
255
255
232
255
255
233
255
255
233
255
255
234
255
255
235
255
255
235
255
255
236
255
255
237
255
255
237
255
255
238
255
255
239
255
255
240
255
255
240
255
255
241
255
255
242
255
255
242
255
255
243
255
255
244
255
255
244
255
255
245
255
255
246
255
255
246
255
255
247
255
255
248
255
255
248
255
255
249
255
255
250
255
255
250
255
255
251
255
255
252
255
255
252
255
255
253
255
255
254
255
255
