P3
# CREATOR: The GIMP's PNM Filter Version 1.0
1024 1
255
0
255
0
0
255
0
0
255
0
0
255
0
0
255
0
0
255
0
0
255
0
1
255
1
1
255
1
1
255
1
1
255
1
2
255
2
2
255
2
2
255
2
2
255
2
3
255
3
3
255
3
3
255
3
3
255
3
4
255
4
4
255
4
4
255
4
4
255
4
5
255
5
5
255
5
5
255
5
5
255
5
6
255
6
6
255
6
6
255
6
6
255
6
7
255
7
7
255
7
7
255
7
7
255
7
8
255
8
8
255
8
8
255
8
8
255
8
9
255
9
9
255
9
9
255
9
9
255
9
10
255
10
10
255
10
10
255
10
10
255
10
11
255
11
11
255
11
11
255
11
11
255
11
12
255
12
12
255
12
12
255
12
12
255
12
13
255
13
13
255
13
13
255
13
13
255
13
14
255
14
14
255
14
14
255
14
14
255
14
15
255
15
15
255
15
15
255
15
15
255
15
16
255
16
16
255
16
16
255
16
16
255
16
17
255
17
17
255
17
17
255
17
17
255
17
18
255
18
18
255
18
18
255
18
18
255
18
19
255
19
19
255
19
19
255
19
19
255
19
20
255
20
20
255
20
20
255
20
20
255
20
21
255
21
21
255
21
21
255
21
21
255
21
22
255
22
22
255
22
22
255
22
22
255
22
23
255
23
23
255
23
23
255
23
23
255
23
24
255
24
24
255
24
24
255
24
24
255
24
25
255
25
25
255
25
25
255
25
25
255
25
26
255
26
26
255
26
26
255
26
26
255
26
27
255
27
27
255
27
27
255
27
27
255
27
28
255
28
28
255
28
28
255
28
28
255
28
29
255
29
29
255
29
29
255
29
29
255
29
30
255
30
30
255
30
30
255
30
30
255
30
31
255
31
31
255
31
31
255
31
31
255
31
32
255
32
32
255
32
32
255
32
33
255
33
33
255
33
33
255
33
33
255
33
33
255
33
34
255
34
34
255
34
34
255
34
35
255
35
35
255
35
35
255
35
35
255
35
35
255
35
36
255
36
36
255
36
36
255
36
37
255
37
37
255
37
37
255
37
37
255
37
37
255
37
38
255
38
38
255
38
38
255
38
39
255
39
39
255
39
39
255
39
39
255
39
39
255
39
40
255
40
40
255
40
40
255
40
41
255
41
41
255
41
41
255
41
41
255
41
41
255
41
42
255
42
42
255
42
42
255
42
43
255
43
43
255
43
43
255
43
43
255
43
43
255
43
44
255
44
44
255
44
44
255
44
45
255
45
45
255
45
45
255
45
45
255
45
45
255
45
46
255
46
46
255
46
46
255
46
47
255
47
47
255
47
47
255
47
47
255
47
47
255
47
48
255
48
48
255
48
48
255
48
49
255
49
49
255
49
49
255
49
49
255
49
49
255
49
50
255
50
50
255
50
50
255
50
51
255
51
51
255
51
51
255
51
51
255
51
51
255
51
52
255
52
52
255
52
52
255
52
53
255
53
53
255
53
53
255
53
53
255
53
53
255
53
54
255
54
54
255
54
54
255
54
55
255
55
55
255
55
55
255
55
55
255
55
55
255
55
56
255
56
56
255
56
56
255
56
57
255
57
57
255
57
57
255
57
57
255
57
57
255
57
58
255
58
58
255
58
58
255
58
59
255
59
59
255
59
59
255
59
59
255
59
59
255
59
60
255
60
60
255
60
60
255
60
61
255
61
61
255
61
61
255
61
61
255
61
61
255
61
62
255
62
62
255
62
62
255
62
63
255
63
63
255
63
63
255
63
63
255
63
63
255
63
64
255
64
64
255
64
64
255
64
64
255
64
65
255
65
65
255
65
65
255
65
66
255
66
66
255
66
66
255
66
66
255
66
67
255
67
67
255
67
67
255
67
67
255
67
67
255
67
68
255
68
68
255
68
68
255
68
68
255
68
69
255
69
69
255
69
69
255
69
70
255
70
70
255
70
70
255
70
70
255
70
71
255
71
71
255
71
71
255
71
71
255
71
71
255
71
72
255
72
72
255
72
72
255
72
72
255
72
73
255
73
73
255
73
73
255
73
74
255
74
74
255
74
74
255
74
74
255
74
75
255
75
75
255
75
75
255
75
75
255
75
75
255
75
76
255
76
76
255
76
76
255
76
76
255
76
77
255
77
77
255
77
77
255
77
78
255
78
78
255
78
78
255
78
78
255
78
79
255
79
79
255
79
79
255
79
79
255
79
79
255
79
80
255
80
80
255
80
80
255
80
80
255
80
81
255
81
81
255
81
81
255
81
82
255
82
82
255
82
82
255
82
82
255
82
83
255
83
83
255
83
83
255
83
83
255
83
83
255
83
84
255
84
84
255
84
84
255
84
84
255
84
85
255
85
85
255
85
85
255
85
86
255
86
86
255
86
86
255
86
86
255
86
87
255
87
87
255
87
87
255
87
87
255
87
87
255
87
88
255
88
88
255
88
88
255
88
88
255
88
89
255
89
89
255
89
89
255
89
90
255
90
90
255
90
90
255
90
90
255
90
91
255
91
91
255
91
91
255
91
91
255
91
91
255
91
92
255
92
92
255
92
92
255
92
92
255
92
93
255
93
93
255
93
93
255
93
94
255
94
94
255
94
94
255
94
94
255
94
95
255
95
95
255
95
95
255
95
95
255
95
95
255
95
96
255
96
96
255
96
96
255
96
96
255
96
97
255
97
97
255
97
97
255
97
98
255
98
98
255
98
98
255
98
98
255
98
99
255
99
99
255
99
99
255
99
99
255
99
99
255
99
100
255
100
100
255
100
100
255
100
100
255
100
101
255
101
101
255
101
101
255
101
102
255
102
102
255
102
102
255
102
102
255
102
103
255
103
103
255
103
103
255
103
103
255
103
103
255
103
104
255
104
104
255
104
104
255
104
104
255
104
105
255
105
105
255
105
105
255
105
106
255
106
106
255
106
106
255
106
106
255
106
107
255
107
107
255
107
107
255
107
107
255
107
107
255
107
108
255
108
108
255
108
108
255
108
108
255
108
109
255
109
109
255
109
109
255
109
110
255
110
110
255
110
110
255
110
110
255
110
111
255
111
111
255
111
111
255
111
111
255
111
111
255
111
112
255
112
112
255
112
112
255
112
112
255
112
113
255
113
113
255
113
113
255
113
114
255
114
114
255
114
114
255
114
114
255
114
115
255
115
115
255
115
115
255
115
115
255
115
115
255
115
116
255
116
116
255
116
116
255
116
116
255
116
117
255
117
117
255
117
117
255
117
118
255
118
118
255
118
118
255
118
118
255
118
119
255
119
119
255
119
119
255
119
119
255
119
119
255
119
120
255
120
120
255
120
120
255
120
120
255
120
121
255
121
121
255
121
121
255
121
122
255
122
122
255
122
122
255
122
122
255
122
123
255
123
123
255
123
123
255
123
123
255
123
123
255
123
124
255
124
124
255
124
124
255
124
124
255
124
125
255
125
125
255
125
125
255
125
126
255
126
126
255
126
126
255
126
126
255
126
127
255
127
127
255
127
127
255
127
127
255
127
127
255
127
128
255
128
128
255
128
128
255
128
128
255
128
129
255
129
129
255
129
129
255
129
129
255
129
130
255
130
130
255
130
130
255
130
130
255
130
131
255
131
131
255
131
131
255
131
132
255
132
132
255
132
132
255
132
132
255
132
133
255
133
133
255
133
133
255
133
133
255
133
134
255
134
134
255
134
134
255
134
134
255
134
135
255
135
135
255
135
135
255
135
135
255
135
135
255
135
136
255
136
136
255
136
136
255
136
136
255
136
137
255
137
137
255
137
137
255
137
137
255
137
138
255
138
138
255
138
138
255
138
138
255
138
139
255
139
139
255
139
139
255
139
140
255
140
140
255
140
140
255
140
140
255
140
141
255
141
141
255
141
141
255
141
141
255
141
142
255
142
142
255
142
142
255
142
142
255
142
143
255
143
143
255
143
143
255
143
143
255
143
143
255
143
144
255
144
144
255
144
144
255
144
144
255
144
145
255
145
145
255
145
145
255
145
145
255
145
146
255
146
146
255
146
146
255
146
146
255
146
147
255
147
147
255
147
147
255
147
148
255
148
148
255
148
148
255
148
148
255
148
149
255
149
149
255
149
149
255
149
149
255
149
150
255
150
150
255
150
150
255
150
150
255
150
151
255
151
151
255
151
151
255
151
151
255
151
151
255
151
152
255
152
152
255
152
152
255
152
152
255
152
153
255
153
153
255
153
153
255
153
153
255
153
154
255
154
154
255
154
154
255
154
154
255
154
155
255
155
155
255
155
155
255
155
156
255
156
156
255
156
156
255
156
156
255
156
157
255
157
157
255
157
157
255
157
157
255
157
158
255
158
158
255
158
158
255
158
158
255
158
159
255
159
159
255
159
159
255
159
159
255
159
159
255
159
160
255
160
160
255
160
160
255
160
160
255
160
161
255
161
161
255
161
161
255
161
161
255
161
162
255
162
162
255
162
162
255
162
162
255
162
163
255
163
163
255
163
163
255
163
164
255
164
164
255
164
164
255
164
164
255
164
165
255
165
165
255
165
165
255
165
165
255
165
166
255
166
166
255
166
166
255
166
166
255
166
167
255
167
167
255
167
167
255
167
167
255
167
167
255
167
168
255
168
168
255
168
168
255
168
168
255
168
169
255
169
169
255
169
169
255
169
169
255
169
170
255
170
170
255
170
170
255
170
170
255
170
171
255
171
171
255
171
171
255
171
172
255
172
172
255
172
172
255
172
172
255
172
173
255
173
173
255
173
173
255
173
173
255
173
174
255
174
174
255
174
174
255
174
174
255
174
175
255
175
175
255
175
175
255
175
175
255
175
175
255
175
176
255
176
176
255
176
176
255
176
176
255
176
177
255
177
177
255
177
177
255
177
177
255
177
178
255
178
178
255
178
178
255
178
178
255
178
179
255
179
179
255
179
179
255
179
180
255
180
180
255
180
180
255
180
180
255
180
181
255
181
181
255
181
181
255
181
181
255
181
182
255
182
182
255
182
182
255
182
182
255
182
183
255
183
183
255
183
183
255
183
183
255
183
183
255
183
184
255
184
184
255
184
184
255
184
184
255
184
185
255
185
185
255
185
185
255
185
185
255
185
186
255
186
186
255
186
186
255
186
186
255
186
187
255
187
187
255
187
187
255
187
188
255
188
188
255
188
188
255
188
188
255
188
189
255
189
189
255
189
189
255
189
189
255
189
190
255
190
190
255
190
190
255
190
190
255
190
191
255
191
191
255
191
191
255
191
191
255
191
191
255
191
192
255
192
192
255
192
192
255
192
192
255
192
193
255
193
193
255
193
193
255
193
193
255
193
194
255
194
194
255
194
194
255
194
194
255
194
195
255
195
195
255
195
195
255
195
196
255
196
196
255
196
196
255
196
196
255
196
197
255
197
197
255
197
197
255
197
197
255
197
198
255
198
198
255
198
198
255
198
198
255
198
199
255
199
199
255
199
199
255
199
199
255
199
199
255
199
200
255
200
200
255
200
200
255
200
200
255
200
201
255
201
201
255
201
201
255
201
201
255
201
202
255
202
202
255
202
202
255
202
202
255
202
203
255
203
203
255
203
203
255
203
204
255
204
204
255
204
204
255
204
204
255
204
205
255
205
205
255
205
205
255
205
205
255
205
206
255
206
206
255
206
206
255
206
206
255
206
207
255
207
207
255
207
207
255
207
207
255
207
207
255
207
208
255
208
208
255
208
208
255
208
208
255
208
209
255
209
209
255
209
209
255
209
209
255
209
210
255
210
210
255
210
210
255
210
210
255
210
211
255
211
211
255
211
211
255
211
212
255
212
212
255
212
212
255
212
212
255
212
213
255
213
213
255
213
213
255
213
213
255
213
214
255
214
214
255
214
214
255
214
214
255
214
215
255
215
215
255
215
215
255
215
215
255
215
215
255
215
216
255
216
216
255
216
216
255
216
216
255
216
217
255
217
217
255
217
217
255
217
217
255
217
218
255
218
218
255
218
218
255
218
218
255
218
219
255
219
219
255
219
219
255
219
220
255
220
220
255
220
220
255
220
220
255
220
221
255
221
221
255
221
221
255
221
221
255
221
222
255
222
222
255
222
222
255
222
222
255
222
223
255
223
223
255
223
223
255
223
223
255
223
223
255
223
224
255
224
224
255
224
224
255
224
224
255
224
225
255
225
225
255
225
225
255
225
225
255
225
226
255
226
226
255
226
226
255
226
226
255
226
227
255
227
227
255
227
227
255
227
228
255
228
228
255
228
228
255
228
228
255
228
229
255
229
229
255
229
229
255
229
229
255
229
230
255
230
230
255
230
230
255
230
230
255
230
231
255
231
231
255
231
231
255
231
231
255
231
231
255
231
232
255
232
232
255
232
232
255
232
232
255
232
233
255
233
233
255
233
233
255
233
233
255
233
234
255
234
234
255
234
234
255
234
234
255
234
235
255
235
235
255
235
235
255
235
236
255
236
236
255
236
236
255
236
236
255
236
237
255
237
237
255
237
237
255
237
237
255
237
238
255
238
238
255
238
238
255
238
238
255
238
239
255
239
239
255
239
239
255
239
239
255
239
239
255
239
240
255
240
240
255
240
240
255
240
240
255
240
241
255
241
241
255
241
241
255
241
241
255
241
242
255
242
242
255
242
242
255
242
242
255
242
243
255
243
243
255
243
243
255
243
244
255
244
244
255
244
244
255
244
244
255
244
245
255
245
245
255
245
245
255
245
245
255
245
246
255
246
246
255
246
246
255
246
246
255
246
247
255
247
247
255
247
247
255
247
247
255
247
247
255
247
248
255
248
248
255
248
248
255
248
248
255
248
249
255
249
249
255
249
249
255
249
249
255
249
250
255
250
250
255
250
250
255
250
250
255
250
251
255
251
251
255
251
251
255
251
252
255
252
252
255
252
252
255
252
252
255
252
253
255
253
253
255
253
253
255
253
253
255
253
254
255
254
254
255
254
254
255
254
254
255
254
255
255
255
255
255
255
