P3
# CREATOR: The GIMP's PNM Filter Version 1.0
1024 1
255
0
0
1
0
0
1
0
0
1
0
0
1
0
0
1
0
0
1
0
0
2
0
0
2
0
0
2
0
0
2
0
0
2
0
0
2
0
0
3
0
0
3
0
0
3
0
0
3
0
0
3
0
0
3
0
0
4
0
0
4
0
0
4
0
0
4
0
0
4
0
0
5
0
0
5
0
0
5
0
0
5
0
0
5
0
0
5
0
0
6
0
0
6
0
0
6
0
0
6
0
0
6
0
0
6
0
0
7
0
0
7
0
0
7
0
0
7
0
0
7
0
0
7
0
0
8
0
0
8
0
0
8
0
0
8
0
0
8
0
0
8
0
0
9
0
0
9
0
0
9
0
0
9
0
0
9
0
0
10
0
0
10
0
0
10
0
0
10
0
0
10
0
0
10
0
0
11
0
0
11
0
0
11
0
0
11
0
0
11
0
0
11
0
0
12
0
0
12
0
0
12
0
0
12
0
0
12
0
0
12
0
0
13
0
0
13
0
0
13
0
0
13
0
0
13
0
0
13
0
0
14
0
0
14
0
0
14
0
0
14
0
0
14
0
0
15
0
0
15
0
0
15
0
0
15
0
0
15
0
0
15
0
0
16
0
0
16
0
0
16
0
0
16
0
0
16
0
0
16
0
0
17
0
0
17
0
0
17
0
0
17
0
0
17
0
0
17
0
0
18
0
0
18
0
0
18
0
0
18
0
0
18
0
0
19
0
0
19
0
0
19
0
0
19
0
0
19
0
0
19
0
0
20
0
0
20
0
0
20
0
0
20
0
0
20
0
0
20
0
0
21
0
0
21
0
0
21
0
0
21
0
0
21
0
0
21
0
0
22
0
0
22
0
0
22
0
0
22
0
0
22
0
0
22
0
0
23
0
0
23
0
0
23
0
0
23
0
0
23
0
0
24
0
0
24
0
0
24
0
0
24
0
0
24
0
0
24
0
0
25
0
0
25
0
0
25
0
0
25
0
0
25
0
0
25
0
0
26
0
0
26
0
0
26
0
0
26
0
0
26
0
0
26
0
0
27
0
0
27
0
0
27
0
0
27
0
0
27
0
0
28
0
0
28
0
0
28
0
0
28
0
0
28
0
0
28
0
0
29
0
0
29
0
0
29
0
0
29
0
0
29
0
0
29
0
0
30
0
0
30
0
0
30
0
0
30
0
0
30
0
0
30
0
0
31
0
0
31
0
0
31
0
0
31
0
0
31
0
0
31
0
0
32
0
0
32
0
0
32
0
0
32
0
0
32
0
0
33
0
0
33
0
0
33
0
0
33
0
0
33
0
0
33
0
0
34
0
0
34
0
0
34
0
0
34
0
0
34
0
0
34
0
0
35
0
0
35
0
0
35
0
0
35
0
0
35
0
0
35
0
0
36
0
0
36
0
0
36
0
0
36
0
0
36
0
0
36
0
0
37
0
0
37
0
0
37
0
0
37
0
0
37
0
0
38
0
0
38
0
0
38
0
0
38
0
0
38
0
0
38
0
0
39
0
0
39
0
0
39
0
0
39
0
0
39
0
0
39
0
0
40
0
0
40
0
0
40
0
0
40
0
0
40
0
0
40
0
0
41
0
0
41
0
0
41
0
0
41
0
0
41
0
0
42
0
0
42
0
0
42
0
0
42
0
0
42
0
0
42
0
0
43
0
0
43
0
0
43
0
0
43
0
0
43
0
0
43
0
0
44
0
0
44
0
0
44
0
0
44
0
0
44
0
0
44
0
0
45
0
0
45
0
0
45
0
0
45
0
0
45
0
0
45
0
0
46
0
0
46
0
0
46
0
0
46
0
0
46
0
0
47
0
0
47
0
0
47
0
0
47
0
0
47
0
0
47
0
0
48
0
0
48
0
0
48
0
0
48
0
0
48
0
0
48
0
0
49
0
0
49
0
0
49
0
0
49
0
0
49
0
0
49
0
0
50
0
0
50
0
0
50
0
0
50
0
0
50
0
0
51
0
0
51
0
0
51
0
0
51
0
0
51
0
0
51
0
0
52
0
0
52
0
0
52
0
0
52
0
0
52
0
0
52
0
0
53
0
0
53
0
0
53
0
0
53
0
0
53
0
0
53
0
0
54
0
0
54
0
0
54
0
0
54
0
0
54
0
0
54
0
0
55
0
0
55
0
0
55
0
0
55
0
0
55
0
0
56
0
0
56
0
0
56
0
0
56
0
0
56
0
0
56
0
0
57
0
0
57
0
0
57
0
0
57
0
0
57
0
0
57
0
0
58
0
0
58
0
0
58
0
0
58
0
0
58
0
0
58
0
0
59
0
0
59
0
0
59
0
0
59
0
0
59
0
0
59
0
0
60
0
0
60
0
0
60
0
0
60
0
0
60
0
0
61
0
0
61
0
0
61
0
0
61
0
0
61
0
0
61
0
0
62
0
0
62
0
0
62
0
0
62
0
0
62
0
0
62
0
0
63
0
0
63
0
0
63
0
0
63
0
0
63
0
0
64
0
0
64
0
0
64
0
0
65
0
0
65
0
0
65
0
0
66
0
0
66
0
0
66
0
0
67
0
0
67
0
0
67
0
0
68
0
0
68
0
0
68
0
0
69
0
0
69
0
0
69
0
0
70
0
0
70
0
0
70
0
0
71
0
0
71
0
0
71
0
0
72
0
0
72
0
0
72
0
0
73
0
0
73
0
0
73
0
0
74
0
0
74
0
0
74
0
0
75
0
0
75
0
0
75
0
0
76
0
0
76
0
0
76
0
0
77
0
0
77
0
0
77
0
0
78
0
0
78
0
0
78
0
0
79
0
0
79
0
0
79
0
0
80
0
0
80
0
0
80
0
0
81
0
0
81
0
0
81
0
0
82
0
0
82
0
0
82
0
0
82
0
0
83
0
0
83
0
0
83
0
0
84
0
0
84
0
0
84
0
0
85
0
0
85
0
0
85
0
0
86
0
0
86
0
0
86
0
0
87
0
0
87
0
0
87
0
0
88
0
0
88
0
0
88
0
0
89
0
0
89
0
0
89
0
0
90
0
0
90
0
0
90
0
0
91
0
0
91
0
0
91
0
0
92
0
0
92
0
0
92
0
0
93
0
0
93
0
0
93
0
0
94
0
0
94
0
0
94
0
0
95
0
0
95
0
0
95
0
0
96
0
0
96
0
0
96
0
0
97
0
0
97
0
0
97
0
0
98
0
0
98
0
0
98
0
0
99
0
0
99
0
0
99
0
0
100
0
0
100
0
0
100
0
0
101
0
0
101
0
0
101
0
0
102
0
0
102
0
0
102
0
0
103
0
0
103
0
0
103
0
0
104
0
0
104
0
0
104
0
0
105
0
0
105
0
0
105
0
0
106
0
0
106
0
0
106
1
1
107
1
1
107
1
1
107
1
1
108
1
1
108
1
1
108
1
1
109
1
1
109
1
1
109
1
1
110
1
1
110
1
1
110
1
1
111
1
1
111
1
1
111
1
1
112
1
1
112
1
1
112
1
1
113
1
1
113
1
1
113
1
1
114
1
1
114
1
1
114
1
1
115
1
1
115
1
1
115
1
1
116
1
1
116
1
1
116
1
1
117
1
1
117
1
1
117
1
1
118
1
1
118
1
1
118
1
1
119
1
1
119
1
1
119
1
1
119
1
1
120
1
1
120
1
1
120
1
1
121
1
1
121
1
1
121
1
1
122
1
1
122
1
1
122
1
1
123
1
1
123
1
1
123
1
1
124
1
1
124
1
1
124
1
1
125
1
1
125
1
1
125
1
1
126
1
1
126
1
1
126
1
1
127
1
1
127
2
2
127
2
2
128
3
3
128
4
4
128
4
4
129
5
5
129
6
6
129
6
6
130
7
7
130
8
8
130
8
8
131
9
9
131
10
10
131
10
10
132
11
11
132
12
12
132
12
12
133
13
13
133
13
13
133
14
14
134
15
15
134
15
15
134
16
16
135
17
17
135
17
17
135
18
18
136
19
19
136
19
19
136
20
20
137
21
21
137
21
21
137
22
22
138
23
23
138
23
23
138
24
24
139
25
25
139
25
25
139
26
26
140
27
27
140
27
27
140
28
28
141
29
29
141
29
29
141
30
30
142
31
31
142
31
31
142
32
32
143
33
33
143
33
33
143
34
34
144
35
35
144
35
35
144
36
36
145
37
37
145
37
37
145
38
38
146
39
39
146
39
39
146
40
40
147
41
41
147
41
41
147
42
42
148
43
43
148
43
43
148
44
44
149
45
45
149
45
45
149
46
46
150
47
47
150
47
47
150
48
48
151
49
49
151
49
49
151
50
50
152
51
51
152
51
51
152
52
52
153
53
53
153
53
53
153
54
54
154
55
55
154
55
55
154
56
56
155
57
57
155
57
57
155
58
58
156
59
59
156
59
59
156
60
60
157
61
61
157
61
61
157
62
62
158
63
63
158
63
63
158
64
64
159
65
65
159
65
65
159
66
66
160
67
67
160
67
67
160
68
68
161
69
69
161
69
69
161
70
70
162
71
71
162
71
71
162
72
72
163
73
73
163
73
73
163
74
74
164
75
75
164
75
75
164
76
76
165
77
77
165
77
77
165
78
78
166
79
79
166
79
79
166
80
80
167
81
81
167
81
81
167
82
82
168
83
83
168
83
83
168
84
84
169
85
85
169
85
85
169
86
86
170
86
86
170
87
87
170
88
88
171
88
88
171
89
89
171
90
90
172
90
90
172
91
91
172
92
92
173
92
92
173
93
93
173
94
94
174
94
94
174
95
95
174
96
96
175
96
96
175
97
97
175
98
98
176
98
98
176
99
99
176
100
100
177
100
100
177
101
101
177
102
102
178
102
102
178
103
103
178
104
104
179
104
104
179
105
105
179
106
106
180
106
106
180
107
107
180
108
108
181
108
108
181
109
109
181
110
110
182
110
110
182
111
111
182
112
112
183
112
112
183
113
113
183
114
114
184
114
114
184
115
115
184
116
116
185
116
116
185
117
117
185
118
118
186
118
118
186
119
119
186
120
120
187
120
120
187
121
121
187
122
122
188
122
122
188
123
123
188
124
124
189
124
124
189
125
125
189
126
126
190
126
126
190
127
127
190
128
128
191
128
128
191
129
129
191
129
129
191
129
129
192
130
130
192
130
130
192
131
131
192
131
131
193
132
132
193
132
132
193
133
133
193
133
133
194
134
134
194
134
134
194
134
134
194
135
135
194
135
135
195
136
136
195
136
136
195
137
137
195
137
137
196
138
138
196
138
138
196
139
139
196
139
139
196
139
139
197
140
140
197
140
140
197
141
141
197
141
141
198
142
142
198
142
142
198
143
143
198
143
143
199
144
144
199
144
144
199
144
144
199
145
145
199
145
145
200
146
146
200
146
146
200
147
147
200
147
147
201
148
148
201
148
148
201
149
149
201
149
149
201
149
149
202
150
150
202
150
150
202
151
151
202
151
151
203
152
152
203
152
152
203
153
153
203
153
153
204
154
154
204
154
154
204
154
154
204
155
155
204
155
155
205
156
156
205
156
156
205
157
157
205
157
157
206
158
158
206
158
158
206
159
159
206
159
159
207
159
159
207
160
160
207
160
160
207
161
161
207
161
161
208
162
162
208
162
162
208
163
163
208
163
163
209
164
164
209
164
164
209
164
164
209
165
165
209
165
165
210
166
166
210
166
166
210
167
167
210
167
167
211
168
168
211
168
168
211
169
169
211
169
169
212
169
169
212
170
170
212
170
170
212
171
171
212
171
171
213
172
172
213
172
172
213
173
173
213
173
173
214
174
174
214
174
174
214
174
174
214
175
175
215
175
175
215
176
176
215
176
176
215
177
177
215
177
177
216
178
178
216
178
178
216
179
179
216
179
179
217
179
179
217
180
180
217
180
180
217
181
181
217
181
181
218
182
182
218
182
182
218
183
183
218
183
183
219
184
184
219
184
184
219
184
184
219
185
185
220
185
185
220
186
186
220
186
186
220
187
187
220
187
187
221
188
188
221
188
188
221
189
189
221
189
189
222
189
189
222
190
190
222
190
190
222
191
191
223
191
191
223
192
192
223
192
192
223
193
193
223
193
193
224
194
194
224
194
194
224
194
194
224
195
195
225
195
195
225
196
196
225
196
196
225
197
197
225
197
197
226
198
198
226
198
198
226
199
199
226
199
199
227
199
199
227
200
200
227
200
200
227
201
201
228
201
201
228
202
202
228
202
202
228
203
203
228
203
203
229
204
204
229
204
204
229
204
204
229
205
205
230
205
205
230
206
206
230
206
206
230
207
207
231
207
207
231
208
208
231
208
208
231
209
209
231
209
209
232
209
209
232
210
210
232
210
210
232
211
211
233
211
211
233
212
212
233
212
212
233
213
213
233
213
213
234
214
214
234
214
214
234
214
214
234
215
215
235
215
215
235
216
216
235
216
216
235
217
217
236
217
217
236
218
218
236
218
218
236
219
219
236
219
219
237
219
219
237
220
220
237
220
220
237
221
221
238
221
221
238
222
222
238
222
222
238
223
223
238
223
223
239
224
224
239
224
224
239
224
224
239
225
225
240
225
225
240
226
226
240
226
226
240
227
227
241
227
227
241
228
228
241
228
228
241
229
229
241
229
229
242
229
229
242
230
230
242
230
230
242
231
231
243
231
231
243
232
232
243
232
232
243
233
233
244
233
233
244
234
234
244
234
234
244
234
234
244
235
235
245
235
235
245
236
236
245
236
236
245
237
237
246
237
237
246
238
238
246
238
238
246
239
239
246
239
239
247
239
239
247
240
240
247
240
240
247
241
241
248
241
241
248
242
242
248
242
242
248
243
243
249
243
243
249
244
244
249
244
244
249
244
244
249
245
245
250
245
245
250
246
246
250
246
246
250
247
247
251
247
247
251
248
248
251
248
248
251
249
249
252
249
249
252
249
249
252
250
250
252
250
250
252
251
251
253
251
251
253
252
252
253
252
252
253
253
253
254
253
253
254
