P3
# Created by GIMP version 2.10.20 PNM plug-in
1024 1
255
74
0
0
78
0
1
78
0
1
79
0
2
79
0
2
79
0
2
79
0
2
80
0
3
80
0
4
80
0
4
80
0
4
81
0
5
81
0
5
81
0
5
81
0
5
81
0
5
82
0
7
82
0
7
82
0
7
82
0
7
83
0
9
83
0
9
83
0
9
83
0
10
84
0
11
84
0
11
84
0
11
84
0
12
85
0
13
85
0
13
85
0
13
86
0
14
87
0
15
87
0
15
87
0
15
88
1
16
88
1
17
88
1
17
88
1
17
88
1
17
89
1
19
89
1
19
89
1
19
89
1
19
90
1
21
90
1
21
90
1
21
90
1
21
91
1
23
91
1
23
91
1
23
91
1
24
92
1
25
92
1
25
92
1
25
93
1
27
93
1
28
93
1
28
93
1
28
94
1
29
94
1
30
94
1
30
94
1
30
94
1
30
95
1
32
95
1
32
95
1
32
95
1
32
96
1
34
96
1
34
96
1
34
96
1
34
97
1
36
97
1
36
97
1
36
97
1
37
98
1
38
98
1
38
98
1
38
98
1
39
99
1
41
99
1
41
99
1
41
100
1
42
100
1
43
100
1
43
100
1
43
101
1
44
101
1
45
101
1
45
101
1
45
101
1
45
102
1
47
102
1
47
102
1
47
102
1
47
103
1
50
103
1
50
103
1
50
103
1
50
104
1
52
104
1
52
104
1
52
104
1
53
105
1
54
105
1
54
105
1
54
105
1
55
106
1
57
106
1
57
106
1
57
107
1
58
107
1
59
107
1
59
107
1
59
107
1
59
108
1
61
108
1
61
108
1
61
108
1
61
109
1
64
109
1
64
109
1
64
109
1
64
110
1
66
110
1
66
110
1
66
110
1
67
111
1
69
111
1
69
111
1
69
111
1
70
112
1
71
112
1
71
112
1
71
112
2
73
112
2
74
112
2
74
112
2
74
112
2
74
113
2
76
113
2
76
113
2
76
113
2
76
114
2
79
114
2
79
114
2
79
114
2
79
115
2
81
115
2
81
115
2
81
115
2
81
116
2
84
116
2
84
116
2
84
116
2
85
117
2
86
117
2
86
117
2
86
117
2
87
117
3
89
117
3
89
117
3
89
117
3
89
118
3
92
118
3
92
118
3
92
118
3
92
119
3
94
119
3
94
119
3
94
119
3
94
119
4
97
119
4
97
119
4
97
119
4
97
120
4
99
120
4
99
120
4
99
120
4
100
121
4
102
121
4
102
121
4
102
121
4
103
122
5
105
122
5
105
122
5
105
122
5
105
122
5
107
122
5
107
122
5
107
122
5
107
123
6
110
123
6
110
123
6
110
123
6
110
123
7
113
123
7
113
123
7
113
123
7
113
124
8
115
124
8
115
124
8
115
124
8
115
124
9
118
124
9
118
124
9
118
124
9
119
125
10
121
125
10
121
125
10
121
125
10
122
126
11
123
126
11
123
126
11
123
126
11
123
126
12
126
126
12
126
126
12
126
126
12
126
126
13
129
126
13
129
126
13
129
126
13
129
127
14
131
127
14
131
127
14
131
127
14
131
127
15
134
127
15
134
127
15
134
127
15
135
128
16
137
128
16
137
128
16
137
128
17
138
128
18
139
128
18
139
128
18
139
128
18
139
128
19
142
128
19
142
128
19
142
128
19
142
128
20
144
128
20
144
128
20
144
128
20
144
129
22
147
129
22
147
129
22
147
129
22
147
129
23
149
129
23
149
129
23
149
129
23
149
129
25
152
129
25
152
129
25
152
129
25
152
129
26
154
129
26
154
129
26
154
129
26
154
129
28
157
129
28
157
129
28
157
129
28
157
129
29
159
129
29
159
129
29
159
129
29
159
129
31
161
129
31
161
129
31
161
129
31
161
129
33
163
129
33
163
129
33
163
129
33
163
129
34
166
129
34
166
129
34
166
129
34
166
129
36
168
129
36
168
129
36
168
129
36
168
129
38
170
129
38
170
129
38
170
129
38
170
129
39
172
129
39
172
129
39
172
129
39
172
129
41
174
129
41
174
129
41
174
129
41
174
129
43
176
129
43
176
129
43
176
129
43
176
128
45
178
128
45
178
128
45
178
128
45
178
128
46
180
128
46
180
128
46
180
128
46
180
128
48
181
128
48
181
128
48
181
128
48
181
127
50
183
127
50
183
127
50
183
127
50
183
127
52
185
127
52
185
127
52
185
127
52
185
126
54
186
126
54
186
126
54
186
126
54
186
126
55
188
126
55
188
126
55
188
126
55
188
125
57
189
125
57
189
125
57
189
125
57
189
125
59
191
125
59
191
125
59
191
125
59
191
124
61
192
124
61
192
124
61
192
124
61
192
124
63
193
124
63
193
124
63
193
124
63
193
123
65
195
123
65
195
123
65
195
123
65
195
122
67
196
122
67
196
122
67
196
122
67
196
121
69
197
121
69
197
121
69
197
121
69
197
121
70
198
121
70
198
121
70
198
121
70
198
120
72
199
120
72
199
120
72
199
120
72
199
119
74
200
119
74
200
119
74
200
119
74
200
118
76
200
118
76
200
118
76
200
118
76
200
117
78
201
117
78
201
117
78
201
117
78
201
116
80
202
116
80
202
116
80
202
116
80
202
115
82
202
115
82
202
115
82
202
115
82
202
114
83
203
114
83
203
114
83
203
114
83
203
113
85
203
113
85
203
113
85
203
113
85
203
112
87
204
112
87
204
112
87
204
112
87
204
111
89
204
111
89
204
111
89
204
111
89
204
110
91
205
110
91
205
110
91
205
110
91
205
109
92
205
109
92
205
109
92
205
109
92
205
108
94
205
108
94
205
108
94
205
108
94
205
107
96
205
107
96
205
107
96
205
107
96
205
106
98
205
106
98
205
106
98
205
106
98
205
105
99
205
105
99
205
105
99
205
105
99
205
104
101
205
104
101
205
104
101
205
104
101
205
103
103
205
103
103
205
103
103
205
103
103
205
102
104
205
102
104
205
102
104
205
102
104
205
100
106
205
100
106
205
100
106
205
100
106
205
99
108
205
99
108
205
99
108
205
99
108
205
98
109
205
98
109
205
98
109
205
98
109
205
97
111
205
97
111
205
97
111
205
97
111
205
96
112
205
96
112
205
96
112
205
96
112
205
95
114
204
95
114
204
95
114
204
95
114
204
94
115
204
94
116
204
94
116
204
94
116
204
93
117
204
93
117
204
93
117
204
93
117
204
91
119
203
91
119
203
91
119
203
91
119
203
90
120
203
90
120
203
90
120
203
90
120
203
89
122
203
89
122
203
89
122
203
89
122
203
88
123
202
88
123
202
88
123
202
88
123
202
87
124
202
87
124
202
87
124
202
87
124
202
86
125
202
86
126
202
86
126
202
86
126
202
85
127
201
85
127
201
85
127
201
85
127
201
84
129
201
84
129
201
84
129
201
84
129
201
83
130
200
83
130
200
83
130
200
83
130
200
82
131
200
82
131
200
82
131
200
82
131
200
81
133
199
81
133
199
81
133
199
81
133
199
81
134
199
81
134
199
81
134
199
81
134
199
80
135
198
80
135
198
80
135
198
80
135
198
79
137
198
79
137
198
79
137
198
79
137
198
78
138
197
78
138
197
78
138
197
78
138
197
77
139
197
77
139
197
77
139
197
77
139
197
77
140
196
77
140
196
77
140
196
77
140
196
76
141
196
76
142
196
76
142
196
76
142
196
75
143
195
75
143
195
75
143
195
75
143
195
75
144
195
75
144
195
75
144
195
75
144
195
74
145
194
74
145
194
74
145
194
74
145
194
73
147
194
73
147
194
73
147
194
73
147
194
73
148
193
73
148
193
73
148
193
73
148
193
73
148
193
72
149
193
72
149
193
72
149
193
72
150
192
72
150
192
72
150
192
72
150
192
71
151
192
71
151
192
71
151
192
71
151
192
71
153
191
71
153
191
71
153
191
71
153
191
70
154
191
70
154
191
70
154
191
70
154
191
70
155
190
70
155
190
70
155
190
70
155
190
70
155
190
70
156
190
70
156
190
70
156
190
69
157
189
69
157
189
69
157
189
69
157
189
69
158
189
69
158
189
69
158
189
69
158
189
69
159
188
69
159
188
69
159
188
69
159
188
68
161
188
68
161
188
68
161
188
68
161
188
68
162
187
68
162
187
68
162
187
68
162
187
68
163
187
68
163
187
68
163
187
68
163
187
68
163
187
68
164
186
68
164
186
68
164
186
67
165
186
67
165
186
67
165
186
67
165
186
67
166
185
67
166
185
67
166
185
67
166
185
67
167
185
67
167
185
67
167
185
67
167
185
67
168
184
67
168
184
67
168
184
67
168
184
67
170
184
67
170
184
67
170
184
67
170
184
67
170
184
67
171
183
67
171
183
67
171
183
67
171
183
67
172
183
67
172
183
67
172
183
66
173
182
66
173
182
66
173
182
66
173
182
66
174
181
66
174
181
66
174
181
66
174
181
66
175
181
66
175
181
66
175
181
66
175
181
66
176
180
66
176
180
66
176
180
66
176
180
66
176
180
66
177
180
66
177
180
66
177
180
66
177
180
66
178
179
66
178
179
66
178
179
66
179
179
66
179
179
66
179
179
66
179
179
66
180
178
66
181
178
66
181
178
66
181
178
66
182
177
66
182
177
66
182
177
66
182
177
66
183
177
66
183
177
66
183
177
66
183
177
66
183
177
66
184
176
66
184
176
66
184
176
66
184
176
66
185
175
66
185
175
66
185
175
66
185
175
67
186
175
67
186
175
67
186
175
67
187
174
67
187
174
67
187
174
67
187
174
67
188
173
67
188
173
67
188
173
67
188
173
67
189
172
67
189
172
67
189
172
67
189
172
67
190
171
67
190
171
67
190
171
67
190
171
67
190
171
67
191
171
67
191
171
67
191
171
67
192
171
68
193
170
68
193
170
68
193
170
68
193
170
68
194
169
68
194
169
68
194
169
69
195
168
69
195
168
69
195
168
69
195
168
69
196
167
69
196
167
69
196
167
69
196
167
69
197
166
69
197
166
69
197
166
69
197
166
69
197
166
70
198
165
70
198
165
70
198
165
70
198
165
71
199
164
71
199
164
71
199
164
71
199
164
71
200
163
71
200
163
71
200
163
72
201
162
72
201
162
72
201
162
72
201
162
73
202
161
73
202
161
73
202
161
73
202
161
73
203
160
73
203
160
73
203
160
73
203
160
73
203
160
74
204
159
74
204
159
74
204
159
74
204
159
75
205
157
75
205
157
75
205
157
75
206
157
76
207
156
76
207
156
76
207
156
76
207
156
77
208
155
77
208
155
77
208
155
78
209
154
79
209
154
79
209
154
79
209
154
80
210
153
80
210
152
80
210
152
80
210
152
80
210
152
81
211
151
81
211
151
81
211
151
81
211
151
82
212
149
82
212
149
82
212
149
82
212
149
84
213
148
84
213
148
84
213
148
84
213
147
85
214
146
85
214
146
85
214
146
86
215
145
87
215
145
87
215
145
87
215
145
88
216
144
89
216
143
89
216
143
89
216
143
91
217
142
91
217
142
91
217
142
91
217
142
91
217
142
92
218
140
92
218
140
92
218
140
92
218
140
94
219
138
94
219
138
94
219
138
95
219
138
96
220
137
96
220
137
96
220
137
97
220
136
98
220
135
98
220
135
98
220
135
100
221
134
101
221
133
101
221
133
101
221
133
102
222
132
103
222
131
103
222
131
103
222
131
103
222
131
105
223
129
105
223
129
105
223
129
105
223
129
107
224
127
107
224
127
107
224
127
108
224
127
110
225
125
110
225
125
110
225
125
111
225
124
112
226
123
112
226
123
112
226
123
113
226
122
115
227
121
115
227
121
115
227
121
116
227
120
117
227
119
117
227
119
117
227
119
117
227
119
120
228
117
120
228
117
120
228
117
120
228
117
123
229
115
123
229
115
123
229
115
123
229
115
126
230
113
126
230
113
126
230
113
127
230
112
129
230
110
129
230
110
129
230
110
130
230
109
131
231
108
131
231
108
131
231
108
133
232
107
134
232
106
134
232
106
134
232
106
134
232
106
137
233
103
137
233
103
137
233
103
137
233
103
141
233
101
141
233
101
141
233
101
141
233
101
144
234
99
144
234
99
144
234
99
145
234
98
147
234
96
147
234
96
147
234
96
148
234
95
150
235
94
150
235
94
150
235
94
151
235
93
153
236
91
153
236
91
153
236
91
155
236
90
157
236
89
157
236
89
157
236
89
157
236
89
160
237
86
160
237
86
160
237
86
160
237
86
164
237
84
164
237
84
164
237
84
164
237
84
167
238
81
167
238
81
167
238
81
168
238
80
171
238
78
171
238
78
171
238
78
172
238
77
174
238
76
174
238
76
174
238
76
176
238
75
178
239
73
178
239
73
178
239
73
178
239
73
181
239
71
181
239
71
181
239
71
181
239
71
185
240
68
185
240
68
185
240
68
185
240
68
189
240
66
189
240
66
189
240
66
189
240
66
192
240
64
192
240
64
192
240
64
193
240
63
196
240
62
196
240
62
196
240
62
198
240
61
200
241
59
200
241
59
200
241
59
200
241
59
203
241
57
203
241
57
203
241
57
203
241
57
207
241
56
207
241
56
207
241
56
207
241
56
211
241
54
211
241
54
211
241
54
211
241
54
214
241
53
214
241
53
214
241
53
215
241
53
218
242
52
218
242
52
218
242
52
219
242
52
221
242
51
221
242
51
221
242
51
221
242
51
225
242
51
225
242
51
225
242
51
225
242
51
229
242
51
229
242
51
229
242
51
229
242
51
232
242
51
232
242
51
232
242
51
232
242
51
235
242
51
235
242
51
235
242
51
235
242
51
239
242
52
239
242
52
239
242
52
240
242
52
242
243
54
242
243
54
242
243
54
243
243
54
245
243
55
245
243
55
245
243
55
245
243
55
249
243
57
249
243
57
249
243
57
249
243
57
252
243
59
252
243
59
252
243
59
