P3
# CREATOR: The GIMP's PNM Filter Version 1.0
1024 1
255
0
0
0
0
0
0
0
0
0
0
0
0
0
0
0
0
0
0
0
0
1
0
0
1
0
0
1
0
0
1
0
0
1
0
0
1
0
0
2
0
0
2
0
0
2
0
0
2
0
0
2
0
0
3
0
0
3
0
0
3
0
0
3
0
0
3
0
0
3
0
0
4
0
0
4
0
0
4
0
0
4
0
0
4
0
0
5
0
0
5
0
0
5
0
0
5
0
0
5
0
0
5
0
0
6
0
0
6
0
0
6
0
0
6
0
0
6
0
0
7
0
0
7
0
0
7
0
0
7
0
0
7
0
0
7
0
0
8
0
0
8
0
0
8
0
0
8
0
0
8
0
0
9
0
0
9
0
0
9
0
0
9
0
0
9
0
0
9
0
0
10
0
0
10
0
0
10
0
0
10
0
0
10
0
0
11
0
0
11
0
0
11
0
0
11
0
0
11
0
0
11
0
0
12
0
0
12
0
0
12
0
0
12
0
0
12
0
0
12
0
0
13
0
0
13
0
0
13
0
0
13
0
0
13
0
0
14
0
0
14
0
0
14
0
0
14
0
0
14
0
0
14
0
0
15
0
0
15
0
0
15
0
0
15
0
0
15
0
0
16
0
0
16
0
0
16
0
0
16
0
0
16
0
0
16
0
0
17
0
0
17
0
0
17
0
0
17
0
0
17
0
0
18
0
0
18
0
0
18
0
0
18
0
0
18
0
0
18
0
0
19
0
0
19
0
0
19
0
0
19
0
0
19
0
0
20
0
0
20
0
0
20
0
0
20
0
0
20
0
0
20
0
0
21
0
0
21
0
0
21
0
0
21
0
0
21
0
0
22
0
0
22
0
0
22
0
0
22
0
0
22
0
0
22
0
0
23
0
0
23
0
0
23
0
0
23
0
0
23
0
0
24
0
0
24
0
0
24
0
0
24
0
0
24
0
0
24
0
0
25
0
0
25
0
0
25
0
0
25
0
0
25
0
0
25
0
0
26
0
0
26
0
0
26
0
0
26
0
0
26
0
0
27
0
0
27
0
0
27
0
0
27
0
0
27
0
0
27
0
0
28
0
0
28
0
0
28
0
0
28
0
0
28
0
0
29
0
0
29
0
0
29
0
0
29
0
0
29
0
0
29
0
0
30
0
0
30
0
0
30
0
0
30
0
0
30
0
0
31
0
0
31
0
0
31
0
0
31
0
0
31
0
0
31
0
0
32
0
0
32
0
0
32
0
0
32
0
0
32
0
0
33
0
0
33
0
0
33
0
0
33
0
0
33
0
0
33
0
0
34
0
0
34
0
0
34
0
0
34
0
0
34
0
0
35
0
0
35
0
0
35
0
0
35
0
0
35
0
0
35
0
0
36
0
0
36
0
0
36
0
0
36
0
0
36
0
0
37
0
0
37
0
0
37
0
0
37
0
0
37
0
0
37
0
0
38
0
0
38
0
0
38
0
0
38
0
0
38
0
0
39
0
0
39
0
0
39
0
0
39
0
0
39
0
0
39
0
0
40
0
0
40
0
0
40
0
0
40
0
0
40
0
0
40
0
0
41
0
0
41
0
0
41
0
0
41
0
0
41
0
0
42
0
0
42
0
0
42
0
0
42
0
0
42
0
0
42
0
0
43
0
0
43
0
0
43
0
0
43
0
0
43
0
0
44
0
0
44
0
0
44
0
0
44
0
0
44
0
0
44
0
0
45
0
0
45
0
0
45
0
0
45
0
0
45
0
0
46
0
0
46
0
0
46
0
0
46
0
0
46
0
0
46
0
0
47
0
0
47
0
0
47
0
0
47
0
0
47
0
0
48
0
0
48
0
0
48
0
0
48
0
0
48
0
0
48
0
0
49
0
0
49
0
0
49
0
0
49
0
0
49
0
0
50
0
0
50
0
0
50
0
0
50
0
0
50
0
0
50
0
0
51
0
0
51
0
0
51
0
0
51
0
0
51
0
0
52
0
0
52
0
0
52
0
0
52
0
0
52
0
0
52
0
0
53
0
0
53
0
0
53
0
0
53
0
0
53
0
0
53
0
0
54
0
0
54
0
0
54
0
0
54
0
0
54
0
0
55
0
0
55
0
0
55
0
0
55
0
0
55
0
0
55
0
0
56
0
0
56
0
0
56
0
0
56
0
0
56
0
0
57
0
0
57
0
0
57
0
0
57
0
0
57
0
0
57
0
0
58
0
0
58
0
0
58
0
0
58
0
0
58
0
0
59
0
0
59
0
0
59
0
0
59
0
0
59
0
0
59
0
0
60
0
0
60
0
0
60
0
0
60
0
0
60
0
0
61
0
0
61
0
0
61
0
0
61
0
0
61
0
0
61
0
0
62
0
0
62
0
0
62
0
0
62
0
0
62
0
0
63
0
0
63
0
0
63
0
0
63
0
0
63
0
0
64
0
0
65
0
0
66
0
0
67
0
0
68
0
0
69
0
0
70
0
0
70
0
0
71
0
0
72
0
0
73
0
0
74
0
0
75
0
0
76
0
0
77
0
0
78
0
0
79
0
0
79
0
0
80
0
0
81
0
0
82
0
0
83
0
0
84
0
0
85
0
0
86
0
0
87
0
0
88
0
0
88
0
0
89
0
0
90
0
0
91
0
0
92
0
0
93
0
0
94
0
0
95
0
0
96
0
0
97
0
0
97
0
0
98
0
0
99
0
0
100
0
0
101
0
0
102
0
0
103
0
0
104
0
0
105
0
0
106
0
0
106
0
0
107
0
0
108
0
0
109
0
0
110
0
0
111
0
0
112
0
0
113
0
0
114
0
0
115
0
0
115
0
0
116
0
0
117
0
0
118
0
0
119
0
0
120
0
0
121
0
0
122
0
0
123
0
0
124
0
0
124
0
0
125
0
0
126
0
0
127
0
0
127
0
1
128
0
2
128
0
3
129
0
3
129
0
4
129
0
5
130
0
6
130
0
7
131
0
7
131
0
8
131
0
9
132
0
10
132
0
10
132
0
11
133
0
12
133
0
13
134
0
14
134
0
14
134
0
15
135
0
16
135
0
17
136
0
17
136
0
18
136
0
19
137
0
20
137
0
21
138
0
21
138
0
22
138
0
23
139
0
24
139
0
24
139
0
25
140
0
26
140
0
27
141
0
28
141
0
28
141
0
29
142
0
30
142
0
31
143
0
31
143
0
32
143
0
33
144
0
34
144
0
34
144
0
35
145
0
36
145
0
37
146
0
38
146
0
38
146
0
39
147
0
40
147
0
41
148
0
41
148
0
42
148
0
43
149
0
44
149
0
45
150
0
45
150
0
46
150
0
47
151
0
48
151
0
48
151
0
49
152
0
50
152
0
51
153
0
52
153
0
52
153
0
53
154
0
54
154
0
55
155
0
55
155
0
56
155
0
57
156
0
58
156
0
58
156
0
59
157
0
60
157
0
61
158
0
62
158
0
62
158
0
63
159
0
64
159
0
65
160
0
65
160
0
66
160
0
67
161
0
68
161
0
69
162
0
69
162
0
70
162
0
71
163
0
72
163
0
72
163
0
73
164
0
74
164
0
75
165
0
76
165
0
76
165
0
77
166
0
78
166
0
79
167
0
79
167
0
80
167
0
81
168
0
82
168
0
82
168
0
83
169
0
84
169
0
85
170
0
86
170
0
86
170
0
87
171
0
88
171
0
89
172
0
89
172
0
90
172
0
91
173
0
92
173
0
93
174
0
93
174
0
94
174
0
95
175
0
96
175
0
96
175
0
97
176
0
98
176
0
99
177
0
100
177
0
100
177
0
101
178
0
102
178
0
103
179
0
103
179
0
104
179
0
105
180
0
106
180
0
106
180
0
107
181
0
108
181
0
109
182
0
110
182
0
110
182
0
111
183
0
112
183
0
113
184
0
113
184
0
114
184
0
115
185
0
116
185
0
117
186
0
117
186
0
118
186
0
119
187
0
120
187
0
120
187
0
121
188
0
122
188
0
123
189
0
124
189
0
124
189
0
125
190
0
126
190
0
127
191
0
127
191
0
128
191
0
129
192
0
129
192
0
130
192
0
130
192
0
131
193
0
132
193
0
132
193
0
133
194
0
133
194
0
134
194
0
135
195
0
135
195
0
136
195
0
136
195
0
137
196
0
138
196
0
138
196
0
139
197
0
139
197
0
140
197
0
141
198
0
141
198
0
142
198
0
142
198
0
143
199
0
144
199
0
144
199
0
145
200
0
145
200
0
146
200
0
147
201
0
147
201
0
148
201
0
148
201
0
149
202
0
150
202
0
150
202
0
151
203
0
151
203
0
152
203
0
153
204
0
153
204
0
154
204
0
154
204
0
155
205
0
156
205
0
156
205
0
157
206
0
157
206
0
158
206
0
159
207
0
159
207
0
160
207
0
160
207
0
161
208
0
162
208
0
162
208
0
163
209
0
163
209
0
164
209
0
165
210
0
165
210
0
166
210
0
166
210
0
167
211
0
168
211
0
168
211
0
169
212
0
169
212
0
170
212
0
171
213
0
171
213
0
172
213
0
172
213
0
173
214
0
174
214
0
174
214
0
175
215
0
175
215
0
176
215
0
177
216
0
177
216
0
178
216
0
178
216
0
179
217
0
180
217
0
180
217
0
181
218
0
181
218
0
182
218
0
183
219
0
183
219
0
184
219
0
184
219
0
185
220
0
186
220
0
186
220
0
187
221
0
187
221
0
188
221
0
189
222
0
189
222
0
190
222
0
190
222
0
191
223
0
192
223
0
192
223
0
193
224
0
193
224
0
194
224
0
195
225
0
195
225
0
196
225
0
196
225
0
197
226
0
198
226
0
198
226
0
199
227
0
199
227
0
200
227
0
201
228
0
201
228
0
202
228
0
202
228
0
203
229
0
204
229
0
204
229
0
205
230
0
205
230
0
206
230
0
207
231
0
207
231
0
208
231
0
208
231
0
209
232
0
210
232
0
210
232
0
211
233
0
211
233
0
212
233
0
213
234
0
213
234
0
214
234
0
214
234
0
215
235
0
216
235
0
216
235
0
217
236
0
217
236
0
218
236
0
219
237
0
219
237
0
220
237
0
220
237
0
221
238
0
222
238
0
222
238
0
223
239
0
223
239
0
224
239
0
225
240
0
225
240
0
226
240
0
226
240
0
227
241
0
228
241
0
228
241
0
229
242
0
229
242
0
230
242
0
231
243
0
231
243
0
232
243
0
232
243
0
233
244
0
234
244
0
234
244
0
235
245
0
235
245
0
236
245
0
237
246
0
237
246
0
238
246
0
238
246
0
239
247
0
240
247
0
240
247
0
241
248
0
241
248
0
242
248
0
243
249
0
243
249
0
244
249
0
244
249
0
245
250
0
246
250
0
246
250
0
247
251
0
247
251
0
248
251
0
249
252
0
249
252
0
250
252
0
250
252
0
251
253
0
252
253
0
252
253
0
253
254
0
253
254
0
254
254
0
255
255
1
255
255
2
255
255
4
255
255
5
255
255
6
255
255
8
255
255
9
255
255
10
255
255
11
255
255
13
255
255
14
255
255
15
255
255
17
255
255
18
255
255
19
255
255
21
255
255
22
255
255
23
255
255
25
255
255
26
255
255
27
255
255
29
255
255
30
255
255
31
255
255
33
255
255
34
255
255
35
255
255
36
255
255
38
255
255
39
255
255
40
255
255
42
255
255
43
255
255
44
255
255
46
255
255
47
255
255
48
255
255
50
255
255
51
255
255
52
255
255
54
255
255
55
255
255
56
255
255
58
255
255
59
255
255
60
255
255
61
255
255
63
255
255
64
255
255
65
255
255
67
255
255
68
255
255
69
255
255
71
255
255
72
255
255
73
255
255
75
255
255
76
255
255
77
255
255
79
255
255
80
255
255
81
255
255
83
255
255
84
255
255
85
255
255
87
255
255
88
255
255
89
255
255
90
255
255
92
255
255
93
255
255
94
255
255
96
255
255
97
255
255
98
255
255
100
255
255
101
255
255
102
255
255
104
255
255
105
255
255
106
255
255
108
255
255
109
255
255
110
255
255
112
255
255
113
255
255
114
255
255
115
255
255
117
255
255
118
255
255
119
255
255
121
255
255
122
255
255
123
255
255
125
255
255
126
255
255
127
255
255
128
255
255
129
255
255
130
255
255
131
255
255
132
255
255
133
255
255
134
255
255
135
255
255
136
255
255
136
255
255
137
255
255
138
255
255
139
255
255
140
255
255
141
255
255
142
255
255
143
255
255
144
255
255
145
255
255
146
255
255
147
255
255
147
255
255
148
255
255
149
255
255
150
255
255
151
255
255
152
255
255
153
255
255
154
255
255
155
255
255
156
255
255
157
255
255
158
255
255
159
255
255
159
255
255
160
255
255
161
255
255
162
255
255
163
255
255
164
255
255
165
255
255
166
255
255
167
255
255
168
255
255
169
255
255
170
255
255
171
255
255
171
255
255
172
255
255
173
255
255
174
255
255
175
255
255
176
255
255
177
255
255
178
255
255
179
255
255
180
255
255
181
255
255
182
255
255
183
255
255
183
255
255
184
255
255
185
255
255
186
255
255
187
255
255
188
255
255
189
255
255
190
255
255
191
255
255
192
255
255
193
255
255
194
255
255
194
255
255
195
255
255
196
255
255
197
255
255
198
255
255
199
255
255
200
255
255
201
255
255
202
255
255
203
255
255
204
255
255
205
255
255
206
255
255
206
255
255
207
255
255
208
255
255
209
255
255
210
255
255
211
255
255
212
255
255
213
255
255
214
255
255
215
255
255
216
255
255
217
255
255
218
255
255
218
255
255
219
255
255
220
255
255
221
255
255
222
255
255
223
255
255
224
255
255
225
255
255
226
255
255
227
255
255
228
255
255
229
255
255
229
255
255
230
255
255
231
255
255
232
255
255
233
255
255
234
255
255
235
255
255
236
255
255
237
255
255
238
255
255
239
255
255
240
255
255
241
255
255
241
255
255
242
255
255
