P3
# CREATOR: The GIMP's PNM Filter Version 1.0
1024 1
255
255
0
0
255
0
0
255
0
0
255
1
0
255
2
0
255
4
0
255
5
0
255
7
0
255
8
0
255
10
0
255
11
0
255
13
0
255
14
0
255
16
0
255
17
0
255
19
0
255
20
0
255
22
0
255
23
0
255
25
0
255
26
0
255
28
0
255
29
0
255
31
0
255
32
0
255
34
0
255
35
0
255
37
0
255
38
0
255
40
0
255
41
0
255
43
0
255
44
0
255
46
0
255
47
0
255
49
0
255
50
0
255
52
0
255
53
0
255
55
0
255
56
0
255
58
0
255
59
0
255
61
0
255
62
0
255
64
0
255
65
0
255
67
0
255
68
0
255
70
0
255
71
0
255
73
0
255
74
0
255
76
0
255
77
0
255
79
0
255
80
0
255
82
0
255
83
0
255
85
0
255
86
0
255
88
0
255
89
0
255
91
0
255
92
0
255
94
0
255
95
0
255
97
0
255
98
0
255
100
0
255
101
0
255
103
0
255
104
0
255
106
0
255
107
0
255
109
0
255
110
0
255
112
0
255
113
0
255
115
0
255
116
0
255
118
0
255
119
0
255
121
0
255
122
0
255
124
0
255
125
0
255
127
0
255
128
0
255
130
0
255
131
0
255
133
0
255
134
0
255
136
0
255
137
0
255
139
0
255
140
0
255
142
0
255
143
0
255
145
0
255
146
0
255
148
0
255
149
0
255
151
0
255
152
0
255
154
0
255
155
0
255
157
0
255
158
0
255
160
0
255
161
0
255
163
0
255
164
0
255
166
0
255
167
0
255
169
0
255
170
0
255
172
0
255
173
0
255
175
0
255
176
0
255
178
0
255
179
0
255
181
0
255
182
0
255
184
0
255
185
0
255
187
0
255
188
0
255
190
0
255
191
0
255
193
0
255
194
0
255
196
0
255
197
0
255
199
0
255
200
0
255
202
0
255
203
0
255
205
0
255
206
0
255
208
0
255
209
0
255
211
0
255
212
0
255
214
0
255
215
0
255
217
0
255
218
0
255
220
0
255
221
0
255
223
0
255
224
0
255
226
0
255
227
0
255
229
0
255
230
0
255
232
0
255
233
0
255
235
0
255
236
0
255
238
0
255
239
0
255
241
0
255
242
0
255
244
0
255
245
0
255
247
0
255
248
0
255
250
0
255
251
0
255
253
0
255
254
0
253
255
0
252
255
0
250
255
0
249
255
0
247
255
0
246
255
0
244
255
0
243
255
0
241
255
0
240
255
0
238
255
0
237
255
0
235
255
0
234
255
0
232
255
0
231
255
0
229
255
0
228
255
0
226
255
0
225
255
0
223
255
0
222
255
0
220
255
0
219
255
0
217
255
0
216
255
0
214
255
0
213
255
0
211
255
0
210
255
0
208
255
0
207
255
0
205
255
0
204
255
0
202
255
0
201
255
0
199
255
0
198
255
0
196
255
0
195
255
0
193
255
0
192
255
0
190
255
0
189
255
0
187
255
0
186
255
0
184
255
0
183
255
0
181
255
0
180
255
0
178
255
0
177
255
0
175
255
0
174
255
0
172
255
0
171
255
0
169
255
0
168
255
0
166
255
0
165
255
0
163
255
0
162
255
0
160
255
0
159
255
0
157
255
0
156
255
0
154
255
0
153
255
0
151
255
0
150
255
0
148
255
0
147
255
0
145
255
0
144
255
0
142
255
0
141
255
0
139
255
0
138
255
0
136
255
0
135
255
0
133
255
0
132
255
0
130
255
0
129
255
0
127
255
0
126
255
0
124
255
0
123
255
0
121
255
0
120
255
0
118
255
0
117
255
0
115
255
0
114
255
0
112
255
0
111
255
0
109
255
0
108
255
0
106
255
0
105
255
0
103
255
0
102
255
0
100
255
0
99
255
0
97
255
0
96
255
0
94
255
0
93
255
0
91
255
0
90
255
0
88
255
0
87
255
0
85
255
0
84
255
0
82
255
0
81
255
0
79
255
0
78
255
0
76
255
0
75
255
0
73
255
0
72
255
0
70
255
0
69
255
0
67
255
0
66
255
0
64
255
0
63
255
0
61
255
0
60
255
0
58
255
0
57
255
0
55
255
0
54
255
0
52
255
0
51
255
0
49
255
0
48
255
0
46
255
0
45
255
0
43
255
0
42
255
0
40
255
0
39
255
0
37
255
0
36
255
0
34
255
0
33
255
0
31
255
0
30
255
0
28
255
0
27
255
0
25
255
0
24
255
0
22
255
0
21
255
0
19
255
0
18
255
0
16
255
0
15
255
0
13
255
0
12
255
0
10
255
0
9
255
0
7
255
0
6
255
0
4
255
0
3
255
0
1
255
0
0
255
0
0
255
1
0
255
2
0
255
4
0
255
5
0
255
7
0
255
8
0
255
10
0
255
11
0
255
13
0
255
14
0
255
16
0
255
17
0
255
19
0
255
20
0
255
22
0
255
23
0
255
25
0
255
26
0
255
28
0
255
29
0
255
31
0
255
32
0
255
34
0
255
35
0
255
37
0
255
38
0
255
40
0
255
41
0
255
43
0
255
44
0
255
46
0
255
47
0
255
49
0
255
50
0
255
52
0
255
53
0
255
55
0
255
56
0
255
58
0
255
59
0
255
61
0
255
62
0
255
64
0
255
65
0
255
67
0
255
68
0
255
70
0
255
71
0
255
73
0
255
74
0
255
76
0
255
77
0
255
79
0
255
80
0
255
82
0
255
83
0
255
85
0
255
86
0
255
88
0
255
89
0
255
91
0
255
92
0
255
94
0
255
95
0
255
97
0
255
98
0
255
100
0
255
101
0
255
103
0
255
104
0
255
106
0
255
107
0
255
109
0
255
110
0
255
112
0
255
113
0
255
115
0
255
116
0
255
118
0
255
119
0
255
121
0
255
122
0
255
124
0
255
125
0
255
127
0
255
128
0
255
130
0
255
131
0
255
133
0
255
134
0
255
136
0
255
137
0
255
139
0
255
140
0
255
142
0
255
143
0
255
145
0
255
146
0
255
148
0
255
149
0
255
151
0
255
152
0
255
154
0
255
155
0
255
157
0
255
158
0
255
160
0
255
161
0
255
163
0
255
164
0
255
166
0
255
167
0
255
169
0
255
170
0
255
172
0
255
173
0
255
175
0
255
176
0
255
178
0
255
179
0
255
181
0
255
182
0
255
184
0
255
185
0
255
187
0
255
188
0
255
190
0
255
191
0
255
193
0
255
194
0
255
196
0
255
197
0
255
199
0
255
200
0
255
202
0
255
203
0
255
205
0
255
206
0
255
208
0
255
209
0
255
211
0
255
212
0
255
214
0
255
215
0
255
217
0
255
218
0
255
220
0
255
221
0
255
223
0
255
224
0
255
226
0
255
227
0
255
229
0
255
230
0
255
232
0
255
233
0
255
235
0
255
236
0
255
238
0
255
239
0
255
241
0
255
242
0
255
244
0
255
245
0
255
247
0
255
248
0
255
250
0
255
251
0
255
253
0
255
254
0
253
255
0
252
255
0
250
255
0
249
255
0
247
255
0
246
255
0
244
255
0
243
255
0
241
255
0
240
255
0
238
255
0
237
255
0
235
255
0
234
255
0
232
255
0
231
255
0
229
255
0
228
255
0
226
255
0
225
255
0
223
255
0
222
255
0
220
255
0
219
255
0
217
255
0
216
255
0
214
255
0
213
255
0
211
255
0
210
255
0
208
255
0
207
255
0
205
255
0
204
255
0
202
255
0
201
255
0
199
255
0
198
255
0
196
255
0
195
255
0
193
255
0
192
255
0
190
255
0
189
255
0
187
255
0
186
255
0
184
255
0
183
255
0
181
255
0
180
255
0
178
255
0
177
255
0
175
255
0
174
255
0
172
255
0
171
255
0
169
255
0
168
255
0
166
255
0
165
255
0
163
255
0
162
255
0
160
255
0
159
255
0
157
255
0
156
255
0
154
255
0
153
255
0
151
255
0
150
255
0
148
255
0
147
255
0
145
255
0
144
255
0
142
255
0
141
255
0
139
255
0
138
255
0
136
255
0
135
255
0
133
255
0
132
255
0
130
255
0
129
255
0
127
255
0
126
255
0
124
255
0
123
255
0
121
255
0
120
255
0
118
255
0
117
255
0
115
255
0
114
255
0
112
255
0
111
255
0
109
255
0
108
255
0
106
255
0
105
255
0
103
255
0
102
255
0
100
255
0
99
255
0
97
255
0
96
255
0
94
255
0
93
255
0
91
255
0
90
255
0
88
255
0
87
255
0
85
255
0
84
255
0
82
255
0
81
255
0
79
255
0
78
255
0
76
255
0
75
255
0
73
255
0
72
255
0
70
255
0
69
255
0
67
255
0
66
255
0
64
255
0
63
255
0
61
255
0
60
255
0
58
255
0
57
255
0
55
255
0
54
255
0
52
255
0
51
255
0
49
255
0
48
255
0
46
255
0
45
255
0
43
255
0
42
255
0
40
255
0
39
255
0
37
255
0
36
255
0
34
255
0
33
255
0
31
255
0
30
255
0
28
255
0
27
255
0
25
255
0
24
255
0
22
255
0
21
255
0
19
255
0
18
255
0
16
255
0
15
255
0
13
255
0
12
255
0
10
255
0
9
255
0
7
255
0
6
255
0
4
255
0
3
255
0
1
255
0
0
255
1
0
255
2
0
255
4
0
255
5
0
255
7
0
255
8
0
255
10
0
255
11
0
255
13
0
255
14
0
255
16
0
255
17
0
255
19
0
255
20
0
255
22
0
255
23
0
255
25
0
255
26
0
255
28
0
255
29
0
255
31
0
255
32
0
255
34
0
255
35
0
255
37
0
255
38
0
255
40
0
255
41
0
255
43
0
255
44
0
255
46
0
255
47
0
255
49
0
255
50
0
255
52
0
255
53
0
255
55
0
255
56
0
255
58
0
255
59
0
255
61
0
255
62
0
255
64
0
255
65
0
255
67
0
255
68
0
255
70
0
255
71
0
255
73
0
255
74
0
255
76
0
255
77
0
255
79
0
255
80
0
255
82
0
255
83
0
255
85
0
255
86
0
255
88
0
255
89
0
255
91
0
255
92
0
255
94
0
255
95
0
255
97
0
255
98
0
255
100
0
255
101
0
255
103
0
255
104
0
255
106
0
255
107
0
255
109
0
255
110
0
255
112
0
255
113
0
255
115
0
255
116
0
255
118
0
255
119
0
255
121
0
255
122
0
255
124
0
255
125
0
255
127
0
255
128
0
255
130
0
255
131
0
255
133
0
255
134
0
255
136
0
255
137
0
255
139
0
255
140
0
255
142
0
255
143
0
255
145
0
255
146
0
255
148
0
255
149
0
255
151
0
255
152
0
255
154
0
255
155
0
255
157
0
255
158
0
255
160
0
255
161
0
255
163
0
255
164
0
255
166
0
255
167
0
255
169
0
255
170
0
255
172
0
255
173
0
255
175
0
255
176
0
255
178
0
255
179
0
255
181
0
255
182
0
255
184
0
255
185
0
255
187
0
255
188
0
255
190
0
255
191
0
255
193
0
255
194
0
255
196
0
255
197
0
255
199
0
255
200
0
255
202
0
255
203
0
255
205
0
255
206
0
255
208
0
255
209
0
255
211
0
255
212
0
255
214
0
255
215
0
255
217
0
255
218
0
255
220
0
255
221
0
255
223
0
255
224
0
255
226
0
255
227
0
255
229
0
255
230
0
255
232
0
255
233
0
255
235
0
255
236
0
255
238
0
255
239
0
255
241
0
255
242
0
255
244
0
255
245
0
255
247
0
255
248
0
255
250
0
255
251
0
255
253
0
255
254
0
255
255
0
253
255
0
252
255
0
250
255
0
249
255
0
247
255
0
246
255
0
244
255
0
243
255
0
241
255
0
240
255
0
238
255
0
237
255
0
235
255
0
234
255
0
232
255
0
231
255
0
229
255
0
228
255
0
226
255
0
225
255
0
223
255
0
222
255
0
220
255
0
219
255
0
217
255
0
216
255
0
214
255
0
213
255
0
211
255
0
210
255
0
208
255
0
207
255
0
205
255
0
204
255
0
202
255
0
201
255
0
199
255
0
198
255
0
196
255
0
195
255
0
193
255
0
192
255
0
190
255
0
189
255
0
187
255
0
186
255
0
184
255
0
183
255
0
181
255
0
180
255
0
178
255
0
177
255
0
175
255
0
174
255
0
172
255
0
171
255
0
169
255
0
168
255
0
166
255
0
165
255
0
163
255
0
162
255
0
160
255
0
159
255
0
157
255
0
156
255
0
154
255
0
153
255
0
151
255
0
150
255
0
148
255
0
147
255
0
145
255
0
144
255
0
142
255
0
141
255
0
139
255
0
138
255
0
136
255
0
135
255
0
133
255
0
132
255
0
130
255
0
129
255
0
127
255
0
126
255
0
124
255
0
123
255
0
121
255
0
120
255
0
118
255
0
117
255
0
115
255
0
114
255
0
112
255
0
111
255
0
109
255
0
108
255
0
106
255
0
105
255
0
103
255
0
102
255
0
100
255
0
99
255
0
97
255
0
96
255
0
94
255
0
93
255
0
91
255
0
90
255
0
88
255
0
87
255
0
85
255
0
84
255
0
82
255
0
81
255
0
79
255
0
78
255
0
76
255
0
75
255
0
73
255
0
72
255
0
70
255
0
69
255
0
67
255
0
66
255
0
64
255
0
63
255
0
61
255
0
60
255
0
58
255
0
57
255
0
55
255
0
54
255
0
52
255
0
51
255
0
49
255
0
48
255
0
46
255
0
45
255
0
43
255
0
42
255
0
40
255
0
39
255
0
37
255
0
36
255
0
34
255
0
33
255
0
31
255
0
30
255
0
28
255
0
27
255
0
25
255
0
24
255
0
22
255
0
21
255
0
19
255
0
18
255
0
16
255
0
15
255
0
13
255
0
12
255
0
10
255
0
9
255
0
7
255
0
6
255
0
4
255
0
3
255
0
1
255
0
0
255
0
0
