P3
# CREATOR: GIMP PNM Filter Version 1.1
4096 1
255
0
0
0
0
0
0
0
1
0
1
0
1
0
0
0
1
1
0
0
1
1
1
1
1
1
1
1
1
1
1
1
2
1
2
2
1
2
2
1
1
1
2
2
2
2
2
1
1
1
2
1
2
2
2
2
2
2
2
2
3
2
2
3
2
2
2
2
2
3
2
2
2
3
3
2
3
3
3
3
3
3
3
3
3
3
3
3
4
3
3
3
4
3
4
3
4
3
4
4
3
4
4
4
4
4
4
4
4
4
4
4
4
4
4
4
4
4
5
4
5
4
4
5
5
5
5
5
4
5
5
5
5
5
5
5
5
5
5
6
6
5
5
5
5
5
5
6
5
5
5
6
6
5
6
6
6
6
6
6
6
5
6
6
6
6
6
6
6
7
6
6
7
6
7
7
7
7
6
6
7
7
6
6
7
6
6
7
6
7
7
7
7
7
7
7
7
7
7
7
8
7
7
8
8
7
8
8
8
7
8
8
8
8
7
8
8
8
8
8
8
8
8
8
8
8
8
9
8
8
8
9
9
9
8
9
9
9
9
9
9
9
9
8
9
9
9
9
9
10
10
10
9
9
9
9
10
9
10
9
10
9
10
9
9
10
9
10
10
10
10
10
11
10
10
10
10
10
11
10
10
10
10
10
10
10
10
11
10
10
10
11
11
11
11
11
11
11
11
11
11
11
11
11
11
11
11
11
11
12
11
12
12
12
12
12
12
12
12
12
12
12
12
12
12
13
12
12
12
12
12
12
12
12
12
13
13
12
13
12
13
13
13
13
12
12
13
13
13
13
13
13
13
13
14
13
14
13
14
13
14
13
14
13
13
14
14
14
14
13
14
14
13
14
14
13
14
14
14
14
14
15
14
14
14
14
14
14
15
14
14
14
15
15
15
15
15
15
14
14
15
14
15
15
15
15
15
15
15
15
16
15
16
16
16
15
15
15
15
15
15
16
16
16
15
16
15
16
16
16
16
16
16
16
16
16
17
17
16
17
16
16
17
17
17
16
16
16
17
17
16
17
17
17
17
17
17
17
17
17
17
17
18
17
18
17
17
17
17
17
17
17
18
17
17
18
17
18
18
18
17
18
18
18
18
18
18
18
18
18
18
18
19
18
18
18
19
18
18
18
18
18
18
18
18
19
18
19
19
19
19
19
19
19
19
19
19
19
19
20
19
19
19
19
20
19
19
20
20
20
20
20
19
20
19
20
20
20
20
20
20
20
21
21
20
21
20
20
20
21
20
21
20
21
20
21
21
21
21
21
21
21
21
21
21
21
21
21
21
22
21
21
21
21
22
22
21
21
22
22
21
21
21
21
21
22
22
21
22
22
22
22
22
22
22
22
22
22
22
22
22
23
22
23
22
23
22
23
22
22
22
22
23
23
22
23
23
22
23
23
23
23
24
24
23
23
23
23
24
23
23
23
24
24
24
23
24
24
24
23
23
24
24
24
24
24
24
24
24
24
24
24
24
24
24
25
24
25
25
25
24
24
25
24
25
25
25
25
25
25
25
25
25
25
25
25
25
25
25
25
26
25
25
25
25
26
25
25
25
25
26
26
26
25
25
26
26
26
26
26
26
26
26
26
26
26
26
27
26
26
26
27
26
27
26
26
26
26
27
26
26
27
27
27
27
27
27
27
27
27
27
27
27
27
27
27
27
27
27
27
27
27
27
28
28
27
28
27
28
27
28
28
28
28
28
28
28
28
28
28
28
28
28
28
28
29
29
28
28
29
29
28
28
29
28
29
29
29
29
29
29
29
29
29
29
29
29
30
29
30
29
29
29
29
30
29
30
29
29
30
29
30
30
29
30
30
30
30
30
30
30
30
30
30
30
30
30
31
31
31
30
30
31
31
30
30
30
30
31
31
30
31
30
31
31
31
31
31
31
31
31
31
31
31
31
31
31
32
32
31
32
32
31
32
32
32
31
32
32
32
32
32
32
32
32
32
32
32
32
32
32
32
32
32
32
33
33
33
33
33
32
32
33
33
33
33
32
33
33
33
33
33
33
33
33
33
33
33
33
34
33
33
34
34
34
34
34
34
34
34
34
34
34
34
34
34
34
34
34
34
34
34
34
34
34
35
34
34
35
34
35
35
35
34
35
34
35
35
35
35
34
35
35
35
35
35
36
35
35
35
35
35
35
36
36
36
35
35
36
35
36
36
36
35
36
36
36
36
36
36
36
36
36
36
36
36
36
37
36
37
37
36
37
36
37
36
36
37
37
37
36
37
37
37
37
37
37
37
37
37
37
37
37
37
37
37
37
38
38
38
37
37
37
38
38
38
37
38
37
38
38
38
37
38
38
38
38
38
39
38
38
38
38
39
39
38
38
39
39
38
38
39
39
39
39
39
38
39
39
39
38
39
39
39
39
40
39
39
39
40
39
40
39
40
39
39
40
39
39
40
39
39
40
40
40
40
40
40
40
40
40
40
40
41
40
40
41
41
40
40
41
41
40
41
40
40
41
41
41
41
41
41
41
41
41
41
41
41
41
42
41
41
41
41
42
41
41
42
42
41
42
42
42
41
42
42
42
42
42
42
42
42
42
42
42
42
42
42
42
43
42
42
42
43
43
42
42
43
43
42
43
42
42
43
43
43
43
43
43
43
43
44
44
43
43
43
43
43
43
44
43
43
43
43
44
43
43
43
44
44
44
44
44
44
44
44
44
44
44
44
44
44
44
44
45
45
45
44
44
45
44
44
44
44
45
44
45
44
45
45
45
45
45
45
45
45
45
45
45
46
45
45
45
46
45
45
46
45
46
46
46
46
46
46
46
45
46
46
46
46
46
46
46
46
47
46
46
46
46
46
46
46
46
47
46
47
47
46
47
47
47
47
46
47
47
47
47
48
47
47
47
47
47
47
47
48
47
47
48
48
48
48
48
48
48
47
48
48
48
48
48
48
48
48
49
48
48
48
48
48
49
48
48
48
48
48
48
49
48
49
48
49
49
48
48
49
49
49
49
49
49
49
49
49
49
49
49
49
49
49
49
49
50
50
49
49
50
49
50
49
50
50
50
50
50
50
50
50
50
50
50
51
50
50
50
50
50
50
50
51
50
50
51
51
50
51
51
51
51
50
50
51
51
51
51
51
51
51
51
52
52
51
51
51
51
51
51
52
52
51
51
51
52
52
51
52
52
52
52
52
52
52
52
52
52
52
52
52
52
52
52
52
52
53
52
53
52
52
53
53
53
53
53
53
53
52
53
53
53
53
53
54
53
54
54
53
53
53
53
54
53
53
54
53
53
53
54
54
54
54
54
54
53
54
54
54
54
54
54
54
54
54
55
54
54
54
55
55
55
54
55
54
55
54
55
55
55
54
55
55
55
55
55
55
56
55
55
55
55
56
55
55
55
55
56
55
55
55
55
56
56
56
56
56
56
55
56
56
56
56
56
56
56
57
56
57
56
56
57
56
56
56
56
57
57
57
57
57
57
57
57
57
57
57
57
57
57
57
57
58
57
58
57
57
57
57
57
57
58
58
58
58
58
58
58
58
58
58
57
58
58
58
58
58
59
58
58
58
59
59
58
58
58
59
59
59
58
58
58
58
59
58
59
59
58
59
59
59
59
59
59
59
59
59
59
60
59
60
59
59
59
60
60
60
59
60
60
60
59
59
59
59
60
60
60
60
60
60
60
60
60
60
61
60
60
60
61
61
61
60
60
61
60
61
61
61
61
60
61
61
60
61
61
61
61
61
61
61
61
61
62
61
62
62
61
62
62
61
62
62
62
61
61
62
62
62
62
62
62
62
62
62
62
62
63
63
62
62
62
62
63
62
63
62
63
62
63
62
63
62
62
63
63
63
63
62
63
63
63
63
63
63
63
63
63
63
63
63
63
63
64
63
63
64
64
64
64
63
64
64
64
63
64
64
64
64
64
65
65
64
65
64
64
64
64
65
64
65
65
64
65
65
65
64
65
65
65
65
65
65
65
65
65
65
65
65
65
65
65
65
66
65
66
66
66
66
66
65
66
66
65
66
66
66
66
66
66
66
66
66
67
66
66
66
66
67
66
66
66
67
66
67
67
67
67
66
67
66
67
67
67
67
67
67
67
67
67
67
67
67
67
68
67
67
67
68
67
68
67
67
68
68
68
67
68
68
67
67
68
68
68
68
68
68
68
68
68
68
69
69
68
69
68
69
68
69
68
68
68
69
69
69
69
68
69
69
69
69
69
69
69
69
70
69
69
69
69
69
70
70
70
70
70
69
69
70
70
69
69
69
70
69
70
70
70
70
70
70
70
70
70
70
70
70
70
70
70
71
70
70
70
71
71
71
71
70
71
71
71
71
71
71
71
71
71
71
71
71
71
71
72
71
71
72
72
72
71
71
71
72
71
72
72
72
72
72
72
72
72
72
72
72
72
72
72
72
72
73
73
73
72
72
72
73
73
72
73
73
73
73
72
73
72
73
73
73
73
73
73
73
73
73
73
74
73
74
73
74
74
73
73
74
74
73
74
73
74
74
74
74
74
74
74
74
74
74
74
74
74
74
75
74
74
75
74
75
75
75
75
74
75
75
75
75
75
75
75
75
75
75
75
76
75
75
75
75
76
75
76
75
75
76
75
76
76
76
75
76
76
76
76
75
76
76
76
76
76
76
76
76
76
76
76
77
77
77
76
76
76
77
76
76
77
77
77
76
77
76
77
77
77
77
77
77
77
77
77
77
77
77
78
78
77
77
78
77
78
78
77
77
78
78
78
78
78
78
77
78
78
78
78
79
78
78
78
78
78
79
78
78
79
78
79
79
78
78
79
78
79
78
79
79
79
79
79
79
79
79
79
79
79
80
80
79
79
80
79
79
79
79
79
80
79
80
79
80
79
80
80
80
80
80
80
80
80
80
80
80
80
80
80
80
81
80
80
80
80
80
81
81
80
80
81
81
80
81
80
81
81
81
81
81
81
81
81
81
81
81
82
82
81
81
82
82
82
82
82
81
82
82
82
82
82
82
82
81
82
82
82
82
82
82
83
83
82
83
82
82
82
83
83
83
83
82
83
83
83
83
83
83
83
83
83
83
83
83
83
83
83
83
83
84
84
83
83
84
83
84
84
83
83
84
84
84
84
84
84
84
84
84
84
84
84
84
84
84
85
84
84
84
85
84
85
84
85
85
84
85
85
84
85
85
85
85
85
84
84
85
85
85
85
85
85
85
85
85
85
85
86
86
86
85
86
86
85
85
85
86
86
85
86
86
86
86
86
86
86
86
87
86
87
86
86
86
86
87
87
86
86
86
86
86
87
86
87
87
86
87
87
86
87
87
87
87
88
87
87
87
88
87
88
87
87
88
87
87
87
87
87
87
88
88
88
88
88
88
88
88
88
88
88
88
88
88
88
88
88
88
88
88
88
88
88
89
89
89
88
88
89
89
88
89
89
89
89
89
89
89
90
89
89
89
89
90
89
89
90
89
90
89
89
90
90
90
90
90
90
90
89
90
90
90
90
90
90
91
90
90
91
90
90
90
90
91
91
90
90
90
90
91
91
91
90
91
91
91
91
91
91
91
91
91
91
91
91
92
92
92
92
91
91
92
92
91
92
92
92
91
91
92
92
92
92
92
92
92
92
92
92
92
92
92
93
92
92
93
93
93
93
93
93
93
92
93
93
93
93
92
92
93
93
93
93
93
93
93
93
94
93
94
93
93
93
93
94
93
93
93
94
94
93
94
94
93
94
94
94
94
94
94
94
94
94
94
94
94
95
94
95
94
95
94
95
95
95
95
95
94
95
94
95
95
95
95
95
95
95
95
95
95
96
95
95
95
95
95
96
96
95
96
95
95
96
95
96
95
96
96
96
96
95
96
96
96
96
96
96
96
96
97
97
96
96
97
96
97
97
96
96
96
96
96
97
97
97
97
97
97
97
97
97
97
97
97
97
97
97
97
97
97
98
98
97
97
97
97
98
97
98
97
97
98
98
98
98
98
98
98
98
98
98
99
98
98
98
98
98
99
99
99
99
98
99
98
98
99
98
99
98
99
99
99
99
99
99
99
99
99
99
99
100
100
99
99
99
100
99
99
100
99
100
99
99
100
100
100
100
100
99
100
100
100
100
100
100
100
100
100
100
101
101
100
101
101
101
101
100
101
101
100
101
101
101
101
101
100
101
101
101
101
101
101
101
101
101
101
101
101
102
101
101
101
101
102
101
102
102
102
102
101
102
101
102
102
102
102
102
102
102
103
102
102
102
102
102
103
102
103
103
103
102
103
103
102
103
103
102
103
102
103
103
103
103
103
103
103
103
103
103
103
103
103
104
103
103
104
104
103
103
104
104
104
104
104
104
104
104
104
104
104
104
104
104
105
104
104
104
104
104
105
104
104
104
105
105
105
104
105
105
105
105
105
105
105
105
105
105
105
105
105
105
105
105
105
106
105
106
106
105
105
106
105
106
106
105
106
106
105
106
106
106
106
106
106
106
106
107
107
107
106
106
106
106
106
106
107
107
107
106
106
107
107
107
107
107
107
107
107
107
107
107
107
107
107
107
108
108
107
107
107
108
108
107
107
107
107
107
108
107
108
108
108
108
108
108
108
108
108
108
108
108
108
108
109
108
108
108
108
109
108
108
108
109
109
109
109
109
109
109
109
109
109
109
109
109
109
109
109
109
110
109
110
109
109
110
110
109
109
109
109
110
110
110
110
110
110
109
110
110
110
110
110
110
110
110
110
110
110
111
111
110
110
111
111
110
111
111
110
111
111
110
111
110
111
110
111
111
111
111
111
111
111
111
111
111
111
111
111
111
111
112
111
112
111
111
111
111
112
112
112
111
112
112
112
112
112
112
112
112
112
113
112
112
112
113
112
112
113
113
112
112
112
113
112
112
112
113
113
113
113
113
113
113
113
113
113
113
113
113
113
114
114
113
113
114
114
114
113
113
114
114
114
114
113
114
114
114
114
114
114
114
114
114
115
114
115
114
114
115
114
114
115
115
114
115
115
115
115
115
115
115
115
115
115
115
115
115
115
115
116
116
115
115
115
115
115
115
115
116
116
116
116
115
115
115
116
116
115
116
116
116
116
116
116
116
116
116
116
116
116
117
116
116
116
116
117
117
117
117
117
117
116
117
117
117
117
117
117
117
117
117
117
117
117
118
117
117
117
118
118
118
118
117
118
117
117
117
118
118
118
118
118
118
118
118
118
118
118
118
118
118
118
118
118
119
118
119
118
118
119
118
119
118
118
118
118
119
119
119
119
119
119
119
119
119
119
119
119
120
119
119
120
119
119
119
119
120
119
119
119
119
119
119
120
119
120
120
119
120
120
120
120
120
120
120
120
120
120
120
121
120
120
120
120
121
121
121
120
121
121
121
121
121
121
120
121
121
121
121
122
121
121
121
121
122
121
122
122
122
122
122
122
122
122
122
122
122
122
122
122
122
122
122
122
122
122
122
122
122
122
123
122
122
123
122
122
122
122
122
122
122
123
122
123
123
123
123
123
123
123
123
124
123
123
123
123
123
124
123
124
124
124
124
124
123
123
124
124
124
124
124
124
124
124
124
124
124
124
124
124
124
125
124
124
124
124
124
124
124
124
125
124
124
125
125
125
124
125
125
125
125
125
125
124
125
125
126
125
126
125
125
125
125
125
126
125
125
125
125
125
126
125
126
126
125
126
125
126
126
126
126
126
126
126
126
127
126
126
126
127
126
127
127
126
126
127
126
127
126
127
127
127
126
127
127
127
127
127
127
127
127
127
128
127
127
127
127
127
127
128
127
128
128
127
128
127
128
128
128
128
128
128
128
128
128
128
128
128
128
128
129
129
128
128
129
129
129
129
129
129
130
130
130
129
130
130
129
130
129
130
130
129
130
130
129
130
130
130
130
130
130
130
130
130
130
130
131
131
131
131
131
131
131
131
131
131
131
131
131
131
131
131
132
132
131
131
132
132
131
132
132
132
132
132
132
132
132
133
133
133
133
133
132
133
133
133
133
133
133
133
133
133
133
133
133
133
134
134
134
133
133
133
134
134
134
134
134
134
134
135
134
134
135
135
135
134
134
134
134
135
135
135
135
135
135
135
135
135
136
135
135
135
135
135
136
136
135
136
136
135
136
135
136
136
136
136
136
136
136
137
136
136
137
137
136
137
137
137
137
137
137
138
137
137
137
137
137
137
138
138
138
138
138
137
138
138
138
138
138
138
138
138
138
138
138
138
139
139
139
139
139
139
138
139
139
139
138
139
139
139
139
139
139
140
140
140
139
139
139
139
140
139
140
140
140
140
140
140
140
141
140
140
140
140
140
140
141
141
141
141
140
140
141
141
141
141
142
141
141
141
141
142
142
142
142
142
141
141
142
142
142
142
143
142
142
143
142
142
142
142
142
142
143
143
143
143
143
143
143
143
143
143
143
143
143
144
143
143
143
144
143
144
143
144
144
144
144
144
144
144
145
144
144
144
144
145
145
145
144
145
144
145
145
145
145
145
145
145
146
146
145
145
146
145
145
146
145
146
146
146
146
146
146
146
146
146
147
146
147
147
146
146
146
146
147
146
147
147
147
147
147
147
147
147
148
148
147
147
147
148
148
148
148
147
148
148
148
148
148
148
149
148
149
148
148
149
149
148
149
148
149
149
149
149
149
149
149
149
149
150
149
149
150
150
149
150
150
149
149
150
150
150
150
150
150
150
151
150
150
150
150
150
151
150
151
150
151
151
151
151
151
151
151
151
152
151
151
152
152
151
152
151
152
152
152
152
152
151
153
152
152
152
153
152
152
152
153
152
153
152
153
153
153
153
153
153
153
153
153
153
153
153
153
154
153
154
154
154
154
154
154
154
154
154
155
154
154
155
154
154
154
154
155
155
154
154
155
155
155
155
155
155
155
155
155
156
155
156
155
155
156
156
155
155
156
156
156
156
156
156
156
156
156
156
156
156
157
157
156
157
157
157
156
157
157
157
157
157
157
157
157
157
157
157
157
157
158
157
158
157
158
158
158
158
158
158
158
158
158
158
159
158
159
159
159
159
159
158
159
159
159
159
159
159
159
159
159
159
160
159
160
159
159
159
159
160
160
160
160
160
160
160
160
160
160
160
160
161
161
161
160
161
161
161
161
161
161
161
161
161
161
161
161
161
162
161
161
161
161
161
161
162
162
162
161
162
162
162
162
163
163
162
162
162
162
163
163
162
162
163
163
163
162
163
163
163
163
163
163
163
163
164
164
163
164
164
164
164
164
164
164
164
164
164
164
164
164
164
164
164
165
164
165
165
164
165
165
165
164
165
165
165
165
165
165
165
165
166
166
166
166
166
166
166
165
166
165
166
166
166
166
167
167
167
166
166
166
167
167
167
167
166
166
167
167
167
167
167
167
167
167
167
167
168
167
168
168
168
168
168
168
168
168
168
168
168
168
168
169
169
168
168
168
169
168
169
169
169
169
169
169
169
169
169
169
169
170
170
170
169
169
169
169
169
169
169
169
170
170
170
170
170
170
171
171
171
171
171
171
170
171
171
171
171
171
171
171
172
171
171
171
172
171
171
172
172
171
171
171
172
171
172
172
172
172
172
172
172
172
172
172
173
172
173
172
173
172
173
172
173
173
173
173
173
173
173
173
173
173
173
173
173
174
173
174
174
174
173
174
174
174
174
174
174
174
174
175
174
174
175
175
175
175
175
175
175
175
175
175
175
175
175
175
175
175
175
175
175
175
175
176
176
176
176
176
176
176
176
176
176
177
176
176
176
176
176
177
177
176
176
177
177
177
177
177
178
177
177
177
177
177
177
178
178
178
178
178
177
178
178
178
178
178
179
178
179
178
178
178
178
178
178
178
179
179
179
179
178
179
179
179
179
179
179
180
179
179
180
179
179
179
180
179
180
180
180
180
179
180
180
180
181
180
180
180
180
180
180
180
180
180
180
181
181
181
181
181
181
181
181
181
181
182
182
181
181
182
182
182
182
182
182
182
182
182
182
182
182
183
182
183
182
183
182
183
182
183
183
183
182
183
183
183
183
183
183
183
183
183
184
184
184
184
184
183
184
184
184
184
184
184
185
184
184
185
185
184
184
184
185
185
185
185
185
185
185
185
185
185
186
185
185
186
185
185
186
186
185
186
185
186
186
186
186
186
186
186
186
186
187
187
187
186
187
187
186
187
187
187
187
187
187
187
187
187
188
187
188
188
187
187
187
187
187
188
188
188
188
188
188
188
188
188
188
188
189
188
189
189
188
189
189
188
188
188
189
189
188
189
189
189
189
190
189
189
190
190
189
189
189
190
190
189
190
189
189
190
190
190
190
190
190
191
190
190
190
191
191
191
190
191
191
191
191
191
191
191
191
191
191
191
191
191
191
191
191
192
191
192
192
192
192
192
192
192
192
192
193
192
192
192
192
193
193
193
193
193
193
193
193
193
193
193
193
193
193
193
193
194
193
194
193
194
194
193
194
194
194
194
194
194
194
194
195
194
194
194
195
194
194
195
195
194
195
195
195
195
195
195
195
195
195
196
196
196
195
196
195
195
196
195
196
196
196
196
196
196
197
196
196
196
196
196
196
196
196
197
197
196
197
197
197
197
198
197
197
197
197
198
198
197
198
198
197
198
197
197
198
198
198
198
198
198
198
198
198
198
199
198
198
198
198
199
199
199
199
199
199
199
199
199
199
199
199
200
199
200
200
200
200
200
199
200
200
200
200
200
200
201
200
200
201
200
200
200
200
201
200
200
201
200
201
201
201
201
201
201
201
201
202
201
202
202
202
202
202
202
202
202
202
202
202
202
202
202
203
202
202
202
202
203
203
202
202
202
203
203
203
203
203
203
203
203
203
203
204
203
203
204
204
203
204
204
204
204
204
204
204
204
204
204
204
205
204
204
205
204
205
205
205
205
205
205
205
205
205
205
205
205
205
206
205
206
206
206
206
206
206
206
206
206
206
206
206
206
206
206
207
206
206
207
206
207
207
206
207
207
207
207
207
207
207
207
207
207
207
208
207
207
207
208
208
208
208
208
208
208
208
208
208
208
208
208
208
209
209
209
208
208
209
209
208
209
209
209
209
209
209
209
209
209
210
209
210
210
210
209
209
210
209
210
209
210
210
210
210
210
210
210
210
210
210
210
211
211
210
211
211
211
211
211
211
211
211
211
212
211
212
211
212
211
211
212
212
212
212
212
212
212
212
212
212
212
212
213
212
212
212
212
213
212
212
213
212
213
213
213
213
214
213
213
213
213
214
214
214
214
214
213
214
214
214
214
214
214
214
214
214
214
214
214
215
214
214
215
214
215
215
215
215
215
215
215
215
215
215
215
216
215
215
215
216
215
216
215
216
215
215
216
216
216
216
216
216
216
216
216
217
217
216
216
216
217
217
217
216
217
217
217
217
217
217
218
217
217
218
217
217
217
218
218
218
218
217
218
218
218
218
219
218
218
218
218
219
218
219
219
219
218
219
219
218
219
219
219
219
219
219
219
220
219
219
220
220
219
219
220
219
220
220
220
220
220
220
220
220
221
221
220
220
221
221
221
220
221
221
220
221
221
221
221
221
221
221
221
222
221
222
222
221
222
221
221
221
222
222
222
222
222
222
222
222
222
222
222
222
223
222
222
223
222
223
223
223
223
223
223
223
223
223
224
223
224
224
224
223
224
224
224
224
223
224
223
224
224
224
225
224
224
224
225
224
225
224
224
225
225
225
225
225
225
225
225
225
225
225
225
225
225
226
225
225
225
226
226
226
226
226
226
226
226
226
226
226
226
227
226
227
226
226
226
227
226
227
227
227
227
227
227
227
227
227
227
227
228
228
227
227
227
227
228
228
228
228
228
228
228
228
228
228
228
228
228
229
228
228
228
229
228
229
228
229
229
229
229
229
229
229
229
229
230
230
229
230
229
230
230
230
230
230
230
230
230
230
230
231
230
230
230
231
231
230
231
231
230
231
231
231
231
231
231
231
231
231
232
232
231
232
232
231
232
232
232
231
232
232
232
232
232
232
232
232
232
233
233
232
233
232
232
233
232
233
233
233
233
233
233
233
233
233
233
234
233
233
233
234
234
234
233
234
234
234
234
234
234
235
234
234
235
235
234
234
235
235
235
235
235
235
235
235
235
235
235
235
235
235
235
235
235
236
236
235
236
236
235
236
236
236
236
236
236
237
236
236
236
236
237
236
237
237
237
237
237
237
237
236
237
237
237
237
237
237
237
237
237
238
237
237
238
238
238
238
238
237
238
239
238
238
238
239
238
239
238
239
239
239
239
238
239
239
239
239
239
239
239
240
239
239
239
239
240
240
239
240
239
239
240
240
239
240
241
240
240
240
240
240
241
241
240
240
241
241
241
241
241
241
241
241
241
241
241
241
241
241
241
241
242
242
242
241
242
242
241
242
242
242
242
242
242
242
243
242
243
243
242
243
242
243
243
243
243
243
243
242
243
243
243
243
243
243
243
243
244
243
244
243
243
244
244
244
244
244
244
244
244
244
244
244
244
245
245
244
244
245
245
244
245
245
245
245
245
246
245
245
245
245
246
246
246
245
245
245
246
245
246
246
246
246
246
246
246
246
246
247
246
246
246
246
247
246
247
247
247
247
247
247
247
247
247
247
247
248
248
248
248
248
248
248
248
248
248
248
248
248
248
248
248
248
248
249
248
248
248
249
249
249
249
249
249
249
249
249
249
249
249
249
250
249
250
250
250
250
250
250
250
249
250
250
250
250
250
251
250
250
250
251
250
251
250
251
250
251
251
251
251
251
251
251
252
252
252
252
251
251
252
251
252
251
252
252
252
252
252
252
252
252
252
252
253
252
252
252
252
253
253
253
253
252
253
253
253
253
253
253
253
253
253
254
253
254
254
253
254
254
254
254
254
254
254
254
254
254
254
255
254
254
254
254
255
255
255
255
254
255
255
255
255
255
255
255
255
254
255
255
254
254
255
254
254
255
254
254
255
253
254
255
253
253
255
253
253
255
252
252
255
252
252
255
252
252
255
251
251
255
251
251
255
250
250
255
250
250
255
249
250
255
249
250
255
249
250
255
249
249
255
249
249
255
248
248
255
248
249
255
248
248
255
247
248
255
247
247
255
246
247
255
246
247
255
246
246
255
245
246
255
245
245
255
245
246
255
244
245
255
244
245
255
244
244
255
244
245
255
243
244
254
242
244
255
243
243
255
242
243
255
241
243
255
242
243
255
241
242
255
240
241
255
240
242
255
240
242
255
240
241
255
240
241
255
239
240
255
239
240
255
239
240
255
238
239
255
238
239
255
237
239
255
237
239
255
237
239
255
236
238
255
237
238
255
236
238
255
235
237
255
235
237
255
235
237
255
235
236
254
234
237
255
234
236
255
234
236
255
234
235
255
233
236
255
232
235
255
232
234
255
232
234
255
231
234
254
231
234
255
231
233
255
230
233
255
230
233
255
230
233
255
230
233
255
230
233
255
229
232
255
228
232
254
228
232
255
228
232
255
227
231
255
227
231
255
227
230
254
227
231
255
226
230
255
226
229
255
226
230
255
225
229
255
225
229
255
224
229
255
224
228
255
224
229
255
224
228
255
223
228
254
223
228
255
223
227
255
222
227
255
222
227
255
221
227
255
221
227
255
220
226
255
220
226
255
220
226
254
220
226
255
220
225
255
219
225
255
219
225
255
219
225
255
218
224
255
218
224
255
218
224
254
217
224
255
217
224
255
216
224
255
217
223
254
216
223
255
215
223
255
215
222
255
215
222
255
215
222
255
214
222
255
214
222
255
214
221
255
213
222
255
213
221
255
213
221
255
212
221
254
212
221
255
212
220
255
212
220
254
211
220
254
211
219
254
210
220
254
210
219
255
210
219
255
210
219
255
209
219
255
208
218
255
209
218
255
208
218
255
208
218
254
208
218
255
207
218
255
207
218
255
206
217
254
206
217
254
205
217
255
205
217
255
205
217
254
205
216
255
204
216
255
204
216
254
204
216
255
203
216
254
203
216
255
203
216
255
202
215
254
202
215
255
202
214
255
201
214
255
201
215
254
201
214
255
200
214
254
200
214
255
200
214
255
199
214
255
199
213
254
198
214
255
198
214
255
197
213
255
198
213
255
197
213
254
197
212
255
197
212
255
197
212
255
196
212
254
195
212
255
195
212
255
195
212
255
194
211
255
194
212
255
194
211
255
194
211
255
194
211
254
193
211
255
193
211
254
192
210
255
192
211
254
192
211
255
191
210
254
191
210
255
190
210
254
191
210
255
190
209
255
189
210
255
190
209
255
189
209
255
189
209
255
188
209
255
188
209
255
187
209
255
187
209
255
187
209
254
187
208
255
187
208
254
186
207
254
185
208
255
185
208
255
185
208
254
185
207
255
185
208
255
184
208
255
183
207
255
184
207
254
183
207
255
182
207
254
182
206
254
182
206
254
182
207
254
182
206
255
181
206
254
181
207
255
181
206
255
180
206
255
180
206
254
180
206
255
179
206
254
179
205
255
178
205
255
178
206
255
178
205
255
177
205
255
177
205
255
177
205
254
177
205
255
176
205
255
176
205
255
176
205
255
175
204
254
174
205
255
174
205
254
175
204
255
174
204
255
173
205
255
173
205
254
173
204
255
173
203
255
172
203
254
172
204
255
171
203
255
171
204
255
171
204
255
170
203
255
170
203
255
169
203
255
169
203
255
169
203
255
169
203
255
168
203
255
168
203
254
168
202
255
167
202
255
167
203
255
166
203
254
166
203
254
166
203
255
166
203
255
165
203
254
165
203
255
164
203
255
165
203
254
164
202
254
163
202
255
163
202
254
164
202
255
163
202
254
162
202
254
162
202
255
162
202
254
162
202
254
161
202
254
161
202
255
161
201
254
160
202
254
160
202
254
159
202
254
159
202
255
158
202
255
159
201
254
158
201
254
157
201
255
157
202
255
157
202
255
157
201
254
156
201
255
156
202
254
156
201
254
155
201
255
155
201
255
155
201
255
155
201
254
154
201
255
154
201
255
154
201
255
153
201
254
153
202
254
152
201
254
152
201
254
152
201
255
151
201
255
152
201
254
151
201
254
151
201
254
150
201
255
150
201
254
150
201
254
149
201
255
149
201
254
149
200
255
148
201
255
147
201
255
147
201
254
148
201
254
146
201
254
147
201
255
146
201
255
145
200
255
145
201
254
145
201
255
144
201
254
144
201
255
144
201
254
144
201
255
143
201
255
143
201
254
142
200
254
143
201
254
142
201
255
141
201
254
141
201
255
141
201
254
141
201
255
140
201
254
140
201
254
140
201
255
140
201
255
139
201
254
139
201
255
138
201
255
138
201
254
138
201
254
138
201
254
137
201
254
137
201
255
136
202
255
137
202
254
136
202
255
136
202
254
135
201
255
135
201
255
134
202
255
134
202
255
134
202
255
134
202
255
133
202
255
133
202
255
133
202
255
133
202
254
132
202
254
132
202
255
131
202
254
131
202
255
131
202
254
130
202
255
130
202
255
130
202
255
129
202
254
129
203
254
129
203
255
128
202
255
128
203
255
128
202
255
127
203
254
127
203
254
127
203
255
127
202
254
127
202
254
126
203
255
126
203
254
126
203
254
125
203
254
126
203
254
125
203
255
126
203
254
125
203
254
125
203
254
124
203
255
125
203
254
124
203
254
124
203
255
124
204
254
124
203
254
124
203
255
123
204
254
123
203
254
123
203
254
123
204
255
123
204
255
122
203
254
123
203
254
123
204
255
122
203
254
122
204
255
122
203
255
122
203
255
122
204
254
121
204
254
121
204
254
121
204
254
121
204
255
120
204
254
121
204
255
120
204
254
119
204
254
119
204
254
119
204
255
120
204
254
119
204
254
119
204
255
119
204
254
118
204
255
118
205
255
119
205
255
118
205
254
118
204
254
117
205
255
118
205
254
117
205
255
117
205
255
117
205
255
117
205
254
117
205
254
116
205
255
117
205
254
116
205
254
116
205
255
116
206
254
116
206
254
116
205
254
115
206
254
115
206
255
115
206
254
114
206
255
114
206
254
114
205
254
114
206
255
113
206
254
114
206
255
113
206
254
113
206
255
113
206
255
113
206
254
113
206
254
113
206
255
112
207
255
112
207
254
112
206
254
112
206
255
112
206
254
111
207
255
111
207
254
112
206
254
111
207
255
111
207
254
111
207
255
110
207
254
110
207
254
110
207
255
109
208
255
109
208
254
110
207
255
109
208
254
109
207
255
109
207
254
109
207
255
108
208
255
109
208
255
108
208
255
108
208
255
107
208
254
108
208
254
108
208
255
108
208
255
107
208
254
107
208
254
107
209
254
107
209
255
106
208
254
106
208
254
106
208
255
106
209
255
106
208
254
106
208
255
105
209
255
105
209
254
105
209
254
105
209
255
104
210
254
105
209
255
104
209
255
104
210
254
104
209
254
104
210
255
103
209
255
103
210
255
104
210
255
103
210
254
103
210
254
103
210
254
103
210
255
102
210
255
102
210
254
101
210
254
101
210
255
102
210
255
102
211
254
101
211
255
101
210
254
101
211
254
101
211
255
101
210
254
100
211
255
100
211
255
100
211
254
99
211
255
99
212
255
100
211
255
99
212
255
99
211
254
99
212
255
98
212
254
98
212
254
98
212
254
98
211
254
98
212
254
97
212
254
98
212
254
97
212
255
98
213
254
97
212
255
96
213
255
97
212
255
96
212
254
96
213
255
96
212
255
96
213
255
96
213
254
95
213
254
96
213
254
95
213
254
95
213
254
94
213
254
95
214
255
94
214
254
94
214
254
94
214
254
94
214
254
94
214
254
93
214
254
94
214
254
94
214
255
93
215
255
93
214
254
92
215
254
92
215
254
93
214
254
92
215
254
92
215
255
91
215
254
92
215
255
92
216
254
91
215
255
91
215
255
91
216
255
91
215
254
91
216
255
91
216
254
90
216
255
90
216
255
90
216
254
89
216
255
90
216
255
89
217
254
89
217
255
89
217
254
88
216
254
88
217
254
88
217
255
89
217
255
88
217
254
88
217
255
87
218
254
87
217
254
87
217
255
87
218
254
87
218
255
87
218
255
87
218
255
86
218
254
87
218
254
86
218
254
86
218
254
85
218
254
86
218
254
85
218
255
85
218
255
85
219
254
85
219
254
84
219
255
85
219
254
84
220
254
84
219
255
84
220
254
83
220
254
83
219
254
84
220
254
83
220
254
82
220
254
83
219
254
82
220
254
82
220
255
82
220
254
82
221
255
82
220
254
81
221
254
82
221
254
81
221
255
81
221
254
81
221
254
81
221
254
81
221
254
81
221
254
80
221
254
80
221
254
80
222
254
79
221
255
79
222
254
80
222
254
79
223
254
79
223
254
79
222
254
79
222
254
78
223
254
78
223
254
78
223
255
78
223
255
77
223
254
78
223
255
77
224
254
77
224
254
77
224
254
77
223
254
76
224
255
76
224
255
76
224
254
76
225
254
76
225
254
75
224
254
76
225
254
75
225
254
75
225
254
75
225
255
74
225
254
75
225
254
74
226
255
74
225
254
74
226
254
73
226
254
73
226
254
74
226
255
73
226
255
73
226
254
73
226
255
73
226
254
73
227
254
72
226
254
72
227
255
72
227
255
71
227
254
71
227
254
71
227
255
71
227
254
71
227
254
71
227
254
70
227
254
71
228
254
71
228
255
70
228
254
70
229
255
69
228
254
69
228
254
69
229
254
70
229
254
69
229
255
68
229
255
69
229
255
68
230
254
68
230
255
68
229
255
68
230
255
68
230
254
67
230
254
68
231
254
67
231
254
67
231
254
67
230
254
67
231
254
66
231
254
66
231
255
66
231
254
66
231
254
65
231
254
65
231
255
66
232
255
66
232
255
65
231
254
65
232
254
65
232
254
65
233
254
64
232
254
65
233
254
64
232
254
63
233
255
64
233
254
64
233
254
64
234
255
63
233
254
63
233
255
62
233
255
63
234
254
63
234
254
62
234
254
62
234
254
62
234
254
62
234
254
61
234
254
62
235
254
61
235
254
60
235
254
61
235
254
61
235
255
61
236
254
60
236
254
60
236
254
59
236
254
60
236
255
59
237
255
59
236
254
59
237
254
59
237
254
59
237
254
58
237
254
59
238
254
58
237
254
58
238
255
58
237
254
58
237
254
58
238
254
57
239
254
57
238
254
56
238
254
57
238
254
57
238
254
57
239
254
56
239
254
56
240
254
56
239
254
55
239
254
55
240
254
55
239
254
55
240
254
55
240
254
55
240
255
55
240
254
54
241
254
54
241
254
54
241
254
53
241
254
53
241
254
53
241
254
54
242
254
53
241
254
53
242
254
53
242
254
52
242
255
53
242
255
53
242
255
52
242
254
51
243
254
52
242
254
51
243
254
51
243
254
51
243
255
51
243
254
51
244
254
50
244
255
51
244
254
50
244
254
50
244
254
50
245
254
50
245
254
49
245
254
49
245
254
49
246
254
49
245
254
49
245
254
48
245
254
48
246
254
48
246
254
48
247
254
48
247
254
47
246
254
48
247
255
47
247
254
47
247
254
47
247
254
46
247
254
47
247
254
47
248
254
46
248
254
46
248
255
46
248
254
46
248
254
45
249
254
46
249
254
45
249
254
45
249
254
45
249
255
45
249
254
44
250
254
44
250
254
44
249
255
44
250
254
43
250
254
44
251
254
43
250
254
43
251
254
43
251
254
43
251
254
43
251
254
43
252
254
42
251
254
42
251
254
42
251
254
41
252
255
41
253
254
42
253
254
41
252
254
41
253
254
41
253
254
41
254
254
40
253
255
41
253
254
40
254
255
40
254
254
40
254
254
39
254
254
40
254
254
39
254
253
39
254
253
39
254
253
39
255
253
38
255
252
38
254
252
38
254
253
37
254
252
38
254
252
38
254
252
37
254
252
38
255
252
37
255
252
37
254
251
37
254
251
37
254
250
36
255
250
36
254
250
36
255
250
36
255
250
35
254
250
35
254
250
35
255
250
35
254
249
34
254
249
35
254
249
34
254
248
35
255
248
34
254
248
34
254
248
34
254
248
34
254
248
33
254
247
34
254
247
33
254
247
33
254
247
33
255
247
33
254
246
32
254
247
32
254
246
32
254
246
32
254
246
31
254
245
31
254
246
31
255
245
31
254
245
31
254
245
30
254
245
31
254
245
30
254
244
31
254
244
30
254
244
29
255
244
30
254
243
29
254
243
29
254
243
29
254
243
29
254
243
29
254
242
29
254
242
28
254
242
28
254
241
28
254
242
28
254
242
28
254
241
28
254
241
27
254
241
27
254
241
27
254
240
26
254
240
27
254
240
26
254
239
26
254
239
26
254
239
26
254
239
26
254
239
26
254
239
25
254
238
25
254
239
25
254
238
25
254
238
25
254
238
25
254
237
24
254
237
24
254
237
23
254
237
23
254
237
23
254
236
24
254
236
23
254
236
23
254
236
22
254
236
23
254
235
23
254
236
22
254
235
22
254
235
22
254
235
22
255
234
22
254
234
21
254
234
22
254
234
21
254
233
21
254
233
20
254
233
20
254
233
20
254
232
20
254
232
20
254
232
19
254
232
20
254
231
19
255
232
19
254
231
19
254
231
18
254
231
18
254
231
18
254
231
18
254
230
18
254
230
18
254
229
17
254
230
18
254
229
18
254
229
17
254
229
17
254
229
17
254
228
17
255
229
17
254
228
16
255
228
16
254
227
16
254
227
16
254
228
16
254
227
15
254
227
16
254
226
15
254
226
15
255
226
15
254
226
15
254
226
14
254
225
14
254
225
14
254
224
14
254
224
14
254
225
14
254
224
14
254
224
12
254
224
13
254
224
13
254
223
12
254
224
12
254
223
12
254
223
12
254
222
12
254
222
11
254
221
11
254
221
11
254
221
11
255
221
11
254
221
11
254
221
11
254
220
10
254
220
10
255
221
10
254
220
10
254
220
9
254
219
9
254
219
9
254
219
9
254
218
9
254
218
9
254
218
9
254
218
8
254
218
8
254
218
8
254
218
8
254
217
7
254
216
8
254
217
7
254
216
7
255
217
7
254
216
7
254
216
6
254
216
6
254
215
7
254
215
6
254
214
6
254
215
5
254
214
6
254
214
6
254
214
5
254
213
4
254
213
4
254
213
4
254
213
4
254
213
5
254
213
4
254
212
4
254
211
4
254
211
3
254
212
3
254
211
3
254
211
3
254
210
3
254
210
2
254
210
3
254
210
2
254
209
2
254
210
2
254
209
1
254
208
2
254
209
2
254
209
1
254
208
1
254
208
0
254
208
0
254
207
0
254
207
0
254
207
0
254
206
0
254
207
1
254
206
1
254
206
0
254
205
1
254
205
1
254
205
1
254
205
1
254
205
1
254
204
2
254
204
2
254
203
2
254
204
1
254
203
2
254
203
2
254
203
3
254
202
3
254
202
3
254
201
3
254
202
3
254
201
3
254
201
3
254
201
4
254
200
4
254
200
3
254
200
4
254
199
4
254
199
4
254
199
4
254
199
4
254
199
4
254
198
4
254
198
5
254
198
5
254
198
4
254
198
5
254
197
5
254
197
6
254
197
6
254
196
6
254
196
6
254
196
6
254
196
6
254
196
7
254
195
6
254
195
6
254
195
6
254
194
7
254
194
7
254
194
7
254
193
7
254
193
7
254
193
7
254
192
8
254
192
8
254
192
7
254
192
8
254
192
8
254
191
9
254
192
8
254
191
9
254
191
8
254
190
9
255
190
9
254
190
9
254
190
9
254
189
10
254
189
9
254
189
9
254
189
10
254
188
10
254
188
10
254
188
10
254
187
10
254
187
11
254
187
11
254
187
10
254
187
11
254
187
11
254
186
11
254
186
12
254
185
12
254
185
11
254
185
12
254
185
12
254
185
12
254
184
12
254
184
12
254
184
12
254
184
12
254
184
13
255
183
13
254
182
13
254
183
13
254
183
13
254
182
14
254
182
14
254
182
14
254
182
13
254
181
14
254
180
14
254
180
14
254
181
15
254
180
14
254
180
15
254
180
15
254
180
15
254
179
15
254
179
15
254
178
15
254
179
16
254
178
16
254
178
15
254
178
16
255
177
16
254
178
16
254
177
16
254
177
16
254
177
16
254
176
16
255
176
17
254
176
17
254
175
17
254
176
17
254
175
17
254
175
17
254
175
18
254
174
18
254
175
18
254
174
18
254
174
18
254
174
18
254
174
19
254
173
19
254
173
19
254
172
18
254
173
19
254
172
20
254
172
19
254
172
19
254
171
20
255
171
20
254
171
20
254
170
20
254
170
21
254
170
20
254
170
21
254
170
20
254
170
21
254
170
21
254
169
21
254
169
21
254
169
21
255
169
21
255
168
22
254
168
22
254
168
22
254
168
22
254
168
22
254
167
22
254
168
22
254
167
22
254
167
23
254
167
23
254
167
23
254
166
23
255
165
23
254
166
23
254
166
23
254
165
23
254
165
23
254
165
24
254
164
24
254
164
24
254
165
24
254
164
25
254
164
25
254
163
24
254
163
25
254
163
25
254
163
25
254
162
25
254
163
25
254
162
26
254
162
26
254
161
26
254
162
26
254
162
27
254
161
26
255
160
26
254
160
26
254
161
27
254
160
27
254
160
27
254
160
27
254
159
27
255
159
28
254
160
27
254
159
27
254
158
28
255
159
28
254
159
28
254
158
28
254
158
29
254
157
28
254
158
28
254
157
29
254
157
29
254
157
29
254
156
30
255
157
29
255
156
30
254
156
30
254
156
30
254
156
30
254
156
30
255
156
30
254
156
30
254
155
31
254
155
30
254
155
30
254
155
30
254
154
31
254
154
31
254
154
31
254
154
32
254
153
31
254
153
32
254
153
32
254
153
32
254
152
33
255
152
33
254
152
32
254
151
32
254
152
33
255
151
32
254
151
33
254
151
33
254
151
33
255
151
34
254
151
33
254
151
34
254
150
34
254
150
33
254
150
34
254
150
34
254
149
34
255
149
34
254
149
35
254
148
34
254
149
35
254
148
35
254
149
35
254
148
35
255
148
36
254
148
36
254
147
36
254
147
36
254
148
36
254
147
36
254
147
37
254
147
36
255
146
37
255
146
36
254
146
37
254
146
37
254
145
37
254
145
37
254
145
37
254
145
38
254
145
37
254
145
37
254
144
38
255
144
38
254
144
39
255
144
39
254
143
39
254
144
38
254
143
39
254
143
39
254
143
39
254
143
39
254
142
39
254
142
40
254
142
39
254
142
40
254
142
39
254
142
40
255
142
40
254
142
41
254
141
40
254
141
41
254
141
40
255
141
41
254
141
41
254
140
41
255
140
42
254
140
42
255
140
41
254
140
41
254
139
42
255
139
42
254
139
42
254
139
43
255
139
42
254
139
43
255
139
43
254
138
43
254
138
43
254
138
43
254
137
43
254
138
43
254
138
43
254
138
44
254
137
43
255
137
44
254
136
44
255
136
45
254
137
44
254
136
45
254
136
44
254
136
44
254
136
45
254
135
45
255
135
45
254
136
45
254
135
45
254
135
46
254
134
45
255
135
46
254
134
46
254
134
46
254
134
46
254
134
46
254
133
47
254
134
46
254
133
47
254
133
47
255
133
47
254
132
47
254
132
47
254
133
47
254
132
48
254
133
48
254
132
48
254
131
48
254
132
49
254
132
49
254
131
48
254
132
48
254
131
49
254
131
48
254
131
49
254
130
49
254
130
49
254
131
49
254
130
50
254
130
49
254
129
49
254
129
50
254
130
50
254
129
50
255
130
50
254
129
50
254
128
51
254
129
51
255
128
51
254
129
51
254
128
52
254
128
52
254
128
52
255
128
52
254
128
52
255
127
52
254
128
52
255
127
52
254
127
52
254
127
52
254
127
53
254
127
53
254
126
53
254
127
53
254
126
53
254
126
54
254
126
54
254
125
53
254
125
53
254
126
53
254
125
54
254
125
54
254
125
55
254
125
55
255
125
55
254
125
55
255
124
55
255
124
55
254
124
55
254
124
55
254
124
55
254
124
55
254
123
55
254
124
55
254
123
56
254
123
56
254
123
56
254
123
56
255
122
57
254
122
56
254
122
57
254
122
57
255
122
57
254
122
57
255
122
57
254
122
57
254
122
57
254
121
58
254
121
58
254
121
58
254
121
59
255
121
59
254
121
59
254
121
58
255
120
59
254
120
59
254
120
59
254
121
59
254
120
59
254
120
60
254
120
60
254
119
59
254
119
60
254
119
60
254
119
60
254
119
60
254
119
61
254
119
60
254
119
61
255
118
61
255
118
61
254
118
61
254
118
61
254
118
61
254
118
62
255
118
62
255
117
62
254
118
62
254
118
62
255
117
62
254
117
62
254
117
62
254
117
62
254
116
63
255
117
63
255
116
63
254
116
63
254
116
63
255
116
64
254
116
64
254
115
64
254
116
64
254
116
64
254
115
64
254
116
64
254
115
64
255
115
65
254
115
65
254
115
65
254
115
65
254
114
65
254
114
66
254
114
65
254
114
65
254
114
65
254
114
66
254
114
66
254
114
66
255
113
66
254
114
67
254
113
66
255
113
66
254
113
66
255
113
67
254
113
67
255
113
67
254
113
67
254
112
68
254
113
67
254
112
68
255
113
68
255
112
68
254
112
68
255
111
69
254
111
69
254
112
69
255
111
68
254
112
68
254
112
69
255
112
69
254
111
69
255
111
69
254
111
69
254
111
69
255
110
70
254
111
70
254
111
70
254
111
70
255
110
70
255
110
70
254
110
71
254
110
71
255
109
71
254
110
71
255
110
71
254
109
72
254
110
72
255
109
72
255
109
72
255
109
72
254
109
72
254
109
72
254
109
73
254
109
72
254
109
73
254
108
73
255
108
73
254
108
73
254
108
73
254
108
74
255
108
74
254
108
73
254
108
74
254
108
73
254
108
74
254
107
74
255
108
74
255
108
74
254
107
74
255
107
75
254
107
75
254
107
75
255
107
75
254
107
75
254
107
75
255
106
75
254
107
75
254
107
76
255
106
76
254
106
76
254
106
76
254
105
76
254
106
76
254
106
76
254
106
77
254
105
77
254
105
77
254
105
77
254
105
77
254
105
77
255
105
77
254
105
77
255
105
78
254
105
78
255
104
78
255
104
78
254
104
79
255
104
79
255
105
79
254
104
78
254
104
79
254
104
79
254
104
79
254
104
79
254
104
79
255
104
80
255
104
80
255
103
80
254
103
80
255
103
80
255
103
81
255
103
80
254
103
80
254
103
81
255
103
81
254
103
81
255
103
81
254
103
81
254
102
81
255
103
82
254
102
81
254
102
82
254
102
82
255
102
82
255
103
83
254
102
83
255
102
83
254
102
82
254
102
83
254
101
83
254
101
83
255
101
83
255
102
84
254
101
84
255
101
83
255
102
84
254
101
84
255
101
84
254
102
85
255
101
85
254
101
85
255
101
84
255
101
85
254
101
85
254
100
86
254
101
85
255
100
85
255
100
86
255
100
86
254
100
86
254
100
86
255
100
86
255
100
86
255
100
86
255
100
86
254
100
86
254
100
87
254
99
87
254
99
87
254
100
87
254
99
87
254
99
88
254
99
88
255
99
87
254
99
88
254
99
88
254
99
88
254
99
88
255
99
88
255
99
88
255
98
89
255
99
89
255
99
89
255
99
90
254
99
89
254
98
89
254
99
89
255
99
89
255
98
90
255
98
90
254
98
90
255
98
90
254
98
90
255
98
90
254
98
90
255
98
91
255
98
91
254
98
91
254
98
91
255
98
92
255
98
91
255
98
92
255
97
92
255
97
91
254
97
92
254
97
93
254
97
93
255
97
93
254
98
93
254
97
93
255
97
93
254
97
93
254
97
94
254
97
93
255
97
93
254
97
93
255
97
94
255
96
93
254
97
93
255
96
94
255
97
94
254
96
95
254
97
94
255
97
95
255
96
95
254
97
95
254
96
95
255
96
95
255
96
96
255
96
95
254
96
96
255
96
96
255
96
96
254
96
96
254
96
97
255
96
97
255
96
97
255
97
97
255
97
98
254
97
99
255
97
98
254
97
99
255
97
99
255
97
100
254
97
100
255
98
100
255
98
100
255
98
101
255
98
101
254
99
101
254
98
102
254
99
102
254
99
103
255
99
103
255
99
103
254
99
103
254
100
103
255
99
104
255
100
104
254
100
105
254
100
105
255
100
106
255
100
105
255
100
106
255
101
106
254
100
106
254
101
106
254
101
107
254
101
107
254
101
108
255
101
108
254
102
108
254
101
109
255
101
109
254
102
109
255
102
110
254
102
110
255
102
111
255
102
110
255
103
111
255
103
111
255
103
111
254
103
111
254
103
113
255
103
112
254
103
112
255
104
113
255
104
113
255
103
114
255
103
114
254
104
114
254
104
114
254
104
115
254
104
116
254
104
116
254
104
116
254
104
116
254
105
116
254
105
117
255
105
117
255
106
118
254
105
117
254
105
118
255
105
119
255
106
119
255
106
119
254
106
119
255
106
119
254
106
120
255
106
120
255
106
120
254
107
120
255
107
121
254
108
122
255
108
123
255
108
123
255
109
124
255
109
125
254
110
126
254
110
126
254
110
127
255
110
127
254
110
128
254
111
129
255
111
129
254
111
131
254
112
131
254
112
132
255
113
132
255
113
133
254
113
134
254
113
134
255
113
135
254
114
136
254
114
136
255
114
137
254
114
137
255
116
139
255
115
139
255
116
140
254
116
140
254
117
141
254
117
142
255
117
142
254
117
143
254
118
143
255
118
144
255
118
144
255
119
145
255
119
146
254
119
146
254
120
147
254
120
148
255
121
148
254
120
149
254
121
150
255
121
150
254
122
151
254
122
151
255
122
152
254
122
153
255
123
153
255
123
154
255
123
155
254
124
155
254
125
156
255
125
156
254
125
157
255
126
158
254
125
158
254
125
158
255
126
159
254
126
160
254
127
160
254
127
160
255
127
161
255
128
162
254
128
162
255
129
163
255
128
163
254
129
165
255
130
165
255
130
166
255
130
166
255
130
167
255
130
167
255
131
167
254
131
168
254
131
169
255
132
169
254
132
170
254
133
170
255
132
170
255
133
172
254
133
172
255
133
173
254
134
173
255
134
173
254
134
174
255
135
174
255
135
176
255
136
175
255
136
176
254
137
177
254
136
178
255
137
178
255
138
178
254
138
179
255
138
179
254
138
180
255
139
180
255
139
181
255
139
181
255
140
182
255
140
182
255
140
183
254
141
184
255
141
184
254
141
185
255
141
185
255
141
186
254
142
186
255
142
187
255
143
187
255
143
188
255
143
188
255
143
189
255
144
189
254
145
189
255
144
190
255
145
190
254
145
191
255
145
192
255
145
192
254
146
192
255
146
193
255
146
193
254
147
194
254
147
194
255
148
195
255
148
195
255
148
196
255
148
196
255
149
197
255
150
197
254
149
198
255
150
198
255
151
199
255
150
199
255
151
200
255
151
200
255
152
200
255
152
200
255
153
201
254
153
202
254
153
202
255
153
202
255
154
203
255
154
204
254
154
204
255
155
204
254
155
205
255
155
205
255
155
206
255
155
206
255
156
206
255
156
207
254
157
207
255
157
208
255
157
208
255
157
208
255
158
208
254
158
209
255
158
210
255
158
210
254
159
210
255
159
211
255
160
212
255
160
212
255
160
212
255
161
212
255
161
213
254
161
214
255
161
214
255
162
214
255
162
214
255
162
215
254
163
215
255
163
216
255
164
216
255
164
216
255
164
217
255
164
217
255
165
218
255
165
218
255
166
218
255
166
219
255
166
219
255
167
220
255
167
220
255
167
220
255
167
221
255
168
221
255
168
221
254
169
221
255
169
222
255
169
222
254
169
223
255
170
222
254
170
223
255
171
224
255
171
224
255
171
224
255
172
225
255
172
225
255
172
226
255
172
226
255
173
226
255
173
227
255
173
227
255
173
227
255
174
227
255
174
228
255
174
228
255
174
228
255
175
229
255
176
229
255
175
229
255
176
230
255
176
230
255
177
230
255
177
230
255
177
231
255
177
231
255
178
232
255
178
232
254
179
232
255
179
233
255
179
233
255
180
233
255
180
233
255
180
233
254
180
234
255
181
234
254
182
234
255
182
234
255
182
235
255
182
235
255
182
235
255
183
236
255
183
236
255
184
237
255
184
237
254
184
237
255
184
237
255
185
238
255
185
238
255
185
238
254
185
239
255
186
239
255
186
239
255
186
239
254
187
239
255
187
240
255
188
240
255
188
240
254
188
241
255
188
241
254
189
241
255
189
242
254
189
242
255
189
242
255
190
241
255
191
242
254
191
242
255
191
243
255
191
243
255
192
243
255
192
244
255
192
243
255
192
244
255
193
244
255
193
244
255
193
244
255
194
244
255
194
244
255
195
245
254
195
245
255
195
245
255
196
245
255
196
246
255
196
246
255
197
246
255
196
246
255
197
247
255
197
247
255
198
248
255
198
247
255
198
248
255
198
247
255
199
247
255
199
248
254
200
249
255
200
249
255
200
248
255
201
249
255
201
249
255
201
249
255
201
250
255
202
250
255
202
249
255
203
249
255
203
250
255
204
250
255
203
250
255
204
251
255
204
250
255
205
251
255
204
251
255
205
251
255
205
251
255
206
252
255
206
252
255
206
252
255
207
252
255
207
252
255
207
253
255
207
252
255
208
252
255
209
253
255
208
253
255
209
253
255
209
253
255
209
253
255
209
253
255
210
254
255
210
254
255
211
253
255
211
254
255
212
254
255
211
254
255
212
254
255
213
254
255
212
254
255
213
254
255
214
255
255
214
255
255
214
255
255
