P3
# CREATOR: GIMP PNM Filter Version 1.1
1024 1
255
1
1
1
1
2
2
3
2
2
3
3
3
3
4
3
5
5
4
5
5
5
6
6
6
6
6
6
7
7
7
8
8
8
9
9
9
9
9
9
10
10
9
11
11
11
12
11
11
12
12
12
12
13
13
14
13
13
14
14
14
15
15
14
16
15
15
16
16
16
17
16
16
18
17
18
18
18
18
19
19
18
20
20
20
20
21
20
21
21
21
22
22
22
22
22
22
23
22
23
23
23
24
24
25
24
25
25
25
26
26
25
26
26
27
27
27
27
27
28
28
28
28
29
29
29
29
30
30
30
30
31
31
32
31
31
32
31
32
32
33
32
33
33
33
33
34
34
34
35
35
36
36
35
36
35
36
36
36
36
37
37
37
38
38
38
39
38
39
39
39
39
40
40
40
41
41
41
41
41
41
42
42
42
42
42
43
43
44
44
44
45
44
45
45
45
45
45
46
47
46
46
47
46
47
48
48
48
49
49
48
49
49
49
50
50
50
50
50
50
51
51
51
52
52
51
52
53
52
53
53
53
53
54
54
54
55
55
55
55
55
56
56
55
56
56
57
57
57
57
58
58
57
59
58
59
59
59
59
59
60
60
61
60
60
61
61
61
62
62
61
62
63
63
64
63
63
64
64
64
65
65
65
65
66
65
66
66
66
66
67
67
68
67
68
69
69
68
69
69
69
69
69
69
70
70
71
70
71
70
72
72
71
72
73
72
72
73
73
73
73
73
74
74
74
75
75
75
76
76
76
77
77
76
77
77
77
77
78
78
78
78
78
79
79
79
80
80
80
80
80
80
81
81
81
82
82
82
82
82
82
83
84
84
84
83
84
84
85
85
85
86
86
86
86
86
87
87
87
87
87
87
88
88
88
88
89
89
89
90
89
90
90
90
91
91
91
92
91
91
93
92
92
93
92
93
94
93
93
95
94
94
95
95
95
96
96
95
96
96
97
97
97
97
98
97
98
98
98
98
99
98
99
99
99
100
101
100
100
101
101
101
102
101
102
103
103
102
103
103
103
103
104
104
104
105
105
105
106
106
105
106
106
107
106
106
108
107
107
108
108
108
109
109
108
109
109
110
110
110
110
110
110
110
112
112
111
111
112
112
112
112
112
113
113
114
114
114
114
115
115
114
115
115
115
116
117
116
117
117
117
117
117
118
118
118
119
118
119
119
120
119
119
120
120
120
121
121
121
122
122
121
122
122
122
123
123
123
123
124
124
125
124
125
125
125
125
125
126
126
126
126
126
126
126
127
127
127
127
127
128
127
128
128
128
129
128
129
129
129
129
129
130
129
130
130
131
131
130
131
132
131
132
132
132
132
133
133
133
133
133
133
134
134
134
134
134
134
135
135
135
135
135
135
136
135
136
136
137
136
137
137
137
138
137
138
138
138
138
139
139
138
139
139
139
139
140
140
140
140
140
140
141
141
141
141
141
142
142
141
142
142
143
143
142
143
144
143
144
144
144
144
145
144
144
145
145
145
146
145
145
146
147
146
147
147
147
147
147
147
148
148
148
148
148
148
149
149
149
150
149
149
150
150
150
151
150
151
151
151
151
152
152
152
152
152
152
153
153
153
153
153
154
154
154
154
155
154
154
155
155
155
156
155
156
156
156
156
156
157
156
157
157
157
157
157
157
158
158
159
159
159
159
160
159
159
160
160
160
161
161
160
161
161
161
161
161
162
162
162
162
162
163
163
163
163
163
163
163
164
164
164
164
164
165
165
165
165
165
166
166
166
166
166
166
167
167
167
168
168
168
168
168
168
168
168
169
169
169
169
169
170
169
170
170
170
171
171
170
171
171
171
172
172
171
172
172
173
173
173
173
174
173
173
174
174
174
175
174
174
175
175
175
175
175
175
176
177
176
177
177
177
178
177
177
178
178
178
178
178
178
179
179
179
180
179
179
180
180
180
181
180
181
181
181
181
182
182
182
182
182
182
182
183
183
183
184
183
184
183
184
185
185
184
185
185
185
186
185
185
186
186
186
186
186
186
187
187
187
187
188
188
188
188
188
189
189
189
190
189
189
190
190
190
191
191
191
191
191
191
191
191
191
192
192
192
192
192
193
193
193
193
194
193
194
195
194
194
195
195
195
195
196
195
196
196
195
197
197
196
197
196
197
198
197
197
198
198
198
198
199
198
199
199
199
199
200
199
200
201
200
201
200
201
201
201
201
201
201
202
202
202
203
203
203
203
203
203
204
204
204
204
205
204
205
205
205
206
205
205
206
206
206
206
207
206
207
207
207
207
208
208
207
209
209
208
209
209
208
209
210
210
210
210
210
211
210
210
211
211
211
212
212
211
212
212
212
212
213
213
214
213
213
214
214
214
215
215
215
215
215
214
215
215
215
216
216
216
217
216
216
217
217
217
217
218
218
218
218
218
219
219
218
219
219
220
220
219
220
220
221
220
221
221
221
221
222
221
222
222
222
223
222
223
223
223
223
223
223
224
224
224
224
225
225
225
225
225
225
226
225
226
226
227
227
227
227
227
227
227
228
228
228
228
228
228
229
229
229
229
230
229
229
230
230
230
231
231
231
231
232
231
232
232
232
232
232
233
233
233
232
233
234
233
234
234
234
235
235
234
235
236
236
235
235
236
236
236
237
236
236
236
237
238
238
237
238
237
239
238
238
239
238
239
240
240
239
240
240
240
241
241
240
241
241
241
242
242
242
242
243
242
243
242
243
243
243
243
244
244
244
244
245
245
245
245
245
246
246
245
246
246
246
246
247
246
247
247
248
247
247
248
248
248
249
249
248
249
249
249
249
249
248
248
250
247
247
249
246
247
249
247
247
249
246
246
249
245
245
249
244
245
249
243
244
250
244
243
249
243
243
250
242
242
250
242
242
250
241
241
249
240
241
250
240
240
250
239
239
249
239
238
250
237
238
250
237
237
250
237
237
250
236
235
250
235
235
250
235
235
249
234
234
249
233
233
250
233
233
250
232
232
250
231
232
250
231
231
250
231
231
250
229
229
250
229
229
250
228
228
250
228
228
250
227
227
250
226
227
250
226
226
250
225
225
250
225
224
250
224
224
250
223
224
250
223
223
251
222
222
250
222
222
250
221
221
250
221
220
251
219
219
250
219
219
251
219
219
250
218
218
251
217
217
250
217
217
250
216
216
250
216
215
251
215
215
251
214
214
251
213
214
251
213
213
251
212
212
251
212
212
251
212
211
251
210
211
251
210
209
251
209
210
251
208
208
251
208
208
251
208
208
251
207
207
251
206
206
251
206
206
252
205
205
251
205
204
251
204
204
251
204
203
251
203
203
252
202
202
252
202
201
251
201
201
251
200
200
251
200
200
251
199
199
252
198
198
251
197
197
252
197
197
252
196
196
252
196
195
252
195
195
252
195
195
252
193
194
251
194
193
252
193
193
252
192
192
252
192
191
251
191
191
252
190
190
252
190
190
252
189
189
252
189
189
252
188
188
252
187
187
252
187
187
252
186
186
253
186
186
252
185
185
252
184
185
253
184
184
252
184
183
253
182
183
252
183
182
253
182
182
252
181
181
252
181
180
252
180
179
253
180
179
253
178
179
252
179
178
252
177
178
253
177
178
252
176
176
253
176
176
252
175
176
253
175
175
253
174
175
253
174
174
253
173
173
253
173
172
253
172
172
253
172
172
253
171
171
253
170
170
253
170
170
253
169
169
253
168
169
253
169
169
253
167
167
253
167
167
253
166
167
253
166
166
253
166
165
253
165
165
253
165
164
253
164
164
253
163
164
253
162
163
253
162
162
253
162
162
253
161
161
253
161
160
254
160
160
253
159
160
254
159
159
253
158
158
253
158
157
253
158
157
253
156
157
254
156
156
254
155
155
254
155
155
253
155
155
254
154
154
253
154
154
254
153
153
254
152
152
254
152
152
254
150
151
254
150
150
254
150
150
254
149
150
254
149
148
254
149
148
254
148
148
254
147
147
254
147
146
254
146
146
254
145
145
254
145
145
254
145
144
254
143
144
254
143
143
254
143
143
254
142
142
254
142
141
254
141
141
254
140
140
255
140
139
255
139
139
255
139
139
255
138
138
255
137
137
255
137
137
254
136
136
255
136
136
255
135
135
255
135
135
255
134
134
254
134
134
255
133
133
255
133
133
255
132
132
254
131
131
254
131
131
254
130
130
255
130
130
255
130
129
255
129
129
255
128
128
255
128
127
255
126
127
255
126
126
255
126
125
255
125
125
255
124
124
255
124
124
255
123
122
255
122
122
255
122
121
255
120
121
255
120
120
255
119
120
255
119
119
255
118
118
255
117
117
255
116
117
255
116
116
255
115
115
255
114
115
255
113
114
255
113
113
255
112
112
255
112
111
255
111
111
255
111
110
255
109
110
255
108
109
255
108
108
255
107
107
255
107
106
255
106
106
255
105
106
255
104
105
255
104
104
255
103
103
255
103
103
255
102
102
255
102
101
255
101
101
255
100
100
255
99
99
255
98
98
255
98
97
255
97
97
255
96
97
255
95
96
255
95
95
255
94
94
255
94
94
255
93
93
255
93
93
255
92
92
255
91
91
255
90
91
255
89
89
255
89
89
255
88
88
255
88
87
255
87
87
255
86
86
255
85
85
255
85
85
255
84
84
255
83
83
255
83
83
255
82
82
255
82
81
255
81
80
255
80
80
255
79
79
255
78
78
255
78
78
255
77
77
255
76
76
255
76
76
255
75
75
255
74
74
255
74
74
255
73
73
255
73
72
255
72
72
255
71
71
255
70
70
255
70
70
255
69
69
255
68
68
255
67
67
255
67
67
255
66
66
255
65
65
255
64
64
255
64
64
255
63
63
255
62
61
255
60
60
255
59
59
255
57
57
255
56
56
255
54
54
255
53
53
255
52
52
255
50
50
255
49
49
255
48
47
255
46
45
255
44
44
255
43
43
255
41
42
255
40
40
255
39
39
255
38
37
255
36
36
255
34
35
255
33
34
255
32
32
255
30
31
255
29
29
255
27
27
255
26
26
255
24
24
255
23
23
255
22
22
255
20
21
255
19
20
255
18
18
255
16
16
255
15
15
255
14
14
255
12
12
255
11
11
255
9
9
255
8
8
255
7
7
255
5
5
255
4
4
255
2
2
255
1
0
255
0
1
255
2
1
255
3
1
255
4
2
255
5
3
255
6
3
255
8
3
255
9
4
255
10
4
255
12
5
255
13
6
255
14
6
255
15
6
255
17
7
255
18
8
255
19
9
255
20
9
255
21
10
255
22
10
255
24
10
255
26
11
255
27
11
255
28
11
255
29
12
255
30
13
255
32
13
255
33
14
255
33
15
255
35
15
255
36
16
255
37
16
255
38
17
255
40
17
255
42
18
255
42
18
255
44
18
255
45
19
255
47
19
255
47
20
255
49
21
255
50
21
255
51
22
255
52
23
255
53
23
255
55
23
255
56
24
255
57
25
255
58
25
255
60
25
255
61
26
255
62
26
255
63
27
255
65
28
255
66
29
255
67
29
255
69
29
255
70
30
255
71
30
255
72
30
255
74
32
255
75
31
255
76
33
255
77
33
255
78
33
255
80
34
255
81
35
255
82
35
255
83
36
255
85
36
255
86
37
255
87
37
255
89
37
255
89
39
255
91
39
255
92
40
255
93
40
255
94
40
255
95
41
255
97
41
255
98
42
255
99
42
255
100
43
255
102
43
255
103
44
255
104
45
255
106
46
255
107
46
255
108
47
255
109
47
255
110
47
255
112
48
255
112
49
255
114
49
255
115
49
255
116
50
255
118
50
255
119
51
255
120
52
255
122
52
255
122
53
255
124
53
255
125
54
255
126
54
255
126
54
255
127
55
255
128
55
255
129
55
255
129
55
255
131
56
255
130
56
255
131
57
255
132
57
255
133
57
255
134
57
255
134
57
255
135
58
255
136
58
255
136
58
255
137
59
255
138
59
255
139
60
255
139
60
255
140
60
255
141
61
255
142
61
255
143
61
255
144
62
255
144
62
255
145
62
255
145
62
255
146
63
255
146
63
255
148
63
255
148
64
255
149
64
255
150
64
255
150
65
255
151
65
255
152
66
255
153
66
255
154
65
255
154
66
255
155
66
255
155
66
255
156
67
255
157
67
255
158
67
255
159
68
255
159
68
255
160
69
255
160
69
255
162
70
255
163
69
255
163
70
255
164
70
255
165
71
255
165
71
255
166
71
255
166
71
255
167
72
255
168
72
255
169
72
255
169
73
255
170
73
255
171
73
255
172
73
255
173
74
255
174
74
255
174
74
255
175
74
255
175
75
255
176
75
255
177
76
255
177
76
255
178
77
255
180
77
255
180
77
255
181
77
255
181
77
255
182
78
255
183
78
255
183
78
255
184
79
255
185
79
255
186
79
255
186
80
255
187
81
255
188
81
255
188
81
255
189
81
255
190
81
255
191
82
255
191
82
255
192
82
255
193
83
255
194
83
255
194
83
255
195
84
255
196
83
255
197
84
255
197
84
255
198
85
255
198
85
255
200
85
255
200
85
255
200
86
255
201
86
255
203
87
255
203
87
255
203
87
255
205
88
255
205
88
255
206
88
255
206
88
255
208
89
255
208
89
255
209
90
255
209
90
255
210
90
255
211
91
255
212
91
255
212
91
255
213
91
255
214
92
255
215
92
255
216
92
255
216
93
255
217
93
255
218
93
255
218
94
255
219
94
255
219
94
255
221
95
255
221
95
255
222
95
255
222
95
255
223
96
255
225
96
255
225
97
255
226
97
255
226
97
255
227
98
255
228
97
255
229
98
255
229
98
255
230
98
255
230
99
255
232
99
255
232
100
255
233
99
255
234
100
255
234
101
255
235
101
255
236
102
255
237
102
255
238
102
255
238
102
255
239
103
255
240
103
255
240
103
255
241
103
255
242
103
255
242
104
255
244
104
255
244
104
255
244
105
255
245
106
255
246
105
255
247
106
255
248
106
