P3
# CREATOR: GIMP PNM Filter Version 1.1
1024 1
255
0
0
0
0
0
0
1
1
0
1
1
2
2
2
2
3
2
3
3
3
3
3
4
3
4
4
4
5
5
4
6
5
5
6
6
6
6
7
7
7
7
7
8
7
7
8
8
9
9
9
9
10
10
9
10
10
10
11
10
10
11
11
11
12
12
11
12
12
12
12
12
13
14
13
14
14
13
14
15
15
14
15
15
15
16
15
15
16
16
16
16
17
16
17
18
17
18
17
17
18
19
19
18
19
19
20
20
19
20
20
20
21
21
21
21
21
21
22
21
22
22
22
23
23
23
23
24
23
24
24
24
24
25
24
24
25
25
25
26
26
25
26
26
26
27
27
27
28
27
27
28
28
28
28
28
29
29
29
29
30
30
29
31
30
30
31
31
30
32
31
31
32
31
32
32
33
32
33
33
33
34
33
34
34
34
35
35
35
34
36
36
35
36
36
36
36
36
37
37
37
37
37
38
38
38
38
38
38
39
39
39
39
39
40
40
39
40
40
40
41
41
41
42
42
42
42
42
42
43
43
42
44
43
43
43
44
44
44
45
45
45
45
45
45
45
45
46
46
46
47
46
47
47
47
47
48
48
48
48
48
48
49
49
48
49
49
49
50
50
50
51
50
51
51
51
51
51
52
52
52
52
52
53
53
53
53
53
53
54
54
54
55
54
54
55
55
55
55
56
55
56
56
56
57
57
57
57
57
57
58
58
58
59
58
59
59
59
59
59
59
60
60
60
60
61
61
61
62
61
61
61
62
62
62
62
62
63
63
63
64
64
63
64
64
64
65
64
65
65
66
66
66
66
66
66
66
66
67
67
66
67
67
68
68
68
68
69
69
68
69
70
69
69
70
70
70
71
70
70
71
71
72
71
72
72
72
72
72
73
73
73
73
73
73
74
74
75
74
74
75
75
75
75
75
76
76
76
76
77
77
77
77
77
77
78
78
78
79
78
79
79
78
79
79
80
80
80
80
80
80
80
80
81
81
81
82
81
82
82
82
82
83
83
82
84
83
83
84
84
84
85
84
84
85
85
85
86
86
86
86
86
87
87
87
86
87
88
88
88
88
88
89
89
88
89
89
89
89
89
89
90
90
90
90
91
91
91
92
91
92
92
92
92
92
93
93
93
93
94
93
94
94
94
94
95
94
95
95
95
95
96
96
95
97
96
97
96
97
97
98
97
98
98
98
98
99
98
98
99
99
99
100
100
100
100
100
100
101
101
101
101
101
101
102
102
102
103
102
103
103
103
103
103
104
104
104
105
105
105
105
105
105
106
105
106
106
105
107
106
106
107
107
107
107
108
108
108
108
109
109
109
109
110
109
109
110
110
110
110
111
111
111
111
111
111
111
112
112
112
112
113
113
112
113
113
114
114
114
114
115
114
115
115
115
115
115
116
116
116
117
116
117
116
117
118
117
117
117
117
117
118
118
118
119
119
119
119
119
120
120
120
120
121
121
121
121
121
121
121
121
121
122
122
123
123
123
123
123
123
123
124
124
124
125
125
125
125
125
125
126
126
126
126
126
126
127
127
127
128
128
128
128
128
128
129
129
129
129
129
129
129
130
130
131
130
131
131
132
132
132
132
132
133
132
132
133
133
133
133
133
134
134
134
134
134
135
134
135
136
136
136
136
136
137
137
137
137
137
137
138
138
138
138
138
138
139
138
139
139
139
140
140
140
140
140
141
141
141
141
141
142
142
142
142
142
143
143
143
143
144
143
144
144
144
144
145
145
144
145
145
146
146
146
146
147
147
147
147
147
147
148
148
148
148
148
148
149
149
149
149
149
149
150
150
150
151
150
151
151
151
151
152
151
152
153
153
152
153
153
153
154
154
153
155
154
154
154
155
155
156
156
156
156
156
156
157
157
156
157
157
157
158
158
158
158
158
158
159
159
159
160
160
160
160
160
160
160
161
161
161
161
162
162
162
162
162
162
163
163
164
164
164
164
164
164
164
164
165
164
165
165
165
165
166
166
166
167
167
167
168
167
168
168
168
168
168
169
168
170
169
169
170
170
170
170
170
170
171
170
171
171
172
172
172
173
172
173
173
173
173
173
173
174
174
173
174
174
175
175
175
175
176
175
176
176
176
176
177
177
177
178
178
178
178
178
177
179
179
179
179
179
179
180
180
180
181
180
180
181
181
181
182
182
181
182
182
182
183
183
183
183
183
184
183
184
184
184
184
185
185
185
185
186
185
186
186
186
187
187
187
187
187
187
188
188
188
188
189
188
189
189
189
190
190
190
190
190
190
190
191
191
191
192
192
192
192
192
192
192
193
193
193
194
194
194
193
194
195
194
194
195
195
195
196
196
196
196
196
197
197
197
197
197
197
198
198
198
198
199
199
199
200
199
199
200
200
200
200
201
200
201
201
201
202
201
202
202
203
202
203
203
203
203
204
203
204
204
204
205
205
205
205
205
205
205
205
206
207
206
206
207
207
207
208
208
208
208
208
208
208
209
209
210
209
210
210
210
210
211
210
210
211
211
211
212
212
211
212
212
212
213
212
213
213
214
214
214
215
214
215
215
214
215
215
215
216
216
216
217
216
217
217
218
218
217
218
218
219
218
218
218
219
219
220
220
219
220
220
220
220
220
221
221
221
222
222
222
221
223
222
222
223
223
223
223
224
224
225
224
224
225
225
225
226
226
225
226
226
226
227
227
227
227
227
227
228
228
228
228
228
229
229
229
229
230
229
230
230
230
230
231
231
231
231
231
232
232
232
232
233
232
233
234
233
233
234
233
233
234
235
234
235
235
234
236
235
236
236
236
236
237
237
237
237
238
238
238
238
238
239
238
239
240
240
239
239
240
239
240
240
240
240
241
241
241
241
241
242
242
242
243
242
243
244
243
243
244
244
244
245
245
245
245
245
245
246
245
245
246
246
247
247
246
247
248
248
248
248
248
248
248
248
249
249
249
249
249
249
249
249
248
248
249
248
248
249
248
247
249
247
248
249
247
247
249
247
247
249
247
247
250
246
246
249
246
246
249
245
246
250
245
245
249
245
245
249
245
245
249
244
244
249
244
244
249
244
243
249
243
244
249
243
243
249
243
243
250
242
242
249
242
242
249
242
242
249
241
241
249
241
241
249
241
241
249
240
241
249
241
240
250
240
240
250
240
239
249
239
239
250
239
239
250
239
239
250
239
238
249
238
238
250
238
237
250
238
238
250
237
238
249
237
237
250
237
237
250
237
236
249
236
236
250
236
235
249
236
235
250
235
235
250
234
235
249
235
234
250
234
235
250
234
234
250
234
233
250
234
233
250
233
233
249
232
233
250
232
232
250
232
232
250
231
232
249
231
232
250
231
231
250
230
231
250
230
231
249
230
230
250
230
229
250
229
230
250
230
229
250
228
229
250
229
229
250
228
228
250
228
227
250
228
228
250
227
227
250
227
227
250
227
227
250
226
227
251
226
227
250
226
226
250
225
226
250
225
225
250
225
225
250
225
225
250
225
224
250
224
224
251
224
224
250
223
223
250
223
223
250
222
222
251
222
223
251
222
222
251
222
222
250
222
221
251
221
221
251
221
221
251
220
220
250
220
221
251
220
220
250
220
220
251
219
220
250
219
219
250
219
219
250
219
218
251
218
218
251
217
218
250
217
217
250
217
217
251
217
217
250
216
216
250
216
216
250
216
216
251
216
215
251
215
215
251
215
215
250
214
215
251
215
215
251
215
214
250
214
214
251
214
214
251
214
213
251
212
213
251
213
213
251
212
212
251
212
212
251
212
211
251
212
211
251
211
211
251
211
211
251
210
210
251
210
210
251
210
210
251
210
210
251
209
209
251
209
209
251
208
209
251
208
208
251
208
208
251
207
208
251
207
207
251
207
207
251
206
206
251
207
206
252
206
206
251
206
206
252
206
205
252
205
205
251
205
204
251
205
205
251
204
204
251
203
204
251
204
203
251
203
203
251
203
203
252
202
202
251
202
203
251
202
202
252
202
201
252
201
201
251
202
201
251
201
201
252
201
200
252
200
200
251
200
200
251
200
199
251
199
199
252
199
199
251
199
199
252
199
199
252
198
198
251
198
198
251
197
197
252
197
197
252
197
197
251
196
196
251
196
196
251
196
196
251
195
196
252
195
195
251
195
195
251
195
195
251
194
194
252
194
194
252
194
194
251
194
194
252
193
193
251
193
193
252
192
192
252
193
192
252
192
191
252
191
192
252
191
192
252
191
191
252
191
190
252
191
190
252
190
190
252
189
190
252
189
189
252
189
189
252
188
189
252
188
189
252
189
189
252
187
187
252
188
187
252
187
187
252
187
186
252
186
186
252
186
186
252
186
186
253
185
185
252
184
185
252
185
184
252
184
184
252
184
183
252
183
183
253
183
183
253
182
183
252
182
182
252
182
182
252
182
182
252
181
181
253
181
181
253
180
181
252
180
180
253
180
180
252
180
179
252
179
179
252
178
178
253
178
178
253
177
177
253
177
177
252
177
177
252
176
177
252
176
177
253
176
176
252
176
176
253
175
175
253
175
174
253
174
175
253
174
174
253
173
174
253
173
173
253
173
173
253
173
172
253
172
172
252
172
172
252
172
172
252
171
171
253
171
170
253
170
170
253
170
170
253
170
169
253
169
169
253
169
169
253
169
168
253
168
168
253
168
168
253
167
168
253
167
167
253
166
167
253
166
166
253
165
166
253
165
165
253
165
165
253
165
165
253
165
164
253
164
164
253
164
164
253
164
163
253
163
163
254
162
163
253
162
162
253
162
162
253
161
161
253
161
161
254
160
161
253
160
160
253
160
160
253
159
160
253
159
159
254
159
158
253
158
158
254
158
158
254
158
158
253
157
157
253
157
157
253
156
157
254
156
156
254
155
156
254
155
156
254
155
155
253
155
154
254
155
155
253
154
154
254
153
153
253
153
154
254
153
153
254
152
153
254
152
152
253
151
151
254
151
151
253
151
151
254
150
150
254
150
150
254
150
150
254
149
150
254
149
150
254
149
149
254
148
148
254
148
148
254
148
148
254
147
147
254
147
147
255
147
147
254
146
146
255
145
146
254
145
145
254
145
145
255
144
145
254
144
144
254
144
144
254
144
143
254
143
143
254
143
143
255
142
143
254
142
142
254
142
142
255
141
141
254
140
141
254
141
141
255
140
140
254
140
140
254
140
139
254
139
139
254
139
138
255
138
139
255
138
138
254
138
137
255
137
137
255
137
137
254
137
137
254
136
136
255
136
136
254
135
135
254
135
135
255
135
135
255
134
134
255
134
133
254
133
134
255
133
134
255
132
133
255
132
133
255
132
132
255
131
132
255
131
132
254
131
131
254
131
130
255
130
130
255
130
130
254
130
129
255
129
129
255
129
129
255
128
128
255
128
128
255
127
127
255
126
126
255
126
126
255
125
125
255
124
124
255
123
124
255
122
123
255
121
121
255
121
121
255
120
120
255
119
120
255
119
119
255
118
118
255
117
117
255
116
116
255
115
115
255
115
115
255
113
114
255
112
113
255
111
111
255
111
111
255
111
110
255
109
109
255
109
109
255
108
108
255
107
107
255
106
106
255
106
105
255
104
104
255
103
104
255
103
103
255
102
102
255
102
101
255
100
100
255
99
100
255
99
99
255
97
97
255
97
97
255
96
96
255
96
96
255
95
94
255
94
93
255
93
93
255
92
92
255
91
91
255
90
90
255
90
90
255
89
88
255
88
88
255
87
87
255
86
86
255
85
86
255
85
85
255
84
84
255
83
83
255
82
82
255
81
81
255
80
81
255
80
80
255
79
79
255
78
78
255
78
77
255
76
77
255
76
76
255
74
75
255
74
74
255
73
73
255
72
73
255
72
72
255
71
71
255
70
70
255
69
69
255
69
68
255
67
67
255
67
67
255
66
66
255
65
65
255
65
64
255
63
63
255
62
62
255
60
60
255
59
59
255
58
58
255
56
56
255
54
54
255
53
53
255
51
51
255
50
50
255
48
49
255
47
47
255
46
46
255
45
45
255
43
43
255
42
41
255
40
40
255
38
38
255
37
38
255
36
36
255
35
34
255
33
33
255
31
32
255
30
30
255
29
29
255
27
27
255
26
25
255
24
24
255
23
23
255
21
22
255
20
19
255
19
19
255
17
16
255
16
15
255
14
14
255
12
13
255
11
11
255
9
10
255
9
8
255
7
7
255
5
5
255
3
4
255
2
3
255
1
1
255
1
0
255
4
2
255
6
2
255
8
4
255
11
5
255
14
6
255
16
7
255
19
8
255
22
9
255
23
10
255
26
12
255
29
13
255
31
13
255
34
15
255
36
16
255
39
17
255
42
17
255
44
19
255
47
20
255
49
21
255
52
22
255
54
23
255
57
24
255
60
26
255
61
26
255
64
27
255
67
28
255
69
30
255
72
31
255
75
32
255
77
33
255
79
34
255
82
36
255
85
37
255
87
37
255
90
38
255
93
40
255
95
40
255
97
42
255
100
43
255
102
44
255
105
45
255
107
46
255
110
47
255
113
48
255
115
49
255
118
50
255
120
52
255
122
52
255
125
54
255
127
54
255
129
55
255
131
57
255
133
56
255
135
58
255
137
58
255
139
59
255
140
60
255
142
61
255
145
62
255
147
63
255
148
64
255
150
64
255
152
65
255
154
66
255
156
67
255
158
68
255
160
68
255
162
69
255
163
70
255
166
71
255
168
72
255
170
73
255
172
73
255
174
74
255
175
75
255
177
76
255
179
77
255
181
77
255
183
78
255
185
79
255
187
80
255
189
81
255
190
81
255
192
83
255
195
83
255
196
85
255
199
85
255
200
86
255
203
86
255
204
88
255
206
88
255
208
89
255
210
90
255
212
91
255
214
91
255
215
92
255
218
93
255
220
94
255
221
95
255
224
96
255
226
96
255
227
98
255
229
98
255
231
99
255
233
100
255
235
101
255
237
101
255
239
102
255
241
103
255
243
104
