P3
# Created by GIMP version 2.10.22 PNM plug-in
1024 1
255
50
39
127
53
42
134
53
42
134
53
42
135
53
43
138
53
43
138
53
43
138
53
44
139
53
45
141
53
45
141
53
45
141
53
45
142
53
46
144
53
46
144
53
46
144
53
46
145
53
48
147
53
48
147
53
48
147
53
48
147
54
49
150
54
49
150
54
49
150
54
49
150
54
51
153
54
51
153
54
51
153
54
52
154
54
52
156
54
52
156
54
52
156
54
53
157
54
54
159
54
54
159
54
54
159
54
54
160
53
55
162
53
55
162
53
55
162
53
56
163
53
57
165
53
57
165
53
57
165
53
58
166
53
59
169
53
59
169
53
59
169
53
59
170
53
60
172
53
60
172
53
60
172
53
61
173
52
62
175
52
62
175
52
62
175
52
62
176
51
63
178
51
63
178
51
63
178
51
63
179
50
65
181
50
65
181
50
65
181
50
65
182
50
67
185
50
67
185
50
67
185
50
67
185
48
68
188
48
68
188
48
68
188
48
68
188
47
70
191
47
70
191
47
70
191
47
70
191
45
72
194
45
72
194
45
72
194
45
72
194
43
74
197
43
74
197
43
74
197
42
74
199
41
75
201
41
75
201
41
75
201
40
76
202
38
78
204
38
78
204
38
78
204
37
79
205
35
80
207
35
80
207
35
80
207
34
81
208
32
82
210
32
82
210
32
82
210
31
83
211
28
84
213
28
84
213
28
84
213
27
84
213
24
86
215
24
86
215
24
86
215
23
86
216
20
88
218
20
88
218
20
88
218
19
88
218
16
91
220
16
91
220
16
91
220
16
91
220
13
92
221
13
92
221
13
92
221
13
92
221
10
94
222
10
94
222
10
94
222
10
94
222
7
96
223
7
96
223
7
96
223
7
96
223
4
98
224
4
98
224
4
98
224
4
98
224
2
99
224
2
99
224
2
99
224
2
99
224
2
100
224
2
100
224
2
100
224
2
100
224
2
102
225
2
102
225
2
102
225
2
102
225
1
103
225
1
103
225
1
103
225
1
103
225
1
104
224
1
104
224
1
104
224
1
104
224
2
105
224
2
105
224
2
105
224
2
105
224
3
107
224
3
107
224
3
107
224
3
107
224
3
108
224
3
108
224
3
108
224
3
108
224
4
109
223
4
109
223
4
109
223
4
109
223
5
110
223
5
110
223
5
110
223
5
110
223
6
111
222
6
111
222
6
111
222
6
111
222
7
112
222
7
112
222
7
112
222
7
112
222
8
113
222
8
113
222
8
113
222
8
113
222
9
114
221
9
114
221
9
114
221
9
114
221
11
115
221
11
115
221
11
115
221
11
115
221
12
116
220
12
116
220
12
116
220
12
116
220
13
117
220
13
117
220
13
117
220
13
117
220
13
118
219
13
118
219
13
118
219
13
118
219
14
119
219
14
119
219
14
119
219
14
119
219
15
120
218
15
120
218
15
120
218
15
120
218
16
121
217
16
121
217
16
121
217
16
121
217
16
122
217
16
122
217
16
122
217
16
122
217
17
123
216
17
123
216
17
123
216
17
123
216
18
123
216
18
123
216
18
123
216
18
123
216
18
124
215
18
124
215
18
124
215
18
124
215
18
125
215
18
125
215
18
125
215
18
125
215
19
126
214
19
126
214
19
126
214
19
126
214
19
127
214
19
127
214
19
127
214
19
127
214
19
128
213
19
128
213
19
128
213
19
128
213
19
129
213
19
129
213
19
129
213
19
129
213
20
130
212
20
130
212
20
130
212
20
130
212
20
131
212
20
131
212
20
131
212
20
131
212
20
132
211
20
132
211
20
132
211
20
132
211
19
133
211
19
133
211
19
133
211
19
133
211
19
135
211
19
135
211
19
135
211
19
135
211
19
136
210
19
136
210
19
136
210
19
136
210
18
137
210
18
137
210
18
137
210
18
137
210
18
138
210
18
138
210
18
138
210
18
138
210
17
139
210
17
139
210
17
139
210
17
139
210
16
140
210
16
140
210
16
140
210
16
140
210
16
142
210
16
142
210
92
23
126
93
23
126
93
23
126
93
23
126
94
23
127
94
23
127
94
23
127
94
23
127
96
24
127
96
24
127
96
24
127
96
24
127
97
24
127
97
24
127
97
24
127
97
24
127
99
25
127
99
25
127
99
25
127
99
25
127
100
26
128
101
26
128
101
26
128
101
26
128
101
26
128
102
26
128
102
26
128
102
26
128
104
27
128
104
27
128
104
27
128
104
27
128
105
28
128
105
28
128
105
28
128
105
28
128
107
28
128
107
28
128
107
28
128
107
28
128
108
29
128
108
29
128
108
29
128
108
29
128
109
30
129
110
30
129
110
30
129
110
30
129
110
30
129
111
30
129
111
30
129
111
30
129
113
31
129
113
31
129
113
31
129
113
31
129
115
31
129
115
31
129
115
31
129
115
31
129
116
32
129
116
32
129
116
32
129
116
32
129
117
33
129
118
33
129
118
33
129
118
33
129
119
33
129
119
33
129
119
33
129
119
33
129
120
33
129
121
34
129
121
34
129
121
34
129
122
34
129
122
34
129
122
34
129
122
34
129
124
35
129
124
35
129
124
35
129
124
35
129
126
36
129
126
36
129
126
36
129
126
36
129
127
36
129
127
36
129
127
36
129
127
36
129
128
36
129
129
37
129
129
37
129
129
37
129
130
37
129
130
37
129
130
37
129
130
37
129
132
38
129
132
38
129
132
38
129
132
38
129
133
38
129
133
38
129
133
38
129
133
38
129
135
39
129
135
39
129
135
39
129
135
39
129
136
40
129
137
40
129
137
40
129
137
40
129
137
40
129
138
40
129
138
40
129
138
40
129
140
41
128
140
41
128
140
41
128
140
41
128
141
41
128
141
41
128
141
41
128
141
41
128
143
42
128
143
42
128
143
42
128
143
42
128
144
42
128
145
42
128
145
42
128
145
42
128
146
43
128
146
43
128
146
43
128
146
43
128
147
43
128
148
43
128
148
43
128
148
43
128
149
44
128
149
44
128
149
44
128
149
44
128
151
44
127
151
44
127
151
44
127
151
44
127
153
45
127
153
45
127
153
45
127
153
45
127
154
45
127
154
45
127
154
45
127
154
45
127
155
45
127
156
46
127
156
46
127
156
46
127
157
46
127
158
46
126
158
46
126
158
46
126
159
47
126
159
47
126
159
47
126
159
47
126
161
47
126
161
47
126
161
47
126
161
47
126
162
48
126
162
48
126
162
48
126
162
48
126
163
48
125
164
48
125
164
48
125
164
48
125
165
48
125
166
49
125
166
49
125
166
49
125
166
49
125
167
49
125
167
49
125
167
49
125
169
50
124
169
50
124
169
50
124
169
50
124
171
51
124
171
51
124
171
51
124
171
51
124
172
51
123
172
51
123
172
51
123
172
51
123
173
52
123
174
52
123
174
52
123
174
52
123
175
52
123
176
52
123
176
52
123
176
52
123
177
53
122
177
53
122
177
53
122
177
53
122
179
53
122
179
53
122
179
53
122
179
53
122
181
54
121
181
54
121
181
54
121
181
54
121
182
54
121
182
54
121
182
54
121
182
54
121
183
55
120
184
55
120
184
55
120
184
55
120
184
55
120
185
55
120
185
55
120
185
55
120
187
56
119
187
56
119
187
56
119
187
56
119
189
57
119
189
57
119
189
57
119
189
57
119
190
57
118
190
57
118
190
57
118
190
57
118
191
58
117
192
58
117
192
58
117
192
58
117
193
58
117
194
58
117
194
58
117
194
58
117
194
58
117
195
59
116
195
59
116
195
59
116
197
60
116
197
60
116
197
60
116
197
60
116
198
60
115
198
60
115
198
60
115
198
60
115
199
61
114
200
61
114
200
61
114
200
61
114
201
62
114
202
62
114
202
62
114
202
62
114
202
62
114
203
62
113
203
62
113
203
62
113
203
62
113
205
63
112
205
63
112
205
63
112
206
64
112
206
64
112
206
64
112
206
64
112
208
65
111
208
65
111
208
65
111
208
65
111
209
66
110
209
66
110
209
66
110
209
66
110
210
66
109
211
66
109
211
66
109
211
66
109
211
66
109
212
67
109
212
67
109
212
67
109
212
67
109
214
68
108
214
68
108
214
68
108
215
69
107
215
69
107
215
69
107
215
69
107
217
70
106
217
70
106
217
70
106
217
70
106
218
71
105
218
71
105
218
71
105
218
71
105
219
71
105
220
72
105
220
72
105
220
72
105
220
72
105
221
73
104
221
73
104
221
73
104
221
73
104
222
74
103
222
74
103
222
74
103
224
75
102
224
75
102
224
75
102
224
75
102
225
76
102
225
76
102
225
76
102
225
76
102
226
77
101
226
77
101
226
77
101
226
77
101
227
77
101
228
78
100
228
78
100
228
78
100
228
79
100
229
80
99
229
80
99
229
80
99
230
81
98
230
81
98
230
81
98
230
81
98
231
82
98
231
82
98
231
82
98
231
82
98
232
83
97
232
84
97
232
84
97
232
84
97
233
85
96
234
85
96
234
85
96
234
85
96
234
85
96
235
86
96
235
86
96
235
86
96
235
86
96
236
88
95
236
88
95
236
88
95
237
89
95
237
89
95
237
89
95
237
89
95
238
91
94
238
91
94
238
91
94
238
91
94
238
92
93
238
93
93
238
93
93
238
93
93
238
93
93
239
94
93
239
94
93
239
94
93
239
95
93
240
96
93
240
96
93
240
96
93
240
96
93
241
97
92
241
97
92
241
97
92
242
99
92
242
99
92
242
99
92
242
99
92
243
101
92
243
101
92
243
101
92
243
101
92
243
102
91
243
103
91
243
103
91
243
103
91
243
103
91
244
104
91
244
104
91
244
104
91
244
105
91
245
106
91
245
106
91
245
106
91
245
106
91
245
108
91
245
108
91
245
108
91
246
110
91
246
110
91
246
110
91
246
110
91
246
111
91
246
112
91
246
112
91
246
112
91
247
113
91
247
113
91
247
113
91
247
113
91
247
114
91
247
115
92
247
115
92
247
115
92
247
115
92
248
117
92
248
117
92
248
117
92
248
117
92
248
119
92
248
119
92
248
119
92
249
121
92
249
121
92
249
121
92
249
121
92
249
122
93
249
123
93
249
123
93
249
123
93
249
124
93
249
125
93
249
125
93
249
125
93
249
126
93
250
127
94
250
127
94
250
127
94
250
127
94
250
128
94
250
128
94
250
128
94
250
130
95
250
130
95
250
130
95
250
130
95
251
132
96
251
132
96
251
132
96
251
132
96
251
133
96
251
134
96
251
134
96
251
134
96
251
135
96
251
136
97
251
136
97
251
136
97
251
137
97
251
138
98
251
138
98
251
138
98
251
138
98
252
140
99
252
140
99
252
140
99
252
142
99
252
142
99
252
142
99
252
142
99
252
143
100
252
144
100
252
144
100
252
144
100
252
145
101
252
146
101
252
146
101
252
146
101
252
146
101
252
147
102
252
147
102
252
147
102
252
147
102
253
149
103
253
149
103
253
149
103
253
149
103
253
151
104
253
151
104
253
151
104
253
153
105
253
153
105
253
153
105
253
153
105
253
154
106
253
155
106
253
155
106
253
155
106
253
156
107
253
157
107
253
157
107
253
157
107
253
158
107
253
159
108
253
159
108
253
159
108
253
159
108
253
161
110
253
161
110
253
161
110
253
161
110
253
162
111
253
162
111
253
162
111
253
164
112
253
164
112
253
164
112
253
164
112
254
165
113
254
166
113
254
166
113
254
166
113
254
167
114
254
168
115
254
168
115
254
168
115
254
169
115
254
170
116
254
170
116
254
170
116
254
170
116
254
172
117
254
172
117
254
172
117
254
172
117
254
174
118
254
174
118
254
174
118
254
175
120
254
175
120
254
175
120
254
175
120
254
176
121
254
177
121
254
177
121
254
177
121
254
178
122
254
179
123
254
179
123
254
179
123
254
180
123
254
181
124
254
181
124
254
181
124
254
181
124
254
183
125
254
183
125
254
183
125
254
183
125
254
185
127
254
185
127
254
185
127
254
186
128
254
187
128
254
187
128
254
187
128
254
188
129
254
188
130
254
188
130
254
188
130
254
189
130
254
190
131
254
190
131
254
190
131
254
190
131
254
192
133
254
192
133
254
192
133
254
192
133
254
194
134
254
194
134
254
194
134
254
196
136
254
196
136
254
196
136
254
196
136
254
197
137
254
198
137
254
198
137
254
198
137
254
198
138
254
199
139
254
199
139
254
199
139
254
200
140
254
201
141
254
201
141
254
201
141
254
201
141
254
203
142
254
203
142
254
203
142
254
203
142
253
205
144
253
205
144
253
205
144
253
207
146
253
207
146
253
207
146
253
207
146
253
208
147
253
209
147
253
209
147
253
209
147
253
209
148
253
210
149
253
210
149
253
210
149
253
211
150
253
212
151
253
212
151
253
212
151
253
212
151
253
214
152
253
214
152
253
214
152
253
214
152
253
216
154
253
216
154
253
216
154
253
217
155
253
218
156
253
218
156
253
218
156
253
219
157
253
220
157
253
220
157
253
220
157
253
220
158
253
221
159
253
221
159
253
221
159
253
221
159
253
223
161
253
223
161
253
223
161
253
223
161
253
225
163
253
225
163
253
225
163
253
225
163
252
227
165
252
227
165
252
227
165
252
228
166
252
229
166
252
229
166
252
229
166
252
230
167
252
230
168
252
230
168
252
230
168
252
231
169
252
232
170
252
232
170
252
232
170
252
232
170
252
234
172
252
234
172
252
234
172
252
234
172
252
236
174
252
236
174
252
236
174
252
236
174
252
238
176
252
238
176
252
238
176
252
239
177
252
240
177
252
240
177
252
240
177
252
240
178
252
241
179
252
241
179
252
241
179
252
242
180
252
243
181
252
243
181
252
243
181
252
243
181
252
245
183
252
245
183
252
245
183
252
245
183
251
247
185
251
247
185
251
247
185
251
248
186
251
249
187
251
249
187
251
249
187
251
250
188
251
250
189
