P3
# CREATOR: The GIMP's PNM Filter Version 1.0
1024 1
255
0
0
255
0
0
255
0
0
255
0
0
254
1
1
253
1
1
253
2
2
252
2
2
252
3
3
251
3
3
251
4
4
250
4
4
250
5
5
249
5
5
249
6
6
248
6
6
248
7
7
247
7
7
247
8
8
246
8
8
246
9
9
245
9
9
245
10
10
244
10
10
244
11
11
243
11
11
243
12
12
242
12
12
242
13
13
241
13
13
241
14
14
240
14
14
240
15
15
239
15
15
239
16
16
238
16
16
238
17
17
237
17
17
237
18
18
236
18
18
236
19
19
235
19
19
235
20
20
234
20
20
234
21
21
233
21
21
233
22
22
232
22
22
232
23
23
231
23
23
231
24
24
230
25
25
229
25
25
229
26
26
228
26
26
228
27
27
227
27
27
227
28
28
226
28
28
226
29
29
225
29
29
225
30
30
224
30
30
224
31
31
223
31
31
223
32
32
222
32
32
222
33
33
221
33
33
221
34
34
220
34
34
220
35
35
219
35
35
219
36
36
218
36
36
218
37
37
217
37
37
217
38
38
216
38
38
216
39
39
215
39
39
215
40
40
214
40
40
214
41
41
213
41
41
213
42
42
212
42
42
212
43
43
211
43
43
211
44
44
210
44
44
210
45
45
209
45
45
209
46
46
208
46
46
208
47
47
207
47
47
207
48
48
206
49
49
205
49
49
205
50
50
204
50
50
204
51
51
203
51
51
203
52
52
202
52
52
202
53
53
201
53
53
201
54
54
200
54
54
200
55
55
199
55
55
199
56
56
198
56
56
198
57
57
197
57
57
197
58
58
196
58
58
196
59
59
195
59
59
195
60
60
194
60
60
194
61
61
193
61
61
193
62
62
192
62
62
192
63
63
191
63
63
191
64
64
190
64
64
190
65
65
189
65
65
189
66
66
188
66
66
188
67
67
187
67
67
187
68
68
186
68
68
186
69
69
185
69
69
185
70
70
184
70
70
184
71
71
183
71
71
183
72
72
182
73
73
181
73
73
181
74
74
180
74
74
180
75
75
179
75
75
179
76
76
178
76
76
178
77
77
177
77
77
177
78
78
176
78
78
176
79
79
175
79
79
175
80
80
174
80
80
174
81
81
173
81
81
173
82
82
172
82
82
172
83
83
171
83
83
171
84
84
170
84
84
170
85
85
169
85
85
169
86
86
168
86
86
168
87
87
167
87
87
167
88
88
166
88
88
166
89
89
165
89
89
165
90
90
164
90
90
164
91
91
163
91
91
163
92
92
162
92
92
162
93
93
161
93
93
161
94
94
160
94
94
160
95
95
159
95
95
159
96
96
158
96
96
158
97
97
157
98
98
156
98
98
156
99
99
155
99
99
155
100
100
154
100
100
154
101
101
153
101
101
153
102
102
152
102
102
152
103
103
151
103
103
151
104
104
150
104
104
150
105
105
149
105
105
149
106
106
148
106
106
148
107
107
147
107
107
147
108
108
146
108
108
146
109
109
145
109
109
145
110
110
144
110
110
144
111
111
143
111
111
143
112
112
142
112
112
142
113
113
141
113
113
141
114
114
140
114
114
140
115
115
139
115
115
139
116
116
138
116
116
138
117
117
137
117
117
137
118
118
136
118
118
136
119
119
135
119
119
135
120
120
134
120
120
134
121
121
133
122
122
132
122
122
132
123
123
131
123
123
131
124
124
130
124
124
130
125
125
129
125
125
129
126
126
128
126
126
128
127
127
127
127
127
127
128
128
126
128
128
126
129
129
125
129
129
125
130
130
124
130
130
124
131
131
123
131
131
123
132
132
122
132
132
122
133
133
121
133
133
121
134
134
120
134
134
120
135
135
119
135
135
119
136
136
118
136
136
118
137
137
117
137
137
117
138
138
116
138
138
116
139
139
115
139
139
115
140
140
114
140
140
114
141
141
113
141
141
113
142
142
112
142
142
112
143
143
111
143
143
111
144
144
110
144
144
110
145
145
109
146
146
108
146
146
108
147
147
107
147
147
107
148
148
106
148
148
106
149
149
105
149
149
105
150
150
104
150
150
104
151
151
103
151
151
103
152
152
102
152
152
102
153
153
101
153
153
101
154
154
100
154
154
100
155
155
99
155
155
99
156
156
98
156
156
98
157
157
97
157
157
97
158
158
96
158
158
96
159
159
95
159
159
95
160
160
94
160
160
94
161
161
93
161
161
93
162
162
92
162
162
92
163
163
91
163
163
91
164
164
90
164
164
90
165
165
89
165
165
89
166
166
88
166
166
88
167
167
87
167
167
87
168
168
86
168
168
86
169
169
85
169
169
85
170
170
84
171
171
83
171
171
83
172
172
82
172
172
82
173
173
81
173
173
81
174
174
80
174
174
80
175
175
79
175
175
79
176
176
78
176
176
78
177
177
77
177
177
77
178
178
76
178
178
76
179
179
75
179
179
75
180
180
74
180
180
74
181
181
73
181
181
73
182
182
72
182
182
72
183
183
71
183
183
71
184
184
70
184
184
70
185
185
69
185
185
69
186
186
68
186
186
68
187
187
67
187
187
67
188
188
66
188
188
66
189
189
65
189
189
65
190
190
64
190
190
64
191
191
63
191
191
63
192
192
62
192
192
62
193
193
61
193
193
61
194
194
60
195
195
59
195
195
59
196
196
58
196
196
58
197
197
57
197
197
57
198
198
56
198
198
56
199
199
55
199
199
55
200
200
54
200
200
54
201
201
53
201
201
53
202
202
52
202
202
52
203
203
51
203
203
51
204
204
50
204
204
50
205
205
49
205
205
49
206
206
48
206
206
48
207
207
47
207
207
47
208
208
46
208
208
46
209
209
45
209
209
45
210
210
44
210
210
44
211
211
43
211
211
43
212
212
42
212
212
42
213
213
41
213
213
41
214
214
40
214
214
40
215
215
39
215
215
39
216
216
38
216
216
38
217
217
37
217
217
37
218
218
36
219
219
35
219
219
35
220
220
34
220
220
34
221
221
33
221
221
33
222
222
32
222
222
32
223
223
31
223
223
31
224
224
30
224
224
30
225
225
29
225
225
29
226
226
28
226
226
28
227
227
27
227
227
27
228
228
26
228
228
26
229
229
25
229
229
25
230
230
24
230
230
24
231
231
23
231
231
23
232
232
22
232
232
22
233
233
21
233
233
21
234
234
20
234
234
20
235
235
19
235
235
19
236
236
18
236
236
18
237
237
17
237
237
17
238
238
16
238
238
16
239
239
15
239
239
15
240
240
14
240
240
14
241
241
13
241
241
13
242
242
12
243
243
11
243
243
11
244
244
10
244
244
10
245
245
9
245
245
9
246
246
8
246
246
8
247
247
7
247
247
7
248
248
6
248
248
6
249
249
5
249
249
5
250
250
4
250
250
4
251
251
3
251
251
3
252
252
2
252
252
2
253
253
1
253
253
1
254
254
0
254
254
0
255
254
0
255
254
0
255
253
0
255
253
0
255
252
0
255
252
0
255
251
0
255
251
0
255
250
0
255
250
0
255
249
0
255
249
0
255
248
0
255
248
0
255
247
0
255
247
0
255
246
0
255
246
0
255
245
0
255
245
0
255
244
0
255
244
0
255
243
0
255
243
0
255
242
0
255
241
0
255
241
0
255
240
0
255
240
0
255
239
0
255
239
0
255
238
0
255
238
0
255
237
0
255
237
0
255
236
0
255
236
0
255
235
0
255
235
0
255
234
0
255
234
0
255
233
0
255
233
0
255
232
0
255
232
0
255
231
0
255
231
0
255
230
0
255
230
0
255
229
0
255
229
0
255
228
0
255
228
0
255
227
0
255
227
0
255
226
0
255
226
0
255
225
0
255
225
0
255
224
0
255
224
0
255
223
0
255
223
0
255
222
0
255
222
0
255
221
0
255
221
0
255
220
0
255
220
0
255
219
0
255
219
0
255
218
0
255
217
0
255
217
0
255
216
0
255
216
0
255
215
0
255
215
0
255
214
0
255
214
0
255
213
0
255
213
0
255
212
0
255
212
0
255
211
0
255
211
0
255
210
0
255
210
0
255
209
0
255
209
0
255
208
0
255
208
0
255
207
0
255
207
0
255
206
0
255
206
0
255
205
0
255
205
0
255
204
0
255
204
0
255
203
0
255
203
0
255
202
0
255
202
0
255
201
0
255
201
0
255
200
0
255
200
0
255
199
0
255
199
0
255
198
0
255
198
0
255
197
0
255
197
0
255
196
0
255
196
0
255
195
0
255
195
0
255
194
0
255
193
0
255
193
0
255
192
0
255
192
0
255
191
0
255
191
0
255
190
0
255
190
0
255
189
0
255
189
0
255
188
0
255
188
0
255
187
0
255
187
0
255
186
0
255
186
0
255
185
0
255
185
0
255
184
0
255
184
0
255
183
0
255
183
0
255
182
0
255
182
0
255
181
0
255
181
0
255
180
0
255
180
0
255
179
0
255
179
0
255
178
0
255
178
0
255
177
0
255
177
0
255
176
0
255
176
0
255
175
0
255
175
0
255
174
0
255
174
0
255
173
0
255
173
0
255
172
0
255
172
0
255
171
0
255
171
0
255
170
0
255
170
0
255
169
0
255
168
0
255
168
0
255
167
0
255
167
0
255
166
0
255
166
0
255
165
0
255
165
0
255
164
0
255
164
0
255
163
0
255
163
0
255
162
0
255
162
0
255
161
0
255
161
0
255
160
0
255
160
0
255
159
0
255
159
0
255
158
0
255
158
0
255
157
0
255
157
0
255
156
0
255
156
0
255
155
0
255
155
0
255
154
0
255
154
0
255
153
0
255
153
0
255
152
0
255
152
0
255
151
0
255
151
0
255
150
0
255
150
0
255
149
0
255
149
0
255
148
0
255
148
0
255
147
0
255
147
0
255
146
0
255
146
0
255
145
0
255
144
0
255
144
0
255
143
0
255
143
0
255
142
0
255
142
0
255
141
0
255
141
0
255
140
0
255
140
0
255
139
0
255
139
0
255
138
0
255
138
0
255
137
0
255
137
0
255
136
0
255
136
0
255
135
0
255
135
0
255
134
0
255
134
0
255
133
0
255
133
0
255
132
0
255
132
0
255
131
0
255
131
0
255
130
0
255
130
0
255
129
0
255
129
0
255
128
0
255
128
0
255
127
0
255
127
0
255
126
0
255
126
0
255
125
0
255
125
0
255
124
0
255
124
0
255
123
0
255
123
0
255
122
0
255
122
0
255
121
0
255
120
0
255
120
0
255
119
0
255
119
0
255
118
0
255
118
0
255
117
0
255
117
0
255
116
0
255
116
0
255
115
0
255
115
0
255
114
0
255
114
0
255
113
0
255
113
0
255
112
0
255
112
0
255
111
0
255
111
0
255
110
0
255
110
0
255
109
0
255
109
0
255
108
0
255
108
0
255
107
0
255
107
0
255
106
0
255
106
0
255
105
0
255
105
0
255
104
0
255
104
0
255
103
0
255
103
0
255
102
0
255
102
0
255
101
0
255
101
0
255
100
0
255
100
0
255
99
0
255
99
0
255
98
0
255
98
0
255
97
0
255
96
0
255
96
0
255
95
0
255
95
0
255
94
0
255
94
0
255
93
0
255
93
0
255
92
0
255
92
0
255
91
0
255
91
0
255
90
0
255
90
0
255
89
0
255
89
0
255
88
0
255
88
0
255
87
0
255
87
0
255
86
0
255
86
0
255
85
0
255
85
0
255
84
0
255
84
0
255
83
0
255
83
0
255
82
0
255
82
0
255
81
0
255
81
0
255
80
0
255
80
0
255
79
0
255
79
0
255
78
0
255
78
0
255
77
0
255
77
0
255
76
0
255
76
0
255
75
0
255
75
0
255
74
0
255
74
0
255
73
0
255
73
0
255
72
0
255
71
0
255
71
0
255
70
0
255
70
0
255
69
0
255
69
0
255
68
0
255
68
0
255
67
0
255
67
0
255
66
0
255
66
0
255
65
0
255
65
0
255
64
0
255
64
0
255
63
0
255
63
0
255
62
0
255
62
0
255
61
0
255
61
0
255
60
0
255
60
0
255
59
0
255
59
0
255
58
0
255
58
0
255
57
0
255
57
0
255
56
0
255
56
0
255
55
0
255
55
0
255
54
0
255
54
0
255
53
0
255
53
0
255
52
0
255
52
0
255
51
0
255
51
0
255
50
0
255
50
0
255
49
0
255
49
0
255
48
0
255
47
0
255
47
0
255
46
0
255
46
0
255
45
0
255
45
0
255
44
0
255
44
0
255
43
0
255
43
0
255
42
0
255
42
0
255
41
0
255
41
0
255
40
0
255
40
0
255
39
0
255
39
0
255
38
0
255
38
0
255
37
0
255
37
0
255
36
0
255
36
0
255
35
0
255
35
0
255
34
0
255
34
0
255
33
0
255
33
0
255
32
0
255
32
0
255
31
0
255
31
0
255
30
0
255
30
0
255
29
0
255
29
0
255
28
0
255
28
0
255
27
0
255
27
0
255
26
0
255
26
0
255
25
0
255
25
0
255
24
0
255
23
0
255
23
0
255
22
0
255
22
0
255
21
0
255
21
0
255
20
0
255
20
0
255
19
0
255
19
0
255
18
0
255
18
0
255
17
0
255
17
0
255
16
0
255
16
0
255
15
0
255
15
0
255
14
0
255
14
0
255
13
0
255
13
0
255
12
0
255
12
0
255
11
0
255
11
0
255
10
0
255
10
0
255
9
0
255
9
0
255
8
0
255
8
0
255
7
0
255
7
0
255
6
0
255
6
0
255
5
0
255
5
0
255
4
0
255
4
0
255
3
0
255
3
0
255
2
0
255
2
0
255
1
0
255
1
0
255
0
0
255
0
0
255
0
0
255
0
0
255
0
0
255
0
0
255
0
0
255
0
0
255
0
0
255
0
0
255
0
0
255
0
0
255
0
0
255
0
0
255
0
0
255
0
0
255
0
0
255
0
0
255
0
0
255
0
0
255
0
0
255
0
0
255
0
0
255
0
0
