P3
# Created by GIMP version 2.10.12 PNM plug-in
1024 1
255
1
88
1
1
88
1
4
90
1
6
92
1
9
93
0
10
94
0
12
96
1
13
96
0
15
97
0
16
98
1
18
99
1
19
100
1
20
101
0
21
102
0
23
103
1
24
103
1
25
104
1
26
105
1
27
106
1
29
106
0
30
107
0
31
108
1
31
109
1
33
109
0
34
110
1
35
111
1
36
111
0
37
112
1
38
113
0
39
113
1
40
114
1
41
114
1
42
115
0
43
116
1
44
116
1
45
117
1
46
118
1
46
118
1
47
119
0
48
119
0
49
120
1
50
121
0
51
121
1
52
122
0
53
122
0
54
122
1
55
124
1
55
124
1
56
124
1
57
125
1
58
126
0
59
126
1
60
127
1
60
127
1
61
128
0
62
128
1
63
129
1
64
129
1
64
130
0
65
130
1
66
131
1
67
132
0
68
132
0
68
133
1
69
133
1
70
134
0
71
134
1
72
134
0
72
135
1
73
135
0
74
136
0
74
136
0
75
137
0
76
138
1
77
138
0
77
138
1
78
139
0
79
139
0
80
140
1
80
141
0
81
141
0
82
141
0
83
142
0
83
142
1
84
143
1
85
143
1
85
144
1
87
144
1
87
144
0
88
145
1
89
145
0
89
146
1
90
147
1
91
147
1
91
148
1
92
148
1
93
149
0
94
149
0
94
149
1
95
150
1
95
150
0
96
151
0
97
151
0
97
151
0
98
152
0
99
153
1
99
153
0
100
154
0
101
154
1
102
154
1
102
155
0
103
155
0
103
156
0
104
156
0
105
157
0
106
157
0
106
158
1
107
158
1
108
158
0
108
159
1
109
159
0
109
160
0
110
160
0
111
160
1
111
161
0
112
161
1
113
162
0
113
162
0
114
162
0
115
163
1
115
164
1
116
164
0
117
164
0
117
164
0
118
165
0
119
165
1
119
166
0
120
166
1
121
167
0
121
167
1
122
168
0
122
168
0
123
168
1
124
169
1
124
169
1
125
169
0
126
170
1
126
171
1
126
171
1
127
171
1
128
172
1
129
172
0
129
172
1
130
173
0
130
173
0
131
174
0
132
174
0
132
174
1
133
175
0
133
175
0
134
176
1
134
176
1
135
176
0
136
177
1
136
177
1
137
177
0
137
178
0
138
178
1
139
179
1
139
179
1
140
179
1
140
180
0
141
180
1
142
180
1
142
181
0
143
181
0
144
182
1
144
182
0
144
183
1
145
183
0
146
183
0
146
183
0
147
184
1
148
184
1
148
185
0
149
185
0
149
186
0
150
186
1
151
186
0
151
187
1
151
187
1
152
187
0
153
188
0
153
188
1
154
189
0
155
189
0
155
190
1
156
190
1
156
190
1
157
191
1
157
191
1
158
192
1
159
191
0
159
192
1
160
192
0
160
193
0
161
193
1
161
194
0
162
194
1
163
194
1
163
195
1
164
195
1
164
195
1
165
196
0
165
196
1
166
197
1
166
197
1
167
197
0
167
197
1
168
198
0
169
199
0
169
199
1
169
199
1
170
199
0
170
200
0
171
200
0
172
200
0
172
201
0
173
201
1
173
202
1
174
202
0
175
202
0
175
202
1
175
203
0
176
203
1
177
204
0
177
204
1
178
205
0
178
205
0
179
205
1
180
205
0
180
206
1
180
206
0
181
206
0
181
207
0
182
207
0
183
208
0
183
208
1
184
209
1
184
209
0
185
209
1
185
209
1
186
210
0
186
210
1
187
210
0
187
211
0
188
211
1
188
211
0
189
212
0
190
212
1
190
213
1
191
213
1
191
213
0
192
213
0
192
214
1
193
214
0
193
214
0
193
215
0
194
215
1
195
215
0
196
216
1
196
216
1
196
216
1
197
217
1
198
217
1
198
218
1
198
218
0
199
218
1
200
219
1
200
219
1
200
219
1
201
219
0
202
220
0
202
221
1
203
221
1
203
221
1
204
221
0
204
222
1
204
222
0
205
222
0
206
222
0
206
223
1
207
223
1
207
224
0
208
224
1
208
225
1
209
225
1
209
225
1
210
225
0
210
226
0
211
226
1
211
226
1
212
227
0
212
227
1
213
227
1
213
228
1
214
228
0
214
228
1
215
229
0
215
229
1
216
229
1
216
230
0
217
230
0
217
230
0
218
230
1
218
231
0
218
232
0
219
232
0
220
232
1
220
233
1
221
233
1
221
233
1
222
234
0
222
233
1
223
234
1
223
234
1
224
234
1
224
235
1
225
235
0
225
236
1
226
236
1
226
236
0
227
236
0
227
237
0
228
237
1
228
238
0
229
238
1
229
238
1
230
238
0
230
239
0
230
239
1
231
239
1
232
240
1
232
240
1
232
240
0
233
241
0
234
241
1
234
241
1
235
241
0
235
242
0
235
242
0
236
243
1
237
243
0
237
243
0
238
244
0
238
244
0
238
244
1
239
245
1
239
245
0
240
245
0
241
246
0
240
246
0
241
246
1
242
246
1
242
247
0
243
247
1
243
247
1
244
248
0
244
248
1
245
249
0
245
249
1
246
249
1
246
249
0
246
250
1
247
250
0
248
250
0
248
251
0
248
251
0
249
251
0
249
251
0
250
252
0
250
252
0
251
252
1
251
253
0
252
253
1
252
253
0
252
254
1
253
254
1
254
254
1
254
255
1
254
255
1
255
255
1
255
255
1
255
255
1
255
255
0
255
255
0
255
255
1
255
255
1
255
254
1
255
254
1
255
254
1
255
254
2
255
253
1
255
253
2
255
253
2
255
253
2
255
252
2
255
252
3
255
252
3
255
252
3
255
251
3
255
251
3
254
251
3
254
250
3
254
250
4
254
250
4
255
249
4
254
249
4
254
248
5
254
248
4
254
248
5
254
248
5
254
247
5
254
247
5
254
246
6
254
246
6
254
246
6
254
245
6
253
245
6
254
244
7
253
244
7
253
244
7
253
243
7
253
243
8
253
243
8
253
242
8
253
242
8
253
241
9
253
241
9
252
241
9
253
240
9
252
239
10
252
239
10
252
239
10
252
238
10
252
238
11
252
237
11
252
237
11
252
237
11
252
236
11
252
236
12
252
235
12
251
235
12
252
234
12
251
234
13
251
234
13
251
233
13
251
233
14
251
232
14
251
232
14
251
231
14
251
231
15
251
230
15
251
230
15
250
229
16
250
229
16
250
228
16
250
228
16
250
227
17
250
227
17
250
226
17
250
226
18
249
225
18
250
225
18
250
224
18
249
224
19
250
223
19
249
223
19
249
222
19
249
222
20
249
221
20
249
220
20
249
220
21
249
220
21
249
219
21
249
218
21
248
218
22
248
218
22
248
217
22
248
217
23
248
216
23
248
216
23
248
215
24
248
214
24
247
214
25
247
214
24
247
212
25
247
212
25
247
212
25
247
211
26
247
210
26
247
210
26
247
209
27
246
209
27
246
208
28
246
208
28
246
207
28
246
207
28
246
206
29
246
205
29
246
205
29
246
204
29
246
204
30
246
203
30
245
202
31
245
202
31
245
202
31
245
201
31
245
200
32
245
200
32
245
199
33
244
199
33
245
198
33
244
197
33
245
197
34
244
196
34
244
196
34
244
195
35
244
195
35
244
194
36
243
193
36
243
193
36
243
192
37
244
192
37
243
191
37
243
190
37
243
190
38
243
189
38
243
189
39
243
188
39
242
187
39
242
187
39
242
186
40
242
186
40
242
185
40
242
184
41
242
183
42
242
183
42
242
183
42
242
182
42
242
182
43
241
181
43
241
180
44
241
180
44
241
179
44
241
178
44
240
178
45
241
177
46
241
176
46
240
176
46
240
175
46
240
175
47
240
174
47
240
173
47
240
172
48
239
172
48
239
171
48
239
171
49
239
170
49
239
169
50
239
169
50
239
168
51
238
167
50
238
167
51
239
166
51
239
166
52
238
165
52
238
164
52
238
164
53
237
163
54
238
163
54
237
161
54
238
161
54
237
160
55
237
159
55
237
159
55
237
158
56
237
158
56
237
157
56
237
156
57
236
156
57
236
155
58
236
154
58
236
154
59
236
153
59
236
152
59
235
152
60
235
151
60
235
150
60
235
149
61
235
149
61
235
148
61
235
148
61
234
148
61
234
147
61
233
147
61
232
147
61
232
146
61
232
146
60
231
146
60
231
145
60
230
145
60
229
145
60
229
144
60
228
144
60
228
144
60
227
143
60
227
143
59
226
142
59
226
142
59
225
142
59
225
141
59
224
141
59
223
141
59
223
141
58
223
140
58
222
140
58
222
139
58
221
139
58
221
139
58
220
139
58
219
138
57
219
138
57
218
138
57
218
137
57
217
137
57
217
136
57
216
136
56
215
136
57
215
135
56
214
135
56
214
135
56
213
134
56
213
134
56
212
134
56
212
134
55
211
133
55
211
133
55
210
133
55
210
132
55
209
132
55
209
131
54
208
131
54
208
131
54
207
130
54
206
130
54
206
130
54
205
129
53
205
129
54
204
129
53
203
128
53
203
128
53
202
128
53
202
127
53
202
127
53
201
126
53
200
126
53
200
126
52
199
126
52
198
125
52
198
125
52
198
125
52
197
124
52
196
124
51
196
124
51
196
123
51
195
123
51
194
123
51
194
122
51
193
122
51
192
121
50
192
121
50
192
121
50
191
121
50
190
120
50
190
120
50
190
119
50
189
119
50
188
119
49
188
118
49
187
118
49
187
118
49
186
118
49
186
117
49
185
116
49
185
116
48
184
116
48
183
116
48
183
116
48
182
115
48
182
115
47
181
114
47
181
114
47
180
114
47
180
113
47
179
113
47
179
113
47
178
112
47
177
112
46
177
112
46
177
111
46
176
111
46
175
111
46
175
110
46
174
110
46
173
109
45
173
109
45
172
109
45
172
109
45
171
108
45
171
108
45
170
107
45
170
107
44
169
107
44
169
106
44
168
106
44
167
106
44
167
105
43
167
105
44
166
105
44
165
104
43
165
104
43
164
103
43
164
103
43
163
103
42
163
103
42
162
102
43
161
102
42
161
102
42
160
101
42
159
101
42
159
101
42
159
100
41
158
100
41
158
99
41
157
99
41
156
99
41
156
98
41
155
98
41
155
98
41
154
97
41
154
97
40
153
96
40
153
96
40
152
96
40
152
96
40
151
95
39
150
95
40
150
95
39
149
94
39
149
94
39
148
94
39
148
93
39
147
93
39
146
92
39
146
92
38
145
92
38
145
91
38
144
91
38
144
91
38
143
91
38
143
90
38
142
90
37
141
89
37
141
89
37
141
89
37
140
89
37
139
88
37
139
88
37
138
87
37
138
87
36
137
87
36
137
86
36
136
86
35
135
86
36
135
85
35
134
85
35
133
84
35
133
84
35
133
84
35
132
84
35
132
83
35
131
83
35
131
82
34
130
82
34
129
82
34
129
82
34
128
81
34
128
80
33
127
80
33
127
80
33
126
80
33
126
79
33
125
79
33
124
79
33
124
78
32
123
78
33
123
78
33
122
77
32
122
77
32
121
77
32
121
76
32
120
76
31
120
76
32
119
75
31
118
75
31
118
74
31
118
74
31
117
74
31
116
73
31
116
73
31
115
73
30
115
72
30
114
72
30
113
71
30
113
71
30
112
71
30
111
70
29
111
70
29
111
70
29
110
70
29
110
69
29
109
69
29
109
68
29
108
68
28
107
68
28
107
67
28
106
67
28
106
67
27
105
66
28
104
66
27
104
66
27
104
65
27
103
65
27
102
64
27
102
64
27
101
64
27
100
63
27
100
63
26
99
63
26
99
63
26
98
62
26
98
62
26
97
61
26
97
61
25
96
61
25
96
60
25
95
60
25
95
60
25
94
60
25
94
59
25
93
58
25
92
59
24
92
58
24
91
58
24
91
57
24
90
57
23
89
57
24
89
56
23
89
56
24
88
56
23
88
55
23
87
55
23
86
54
23
86
54
23
85
54
22
85
53
22
84
53
22
84
53
22
83
52
22
82
52
22
81
52
22
81
52
22
81
51
21
80
51
21
80
50
21
79
50
21
79
50
21
78
49
21
77
49
21
77
49
20
77
48
20
76
48
20
76
48
20
75
47
20
74
47
19
74
47
20
73
46
19
73
46
19
72
46
19
71
45
19
71
45
19
71
44
19
70
44
19
69
44
18
69
43
18
68
43
18
68
43
18
67
43
18
67
42
18
66
42
18
65
41
17
65
41
17
64
41
17
64
41
17
63
40
17
63
40
16
62
40
17
62
39
16
61
39
16
61
38
16
60
38
16
60
38
16
59
38
16
58
37
15
58
37
15
57
36
15
57
36
15
56
36
15
56
35
15
55
35
14
55
35
14
54
34
14
54
34
14
53
34
14
53
33
14
52
33
14
51
33
14
51
32
13
51
32
14
50
32
13
49
31
13
49
31
13
48
31
13
48
30
13
47
30
13
47
30
12
46
29
12
45
29
12
45
29
12
45
28
12
44
28
12
44
28
12
43
27
11
43
27
11
42
27
11
42
26
11
41
26
11
41
26
11
40
25
11
40
25
11
39
25
10
39
24
10
38
24
10
38
24
10
37
23
10
36
23
10
36
23
10
35
22
10
35
22
9
34
22
10
34
21
9
33
21
9
33
21
9
32
21
9
32
20
9
32
20
9
31
19
9
31
20
8
30
19
8
30
19
8
29
19
8
29
18
8
28
18
8
28
18
8
27
18
7
27
17
8
27
17
7
26
16
7
26
16
7
25
16
6
25
16
7
24
15
7
24
15
6
23
15
6
23
15
6
23
14
6
23
14
6
22
14
6
21
14
6
22
13
6
21
13
6
20
13
6
20
13
5
20
13
5
19
13
5
19
12
5
19
12
5
19
12
5
18
11
5
18
11
5
18
11
5
18
11
4
18
11
4
17
11
4
17
11
5
17
10
5
17
10
4
17
10
4
17
10
4
17
10
4
16
10
5
16
10
4
16
10
4
