P3
# CREATOR: The GIMP's PNM Filter Version 1.0
1024 1
255
0
0
0
0
0
0
0
0
0
0
0
0
1
0
0
1
0
0
1
0
0
2
0
0
2
0
0
2
1
0
3
1
0
3
1
0
3
1
0
4
1
0
4
1
0
4
1
0
5
1
0
5
1
0
5
2
0
6
2
0
6
2
0
6
2
0
7
2
0
7
2
0
7
2
0
8
2
0
8
2
0
8
3
0
9
3
0
9
3
0
9
3
0
10
3
0
10
3
0
10
3
0
11
3
0
11
3
0
11
4
0
12
4
0
12
4
0
12
4
0
13
4
0
13
4
0
13
4
1
14
4
1
14
5
1
14
5
1
15
5
1
15
5
1
15
5
1
16
5
1
16
5
1
16
5
1
17
5
1
17
6
1
17
6
1
18
6
1
18
6
1
18
6
1
19
6
1
19
6
1
19
6
1
20
6
1
20
7
1
20
7
1
21
7
1
21
7
1
21
7
1
22
7
1
22
7
1
22
7
1
23
7
1
23
8
1
23
8
1
24
8
1
24
8
1
24
8
1
25
8
1
25
8
1
25
8
1
26
9
1
26
9
1
26
9
1
27
9
1
27
9
1
27
9
2
28
9
2
28
9
2
28
9
2
29
10
2
29
10
2
29
10
2
30
10
2
30
10
2
30
10
2
31
10
2
31
10
2
31
10
2
32
11
2
32
11
2
32
11
2
33
11
2
33
11
2
33
11
2
34
11
2
34
11
2
34
11
2
35
12
2
35
12
2
35
12
2
36
12
2
36
12
2
36
12
2
37
12
2
37
12
2
37
13
2
38
13
2
38
13
2
38
13
2
39
13
2
39
13
2
39
13
2
40
13
2
40
13
2
40
14
2
41
14
2
41
14
2
41
14
3
42
14
3
42
14
3
42
14
3
43
14
3
43
14
3
43
15
3
44
15
3
44
15
3
44
15
3
45
15
3
45
15
3
45
15
3
46
15
3
46
15
3
46
16
3
47
16
3
47
16
3
47
16
3
48
16
3
48
16
3
48
16
3
49
16
3
49
16
3
49
17
3
50
17
3
50
17
3
50
17
3
51
17
3
51
17
3
51
17
3
52
17
3
52
18
3
52
18
3
53
18
3
53
18
3
53
18
3
54
18
3
54
18
3
54
18
3
55
18
3
55
19
3
55
19
4
56
19
4
56
19
4
56
19
4
57
19
4
57
19
4
57
19
4
58
19
4
58
20
4
58
20
4
59
20
4
59
20
4
59
20
4
60
20
4
60
20
4
60
20
4
61
20
4
61
21
4
61
21
4
62
21
4
62
21
4
62
21
4
63
21
4
63
21
4
63
21
4
64
22
4
64
22
4
64
22
4
65
22
4
65
22
4
65
22
4
66
22
4
66
22
4
66
22
4
67
23
4
67
23
4
67
23
4
68
23
4
68
23
4
68
23
4
69
23
4
69
23
4
69
23
5
70
24
5
70
24
5
70
24
5
70
24
5
71
24
5
71
24
5
71
24
5
72
24
5
72
24
5
72
25
5
73
25
5
73
25
5
73
25
5
74
25
5
74
25
5
74
25
5
75
25
5
75
26
5
75
26
5
76
26
5
76
26
5
76
26
5
77
26
5
77
26
5
77
26
5
78
26
5
78
27
5
78
27
5
79
27
5
79
27
5
79
27
5
80
27
5
80
27
5
80
27
5
81
27
5
81
28
5
81
28
5
82
28
5
82
28
5
82
28
5
83
28
5
83
28
6
83
28
6
84
28
6
84
29
6
84
29
6
85
29
6
85
29
6
85
29
6
86
29
6
86
29
6
86
29
6
87
29
6
87
30
6
87
30
6
88
30
6
88
30
6
88
30
6
89
30
6
89
30
6
89
30
6
90
31
6
90
31
6
90
31
6
91
31
6
91
31
6
91
31
6
92
31
6
92
31
6
92
31
6
93
32
6
93
32
6
93
32
6
94
32
6
94
32
6
94
32
6
95
32
6
95
32
6
95
32
6
96
33
6
96
33
6
96
33
6
97
33
6
97
33
7
97
33
7
98
33
7
98
33
7
98
33
7
99
34
7
99
34
7
99
34
7
100
34
7
100
34
7
100
34
7
101
34
7
101
34
7
101
35
7
102
35
7
102
35
7
102
35
7
103
35
7
103
35
7
104
35
7
104
35
7
104
36
7
105
36
7
105
36
7
105
36
7
106
36
7
106
36
7
106
36
7
107
36
7
107
37
7
108
37
7
108
37
7
108
37
7
109
37
7
109
37
7
109
37
7
110
37
7
110
38
7
110
38
7
111
38
8
111
38
8
112
38
8
112
38
8
112
38
8
113
38
8
113
39
8
113
39
8
114
39
8
114
39
8
114
39
8
115
39
8
115
39
8
116
39
8
116
40
8
116
40
8
117
40
8
117
40
8
117
40
8
118
40
8
118
40
8
118
40
8
119
41
8
119
41
8
119
41
8
120
41
8
120
41
8
121
41
8
121
41
8
121
41
8
122
41
8
122
42
8
122
42
8
123
42
8
123
42
8
123
42
8
124
42
8
124
42
8
125
42
9
125
43
9
125
43
9
126
43
9
126
43
9
126
43
9
127
43
9
127
43
9
127
43
9
128
44
9
128
44
9
129
44
9
129
44
9
129
44
9
130
44
9
130
44
9
130
44
9
131
45
9
131
45
9
131
45
9
132
45
9
132
45
9
133
45
9
133
45
9
133
45
9
134
46
9
134
46
9
134
46
9
135
46
9
135
46
9
135
46
9
136
46
9
136
46
9
137
47
9
137
47
9
137
47
9
138
47
9
138
47
9
138
47
9
139
47
10
139
47
10
139
48
10
140
48
10
140
48
10
140
48
10
141
48
10
141
48
10
142
48
10
142
48
10
142
49
10
143
49
10
143
49
10
143
49
10
144
49
10
144
49
10
144
49
10
145
49
10
145
50
10
146
50
10
146
50
10
146
50
10
147
50
10
147
50
10
147
50
10
148
50
10
148
51
10
148
51
10
149
51
10
149
51
10
150
51
10
150
51
10
150
51
10
151
51
10
151
52
10
151
52
10
152
52
10
152
52
10
152
52
11
153
52
11
153
52
11
154
52
11
154
53
11
154
53
11
155
53
11
155
53
11
155
53
11
156
53
11
156
53
11
156
53
11
157
54
11
157
54
11
158
54
11
158
54
11
158
54
11
159
54
11
159
54
11
159
54
11
160
55
11
160
55
11
160
55
11
161
55
11
161
55
11
161
55
11
162
55
11
162
55
11
163
56
11
163
56
11
163
56
11
164
56
11
164
56
11
164
56
11
165
56
11
165
56
11
165
57
11
166
57
11
166
57
12
167
57
12
167
57
12
167
57
12
168
57
12
168
57
12
168
58
12
169
58
12
169
58
12
169
58
12
170
58
12
170
58
12
171
58
12
171
58
12
171
59
12
172
59
12
172
59
12
172
59
12
173
59
12
173
59
12
173
59
12
174
59
12
174
60
12
175
60
12
175
60
12
175
60
12
176
60
12
176
60
12
176
60
12
177
60
12
177
61
12
177
61
12
178
61
12
178
61
12
179
61
12
179
61
12
179
61
12
180
61
12
180
62
12
180
62
13
181
62
13
181
62
13
181
62
13
182
62
13
182
62
13
183
62
13
183
63
13
183
63
13
184
63
13
184
63
13
184
63
13
185
63
13
185
63
13
185
63
13
186
64
13
186
64
13
186
64
13
187
64
13
187
64
13
188
64
13
188
64
13
188
64
13
189
65
13
189
65
13
189
65
13
190
65
13
190
65
13
190
65
13
191
65
13
191
65
13
192
66
13
192
66
13
192
66
13
193
66
13
193
66
13
193
66
13
194
66
13
194
66
14
194
67
14
195
67
14
195
67
14
196
67
14
196
67
14
196
67
14
197
67
14
197
67
14
197
68
14
198
68
14
198
68
14
198
68
14
199
68
14
199
68
14
200
68
14
200
68
14
200
69
14
201
69
14
201
69
14
201
69
14
202
69
14
202
69
14
202
69
14
203
70
14
203
71
14
203
71
14
203
72
14
203
72
14
203
73
14
204
74
14
204
74
14
204
75
14
204
75
14
204
76
14
204
77
14
205
77
13
205
78
13
205
78
13
205
79
13
205
80
13
205
80
13
206
81
13
206
81
13
206
82
13
206
83
13
206
83
13
206
84
13
207
84
13
207
85
13
207
86
13
207
86
13
207
87
13
207
87
13
208
88
13
208
89
13
208
89
13
208
90
12
208
90
12
208
91
12
209
92
12
209
92
12
209
93
12
209
93
12
209
94
12
210
95
12
210
95
12
210
96
12
210
96
12
210
97
12
210
98
12
211
98
12
211
99
12
211
99
12
211
100
12
211
101
12
211
101
12
212
102
12
212
103
11
212
103
11
212
104
11
212
104
11
212
105
11
213
106
11
213
106
11
213
107
11
213
107
11
213
108
11
213
109
11
214
109
11
214
110
11
214
110
11
214
111
11
214
112
11
214
112
11
215
113
11
215
113
11
215
114
11
215
115
11
215
115
10
215
116
10
216
116
10
216
117
10
216
118
10
216
118
10
216
119
10
216
119
10
217
120
10
217
121
10
217
121
10
217
122
10
217
122
10
217
123
10
218
124
10
218
124
10
218
125
10
218
125
10
218
126
10
218
127
10
219
127
10
219
128
9
219
128
9
219
129
9
219
130
9
220
130
9
220
131
9
220
131
9
220
132
9
220
133
9
220
133
9
221
134
9
221
134
9
221
135
9
221
136
9
221
136
9
221
137
9
222
137
9
222
138
9
222
139
9
222
139
9
222
140
9
222
140
8
223
141
8
223
142
8
223
142
8
223
143
8
223
143
8
223
144
8
224
145
8
224
145
8
224
146
8
224
146
8
224
147
8
224
148
8
225
148
8
225
149
8
225
150
8
225
150
8
225
151
8
225
151
8
226
152
8
226
153
8
226
153
7
226
154
7
226
154
7
226
155
7
227
156
7
227
156
7
227
157
7
227
157
7
227
158
7
227
159
7
228
159
7
228
160
7
228
160
7
228
161
7
228
162
7
229
162
7
229
163
7
229
164
7
229
165
7
230
166
6
230
167
6
230
168
6
231
169
6
231
170
6
231
171
6
231
172
6
232
173
6
232
174
6
232
175
6
232
176
6
233
177
6
233
178
6
233
179
5
234
180
5
234
181
5
234
182
5
234
183
5
235
184
5
235
185
5
235
186
5
236
187
5
236
188
5
236
189
5
236
190
5
237
191
5
237
192
4
237
193
4
237
194
4
238
195
4
238
196
4
238
197
4
239
198
4
239
199
4
239
200
4
239
201
4
240
202
4
240
203
4
240
204
3
240
205
3
241
206
3
241
207
3
241
208
3
242
209
3
242
210
3
242
211
3
242
212
3
243
213
3
243
214
3
243
215
3
244
216
3
244
217
2
244
218
2
244
219
2
245
220
2
245
221
2
245
222
2
245
223
2
246
224
2
246
224
2
246
225
2
247
226
2
247
227
2
247
228
2
247
229
1
248
230
1
248
231
1
248
232
1
249
233
1
249
234
1
249
235
1
249
236
1
250
237
1
250
238
1
250
239
1
250
240
1
251
241
1
251
242
0
251
243
0
252
244
0
252
245
0
252
246
0
252
247
0
253
248
0
253
249
0
253
250
0
254
251
0
254
252
0
254
253
0
254
254
0
255
255
0
255
255
1
255
255
2
255
255
4
255
255
5
255
255
6
255
255
7
255
255
8
255
255
9
255
255
11
255
255
12
255
255
13
255
255
14
255
255
15
255
255
16
255
255
18
255
255
19
255
255
20
255
255
21
255
255
22
255
255
23
255
255
25
255
255
26
255
255
27
255
255
28
255
255
29
255
255
30
255
255
32
255
255
33
255
255
34
255
255
35
255
255
36
255
255
37
255
255
39
255
255
40
255
255
41
255
255
42
255
255
43
255
255
44
255
255
46
255
255
47
255
255
48
255
255
49
255
255
50
255
255
51
255
255
53
255
255
54
255
255
55
255
255
56
255
255
57
255
255
58
255
255
60
255
255
61
255
255
62
255
255
63
255
255
64
255
255
65
255
255
67
255
255
68
255
255
69
255
255
70
255
255
71
255
255
72
255
255
74
255
255
75
255
255
76
255
255
77
255
255
78
255
255
79
255
255
81
255
255
82
255
255
83
255
255
84
255
255
85
255
255
86
255
255
88
255
255
89
255
255
90
255
255
91
255
255
92
255
255
93
255
255
95
255
255
96
255
255
97
255
255
98
255
255
99
255
255
100
255
255
102
255
255
103
255
255
104
255
255
105
255
255
106
255
255
107
255
255
109
255
255
110
255
255
111
255
255
112
255
255
113
255
255
114
255
255
116
255
255
117
255
255
118
255
255
119
255
255
120
255
255
121
255
255
123
255
255
124
255
255
125
255
255
126
255
255
127
255
255
129
255
255
131
255
255
132
255
255
134
255
255
135
255
255
137
255
255
139
255
255
140
255
255
142
255
255
143
255
255
145
255
255
146
255
255
148
255
255
150
255
255
151
255
255
153
255
255
154
255
255
156
255
255
158
255
255
159
255
255
161
255
255
162
255
255
164
255
255
166
255
255
167
255
255
169
255
255
170
255
255
172
255
255
173
255
255
175
255
255
177
255
255
178
255
255
180
255
255
181
255
255
183
255
255
185
255
255
186
255
255
188
255
255
189
255
255
191
255
255
193
255
255
194
255
255
196
255
255
197
255
255
199
255
255
200
255
255
202
255
255
204
255
255
205
255
255
207
255
255
208
255
255
210
255
255
212
255
255
213
255
255
215
255
255
216
255
255
218
255
255
220
255
255
221
255
255
223
255
255
224
255
255
226
255
255
227
255
255
229
255
255
231
255
255
232
255
255
234
255
255
235
255
255
237
255
255
239
255
255
240
255
255
242
255
255
243
255
255
245
255
255
247
255
255
248
255
255
250
255
255
251
255
255
253
255
255
255
